<?xml version="1.0" encoding="utf-8" standalone="no"?>
<!DOCTYPE svg PUBLIC "-//W3C//DTD SVG 1.1//EN"
  "http://www.w3.org/Graphics/SVG/1.1/DTD/svg11.dtd">
<svg xmlns:xlink="http://www.w3.org/1999/xlink" width="1000.278125pt" height="388.844525pt" viewBox="0 0 1000.278125 388.844525" xmlns="http://www.w3.org/2000/svg" version="1.1">
 <metadata>
  <rdf:RDF xmlns:dc="http://purl.org/dc/elements/1.1/" xmlns:cc="http://creativecommons.org/ns#" xmlns:rdf="http://www.w3.org/1999/02/22-rdf-syntax-ns#">
   <cc:Work>
    <dc:type rdf:resource="http://purl.org/dc/dcmitype/StillImage"/>
    <dc:date>2023-06-21T15:44:43.905282</dc:date>
    <dc:format>image/svg+xml</dc:format>
    <dc:creator>
     <cc:Agent>
      <dc:title>Matplotlib v3.5.3, https://matplotlib.org/</dc:title>
     </cc:Agent>
    </dc:creator>
   </cc:Work>
  </rdf:RDF>
 </metadata>
 <defs>
  <style type="text/css">*{stroke-linejoin: round; stroke-linecap: butt}</style>
 </defs>
 <g id="figure_1">
  <g id="axes_1">
   <g id="patch_1">
    <path d="M 43.148125 353.2239 
L 993.078125 353.2239 
L 993.078125 35.2559 
L 43.148125 35.2559 
z
" style="fill: #ffffff"/>
   </g>
   <g id="matplotlib.axis_1">
    <g id="xtick_1">
     <g id="text_1">
      <!-- 1.0 -->
      <g transform="translate(79.965511 366.30265)scale(0.08 -0.08)">
       <defs>
        <path id="DejaVuSans-31" d="M 794 531 
L 1825 531 
L 1825 4091 
L 703 3866 
L 703 4441 
L 1819 4666 
L 2450 4666 
L 2450 531 
L 3481 531 
L 3481 0 
L 794 0 
L 794 531 
z
" transform="scale(0.015625)"/>
        <path id="DejaVuSans-2e" d="M 684 794 
L 1344 794 
L 1344 0 
L 684 0 
L 684 794 
z
" transform="scale(0.015625)"/>
        <path id="DejaVuSans-30" d="M 2034 4250 
Q 1547 4250 1301 3770 
Q 1056 3291 1056 2328 
Q 1056 1369 1301 889 
Q 1547 409 2034 409 
Q 2525 409 2770 889 
Q 3016 1369 3016 2328 
Q 3016 3291 2770 3770 
Q 2525 4250 2034 4250 
z
M 2034 4750 
Q 2819 4750 3233 4129 
Q 3647 3509 3647 2328 
Q 3647 1150 3233 529 
Q 2819 -91 2034 -91 
Q 1250 -91 836 529 
Q 422 1150 422 2328 
Q 422 3509 836 4129 
Q 1250 4750 2034 4750 
z
" transform="scale(0.015625)"/>
       </defs>
       <use xlink:href="#DejaVuSans-31"/>
       <use xlink:href="#DejaVuSans-2e" x="63.623047"/>
       <use xlink:href="#DejaVuSans-30" x="95.410156"/>
      </g>
     </g>
    </g>
    <g id="xtick_2">
     <g id="text_2">
      <!-- 2.0 -->
      <g transform="translate(137.537027 366.30265)scale(0.08 -0.08)">
       <defs>
        <path id="DejaVuSans-32" d="M 1228 531 
L 3431 531 
L 3431 0 
L 469 0 
L 469 531 
Q 828 903 1448 1529 
Q 2069 2156 2228 2338 
Q 2531 2678 2651 2914 
Q 2772 3150 2772 3378 
Q 2772 3750 2511 3984 
Q 2250 4219 1831 4219 
Q 1534 4219 1204 4116 
Q 875 4013 500 3803 
L 500 4441 
Q 881 4594 1212 4672 
Q 1544 4750 1819 4750 
Q 2544 4750 2975 4387 
Q 3406 4025 3406 3419 
Q 3406 3131 3298 2873 
Q 3191 2616 2906 2266 
Q 2828 2175 2409 1742 
Q 1991 1309 1228 531 
z
" transform="scale(0.015625)"/>
       </defs>
       <use xlink:href="#DejaVuSans-32"/>
       <use xlink:href="#DejaVuSans-2e" x="63.623047"/>
       <use xlink:href="#DejaVuSans-30" x="95.410156"/>
      </g>
     </g>
    </g>
    <g id="xtick_3">
     <g id="text_3">
      <!-- 3.0 -->
      <g transform="translate(195.108542 366.30265)scale(0.08 -0.08)">
       <defs>
        <path id="DejaVuSans-33" d="M 2597 2516 
Q 3050 2419 3304 2112 
Q 3559 1806 3559 1356 
Q 3559 666 3084 287 
Q 2609 -91 1734 -91 
Q 1441 -91 1130 -33 
Q 819 25 488 141 
L 488 750 
Q 750 597 1062 519 
Q 1375 441 1716 441 
Q 2309 441 2620 675 
Q 2931 909 2931 1356 
Q 2931 1769 2642 2001 
Q 2353 2234 1838 2234 
L 1294 2234 
L 1294 2753 
L 1863 2753 
Q 2328 2753 2575 2939 
Q 2822 3125 2822 3475 
Q 2822 3834 2567 4026 
Q 2313 4219 1838 4219 
Q 1578 4219 1281 4162 
Q 984 4106 628 3988 
L 628 4550 
Q 988 4650 1302 4700 
Q 1616 4750 1894 4750 
Q 2613 4750 3031 4423 
Q 3450 4097 3450 3541 
Q 3450 3153 3228 2886 
Q 3006 2619 2597 2516 
z
" transform="scale(0.015625)"/>
       </defs>
       <use xlink:href="#DejaVuSans-33"/>
       <use xlink:href="#DejaVuSans-2e" x="63.623047"/>
       <use xlink:href="#DejaVuSans-30" x="95.410156"/>
      </g>
     </g>
    </g>
    <g id="xtick_4">
     <g id="text_4">
      <!-- 4.0 -->
      <g transform="translate(252.680057 366.30265)scale(0.08 -0.08)">
       <defs>
        <path id="DejaVuSans-34" d="M 2419 4116 
L 825 1625 
L 2419 1625 
L 2419 4116 
z
M 2253 4666 
L 3047 4666 
L 3047 1625 
L 3713 1625 
L 3713 1100 
L 3047 1100 
L 3047 0 
L 2419 0 
L 2419 1100 
L 313 1100 
L 313 1709 
L 2253 4666 
z
" transform="scale(0.015625)"/>
       </defs>
       <use xlink:href="#DejaVuSans-34"/>
       <use xlink:href="#DejaVuSans-2e" x="63.623047"/>
       <use xlink:href="#DejaVuSans-30" x="95.410156"/>
      </g>
     </g>
    </g>
    <g id="xtick_5">
     <g id="text_5">
      <!-- 5.0 -->
      <g transform="translate(310.251572 366.30265)scale(0.08 -0.08)">
       <defs>
        <path id="DejaVuSans-35" d="M 691 4666 
L 3169 4666 
L 3169 4134 
L 1269 4134 
L 1269 2991 
Q 1406 3038 1543 3061 
Q 1681 3084 1819 3084 
Q 2600 3084 3056 2656 
Q 3513 2228 3513 1497 
Q 3513 744 3044 326 
Q 2575 -91 1722 -91 
Q 1428 -91 1123 -41 
Q 819 9 494 109 
L 494 744 
Q 775 591 1075 516 
Q 1375 441 1709 441 
Q 2250 441 2565 725 
Q 2881 1009 2881 1497 
Q 2881 1984 2565 2268 
Q 2250 2553 1709 2553 
Q 1456 2553 1204 2497 
Q 953 2441 691 2322 
L 691 4666 
z
" transform="scale(0.015625)"/>
       </defs>
       <use xlink:href="#DejaVuSans-35"/>
       <use xlink:href="#DejaVuSans-2e" x="63.623047"/>
       <use xlink:href="#DejaVuSans-30" x="95.410156"/>
      </g>
     </g>
    </g>
    <g id="xtick_6">
     <g id="text_6">
      <!-- 6.0 -->
      <g transform="translate(367.823087 366.30265)scale(0.08 -0.08)">
       <defs>
        <path id="DejaVuSans-36" d="M 2113 2584 
Q 1688 2584 1439 2293 
Q 1191 2003 1191 1497 
Q 1191 994 1439 701 
Q 1688 409 2113 409 
Q 2538 409 2786 701 
Q 3034 994 3034 1497 
Q 3034 2003 2786 2293 
Q 2538 2584 2113 2584 
z
M 3366 4563 
L 3366 3988 
Q 3128 4100 2886 4159 
Q 2644 4219 2406 4219 
Q 1781 4219 1451 3797 
Q 1122 3375 1075 2522 
Q 1259 2794 1537 2939 
Q 1816 3084 2150 3084 
Q 2853 3084 3261 2657 
Q 3669 2231 3669 1497 
Q 3669 778 3244 343 
Q 2819 -91 2113 -91 
Q 1303 -91 875 529 
Q 447 1150 447 2328 
Q 447 3434 972 4092 
Q 1497 4750 2381 4750 
Q 2619 4750 2861 4703 
Q 3103 4656 3366 4563 
z
" transform="scale(0.015625)"/>
       </defs>
       <use xlink:href="#DejaVuSans-36"/>
       <use xlink:href="#DejaVuSans-2e" x="63.623047"/>
       <use xlink:href="#DejaVuSans-30" x="95.410156"/>
      </g>
     </g>
    </g>
    <g id="xtick_7">
     <g id="text_7">
      <!-- 7.0 -->
      <g transform="translate(425.394602 366.30265)scale(0.08 -0.08)">
       <defs>
        <path id="DejaVuSans-37" d="M 525 4666 
L 3525 4666 
L 3525 4397 
L 1831 0 
L 1172 0 
L 2766 4134 
L 525 4134 
L 525 4666 
z
" transform="scale(0.015625)"/>
       </defs>
       <use xlink:href="#DejaVuSans-37"/>
       <use xlink:href="#DejaVuSans-2e" x="63.623047"/>
       <use xlink:href="#DejaVuSans-30" x="95.410156"/>
      </g>
     </g>
    </g>
    <g id="xtick_8">
     <g id="text_8">
      <!-- 8.0 -->
      <g transform="translate(482.966117 366.30265)scale(0.08 -0.08)">
       <defs>
        <path id="DejaVuSans-38" d="M 2034 2216 
Q 1584 2216 1326 1975 
Q 1069 1734 1069 1313 
Q 1069 891 1326 650 
Q 1584 409 2034 409 
Q 2484 409 2743 651 
Q 3003 894 3003 1313 
Q 3003 1734 2745 1975 
Q 2488 2216 2034 2216 
z
M 1403 2484 
Q 997 2584 770 2862 
Q 544 3141 544 3541 
Q 544 4100 942 4425 
Q 1341 4750 2034 4750 
Q 2731 4750 3128 4425 
Q 3525 4100 3525 3541 
Q 3525 3141 3298 2862 
Q 3072 2584 2669 2484 
Q 3125 2378 3379 2068 
Q 3634 1759 3634 1313 
Q 3634 634 3220 271 
Q 2806 -91 2034 -91 
Q 1263 -91 848 271 
Q 434 634 434 1313 
Q 434 1759 690 2068 
Q 947 2378 1403 2484 
z
M 1172 3481 
Q 1172 3119 1398 2916 
Q 1625 2713 2034 2713 
Q 2441 2713 2670 2916 
Q 2900 3119 2900 3481 
Q 2900 3844 2670 4047 
Q 2441 4250 2034 4250 
Q 1625 4250 1398 4047 
Q 1172 3844 1172 3481 
z
" transform="scale(0.015625)"/>
       </defs>
       <use xlink:href="#DejaVuSans-38"/>
       <use xlink:href="#DejaVuSans-2e" x="63.623047"/>
       <use xlink:href="#DejaVuSans-30" x="95.410156"/>
      </g>
     </g>
    </g>
    <g id="xtick_9">
     <g id="text_9">
      <!-- 9.0 -->
      <g transform="translate(540.537633 366.30265)scale(0.08 -0.08)">
       <defs>
        <path id="DejaVuSans-39" d="M 703 97 
L 703 672 
Q 941 559 1184 500 
Q 1428 441 1663 441 
Q 2288 441 2617 861 
Q 2947 1281 2994 2138 
Q 2813 1869 2534 1725 
Q 2256 1581 1919 1581 
Q 1219 1581 811 2004 
Q 403 2428 403 3163 
Q 403 3881 828 4315 
Q 1253 4750 1959 4750 
Q 2769 4750 3195 4129 
Q 3622 3509 3622 2328 
Q 3622 1225 3098 567 
Q 2575 -91 1691 -91 
Q 1453 -91 1209 -44 
Q 966 3 703 97 
z
M 1959 2075 
Q 2384 2075 2632 2365 
Q 2881 2656 2881 3163 
Q 2881 3666 2632 3958 
Q 2384 4250 1959 4250 
Q 1534 4250 1286 3958 
Q 1038 3666 1038 3163 
Q 1038 2656 1286 2365 
Q 1534 2075 1959 2075 
z
" transform="scale(0.015625)"/>
       </defs>
       <use xlink:href="#DejaVuSans-39"/>
       <use xlink:href="#DejaVuSans-2e" x="63.623047"/>
       <use xlink:href="#DejaVuSans-30" x="95.410156"/>
      </g>
     </g>
    </g>
    <g id="xtick_10">
     <g id="text_10">
      <!-- &gt;10 -->
      <g transform="translate(596.028523 366.30265)scale(0.08 -0.08)">
       <defs>
        <path id="DejaVuSans-3e" d="M 678 3150 
L 678 3719 
L 4684 2266 
L 4684 1747 
L 678 294 
L 678 863 
L 3897 2003 
L 678 3150 
z
" transform="scale(0.015625)"/>
       </defs>
       <use xlink:href="#DejaVuSans-3e"/>
       <use xlink:href="#DejaVuSans-31" x="83.789062"/>
       <use xlink:href="#DejaVuSans-30" x="147.412109"/>
      </g>
     </g>
    </g>
    <g id="xtick_11">
     <g id="text_11">
      <!-- &gt;50 -->
      <g transform="translate(653.600038 366.30265)scale(0.08 -0.08)">
       <use xlink:href="#DejaVuSans-3e"/>
       <use xlink:href="#DejaVuSans-35" x="83.789062"/>
       <use xlink:href="#DejaVuSans-30" x="147.412109"/>
      </g>
     </g>
    </g>
    <g id="xtick_12">
     <g id="text_12">
      <!-- &gt;100 -->
      <g transform="translate(708.626553 366.30265)scale(0.08 -0.08)">
       <use xlink:href="#DejaVuSans-3e"/>
       <use xlink:href="#DejaVuSans-31" x="83.789062"/>
       <use xlink:href="#DejaVuSans-30" x="147.412109"/>
       <use xlink:href="#DejaVuSans-30" x="211.035156"/>
      </g>
     </g>
    </g>
    <g id="xtick_13">
     <g id="text_13">
      <!-- &gt;500 -->
      <g transform="translate(766.198068 366.30265)scale(0.08 -0.08)">
       <use xlink:href="#DejaVuSans-3e"/>
       <use xlink:href="#DejaVuSans-35" x="83.789062"/>
       <use xlink:href="#DejaVuSans-30" x="147.412109"/>
       <use xlink:href="#DejaVuSans-30" x="211.035156"/>
      </g>
     </g>
    </g>
    <g id="xtick_14">
     <g id="text_14">
      <!-- &gt;1k -->
      <g transform="translate(826.543333 366.30265)scale(0.08 -0.08)">
       <defs>
        <path id="DejaVuSans-6b" d="M 581 4863 
L 1159 4863 
L 1159 1991 
L 2875 3500 
L 3609 3500 
L 1753 1863 
L 3688 0 
L 2938 0 
L 1159 1709 
L 1159 0 
L 581 0 
L 581 4863 
z
" transform="scale(0.015625)"/>
       </defs>
       <use xlink:href="#DejaVuSans-3e"/>
       <use xlink:href="#DejaVuSans-31" x="83.789062"/>
       <use xlink:href="#DejaVuSans-6b" x="147.412109"/>
      </g>
     </g>
    </g>
    <g id="xtick_15">
     <g id="text_15">
      <!-- &gt;5k -->
      <g transform="translate(884.114848 366.30265)scale(0.08 -0.08)">
       <use xlink:href="#DejaVuSans-3e"/>
       <use xlink:href="#DejaVuSans-35" x="83.789062"/>
       <use xlink:href="#DejaVuSans-6b" x="147.412109"/>
      </g>
     </g>
    </g>
    <g id="xtick_16">
     <g id="text_16">
      <!-- &gt;10k+ -->
      <g transform="translate(935.789489 366.30265)scale(0.08 -0.08)">
       <defs>
        <path id="DejaVuSans-2b" d="M 2944 4013 
L 2944 2272 
L 4684 2272 
L 4684 1741 
L 2944 1741 
L 2944 0 
L 2419 0 
L 2419 1741 
L 678 1741 
L 678 2272 
L 2419 2272 
L 2419 4013 
L 2944 4013 
z
" transform="scale(0.015625)"/>
       </defs>
       <use xlink:href="#DejaVuSans-3e"/>
       <use xlink:href="#DejaVuSans-31" x="83.789062"/>
       <use xlink:href="#DejaVuSans-30" x="147.412109"/>
       <use xlink:href="#DejaVuSans-6b" x="211.035156"/>
       <use xlink:href="#DejaVuSans-2b" x="268.945312"/>
      </g>
     </g>
    </g>
    <g id="text_17">
     <!-- Sequence Duplication Level -->
     <g transform="translate(448.708437 379.564837)scale(0.1 -0.1)">
      <defs>
       <path id="DejaVuSans-53" d="M 3425 4513 
L 3425 3897 
Q 3066 4069 2747 4153 
Q 2428 4238 2131 4238 
Q 1616 4238 1336 4038 
Q 1056 3838 1056 3469 
Q 1056 3159 1242 3001 
Q 1428 2844 1947 2747 
L 2328 2669 
Q 3034 2534 3370 2195 
Q 3706 1856 3706 1288 
Q 3706 609 3251 259 
Q 2797 -91 1919 -91 
Q 1588 -91 1214 -16 
Q 841 59 441 206 
L 441 856 
Q 825 641 1194 531 
Q 1563 422 1919 422 
Q 2459 422 2753 634 
Q 3047 847 3047 1241 
Q 3047 1584 2836 1778 
Q 2625 1972 2144 2069 
L 1759 2144 
Q 1053 2284 737 2584 
Q 422 2884 422 3419 
Q 422 4038 858 4394 
Q 1294 4750 2059 4750 
Q 2388 4750 2728 4690 
Q 3069 4631 3425 4513 
z
" transform="scale(0.015625)"/>
       <path id="DejaVuSans-65" d="M 3597 1894 
L 3597 1613 
L 953 1613 
Q 991 1019 1311 708 
Q 1631 397 2203 397 
Q 2534 397 2845 478 
Q 3156 559 3463 722 
L 3463 178 
Q 3153 47 2828 -22 
Q 2503 -91 2169 -91 
Q 1331 -91 842 396 
Q 353 884 353 1716 
Q 353 2575 817 3079 
Q 1281 3584 2069 3584 
Q 2775 3584 3186 3129 
Q 3597 2675 3597 1894 
z
M 3022 2063 
Q 3016 2534 2758 2815 
Q 2500 3097 2075 3097 
Q 1594 3097 1305 2825 
Q 1016 2553 972 2059 
L 3022 2063 
z
" transform="scale(0.015625)"/>
       <path id="DejaVuSans-71" d="M 947 1747 
Q 947 1113 1208 752 
Q 1469 391 1925 391 
Q 2381 391 2643 752 
Q 2906 1113 2906 1747 
Q 2906 2381 2643 2742 
Q 2381 3103 1925 3103 
Q 1469 3103 1208 2742 
Q 947 2381 947 1747 
z
M 2906 525 
Q 2725 213 2448 61 
Q 2172 -91 1784 -91 
Q 1150 -91 751 415 
Q 353 922 353 1747 
Q 353 2572 751 3078 
Q 1150 3584 1784 3584 
Q 2172 3584 2448 3432 
Q 2725 3281 2906 2969 
L 2906 3500 
L 3481 3500 
L 3481 -1331 
L 2906 -1331 
L 2906 525 
z
" transform="scale(0.015625)"/>
       <path id="DejaVuSans-75" d="M 544 1381 
L 544 3500 
L 1119 3500 
L 1119 1403 
Q 1119 906 1312 657 
Q 1506 409 1894 409 
Q 2359 409 2629 706 
Q 2900 1003 2900 1516 
L 2900 3500 
L 3475 3500 
L 3475 0 
L 2900 0 
L 2900 538 
Q 2691 219 2414 64 
Q 2138 -91 1772 -91 
Q 1169 -91 856 284 
Q 544 659 544 1381 
z
M 1991 3584 
L 1991 3584 
z
" transform="scale(0.015625)"/>
       <path id="DejaVuSans-6e" d="M 3513 2113 
L 3513 0 
L 2938 0 
L 2938 2094 
Q 2938 2591 2744 2837 
Q 2550 3084 2163 3084 
Q 1697 3084 1428 2787 
Q 1159 2491 1159 1978 
L 1159 0 
L 581 0 
L 581 3500 
L 1159 3500 
L 1159 2956 
Q 1366 3272 1645 3428 
Q 1925 3584 2291 3584 
Q 2894 3584 3203 3211 
Q 3513 2838 3513 2113 
z
" transform="scale(0.015625)"/>
       <path id="DejaVuSans-63" d="M 3122 3366 
L 3122 2828 
Q 2878 2963 2633 3030 
Q 2388 3097 2138 3097 
Q 1578 3097 1268 2742 
Q 959 2388 959 1747 
Q 959 1106 1268 751 
Q 1578 397 2138 397 
Q 2388 397 2633 464 
Q 2878 531 3122 666 
L 3122 134 
Q 2881 22 2623 -34 
Q 2366 -91 2075 -91 
Q 1284 -91 818 406 
Q 353 903 353 1747 
Q 353 2603 823 3093 
Q 1294 3584 2113 3584 
Q 2378 3584 2631 3529 
Q 2884 3475 3122 3366 
z
" transform="scale(0.015625)"/>
       <path id="DejaVuSans-20" transform="scale(0.015625)"/>
       <path id="DejaVuSans-44" d="M 1259 4147 
L 1259 519 
L 2022 519 
Q 2988 519 3436 956 
Q 3884 1394 3884 2338 
Q 3884 3275 3436 3711 
Q 2988 4147 2022 4147 
L 1259 4147 
z
M 628 4666 
L 1925 4666 
Q 3281 4666 3915 4102 
Q 4550 3538 4550 2338 
Q 4550 1131 3912 565 
Q 3275 0 1925 0 
L 628 0 
L 628 4666 
z
" transform="scale(0.015625)"/>
       <path id="DejaVuSans-70" d="M 1159 525 
L 1159 -1331 
L 581 -1331 
L 581 3500 
L 1159 3500 
L 1159 2969 
Q 1341 3281 1617 3432 
Q 1894 3584 2278 3584 
Q 2916 3584 3314 3078 
Q 3713 2572 3713 1747 
Q 3713 922 3314 415 
Q 2916 -91 2278 -91 
Q 1894 -91 1617 61 
Q 1341 213 1159 525 
z
M 3116 1747 
Q 3116 2381 2855 2742 
Q 2594 3103 2138 3103 
Q 1681 3103 1420 2742 
Q 1159 2381 1159 1747 
Q 1159 1113 1420 752 
Q 1681 391 2138 391 
Q 2594 391 2855 752 
Q 3116 1113 3116 1747 
z
" transform="scale(0.015625)"/>
       <path id="DejaVuSans-6c" d="M 603 4863 
L 1178 4863 
L 1178 0 
L 603 0 
L 603 4863 
z
" transform="scale(0.015625)"/>
       <path id="DejaVuSans-69" d="M 603 3500 
L 1178 3500 
L 1178 0 
L 603 0 
L 603 3500 
z
M 603 4863 
L 1178 4863 
L 1178 4134 
L 603 4134 
L 603 4863 
z
" transform="scale(0.015625)"/>
       <path id="DejaVuSans-61" d="M 2194 1759 
Q 1497 1759 1228 1600 
Q 959 1441 959 1056 
Q 959 750 1161 570 
Q 1363 391 1709 391 
Q 2188 391 2477 730 
Q 2766 1069 2766 1631 
L 2766 1759 
L 2194 1759 
z
M 3341 1997 
L 3341 0 
L 2766 0 
L 2766 531 
Q 2569 213 2275 61 
Q 1981 -91 1556 -91 
Q 1019 -91 701 211 
Q 384 513 384 1019 
Q 384 1609 779 1909 
Q 1175 2209 1959 2209 
L 2766 2209 
L 2766 2266 
Q 2766 2663 2505 2880 
Q 2244 3097 1772 3097 
Q 1472 3097 1187 3025 
Q 903 2953 641 2809 
L 641 3341 
Q 956 3463 1253 3523 
Q 1550 3584 1831 3584 
Q 2591 3584 2966 3190 
Q 3341 2797 3341 1997 
z
" transform="scale(0.015625)"/>
       <path id="DejaVuSans-74" d="M 1172 4494 
L 1172 3500 
L 2356 3500 
L 2356 3053 
L 1172 3053 
L 1172 1153 
Q 1172 725 1289 603 
Q 1406 481 1766 481 
L 2356 481 
L 2356 0 
L 1766 0 
Q 1100 0 847 248 
Q 594 497 594 1153 
L 594 3053 
L 172 3053 
L 172 3500 
L 594 3500 
L 594 4494 
L 1172 4494 
z
" transform="scale(0.015625)"/>
       <path id="DejaVuSans-6f" d="M 1959 3097 
Q 1497 3097 1228 2736 
Q 959 2375 959 1747 
Q 959 1119 1226 758 
Q 1494 397 1959 397 
Q 2419 397 2687 759 
Q 2956 1122 2956 1747 
Q 2956 2369 2687 2733 
Q 2419 3097 1959 3097 
z
M 1959 3584 
Q 2709 3584 3137 3096 
Q 3566 2609 3566 1747 
Q 3566 888 3137 398 
Q 2709 -91 1959 -91 
Q 1206 -91 779 398 
Q 353 888 353 1747 
Q 353 2609 779 3096 
Q 1206 3584 1959 3584 
z
" transform="scale(0.015625)"/>
       <path id="DejaVuSans-4c" d="M 628 4666 
L 1259 4666 
L 1259 531 
L 3531 531 
L 3531 0 
L 628 0 
L 628 4666 
z
" transform="scale(0.015625)"/>
       <path id="DejaVuSans-76" d="M 191 3500 
L 800 3500 
L 1894 563 
L 2988 3500 
L 3597 3500 
L 2284 0 
L 1503 0 
L 191 3500 
z
" transform="scale(0.015625)"/>
      </defs>
      <use xlink:href="#DejaVuSans-53"/>
      <use xlink:href="#DejaVuSans-65" x="63.476562"/>
      <use xlink:href="#DejaVuSans-71" x="125"/>
      <use xlink:href="#DejaVuSans-75" x="188.476562"/>
      <use xlink:href="#DejaVuSans-65" x="251.855469"/>
      <use xlink:href="#DejaVuSans-6e" x="313.378906"/>
      <use xlink:href="#DejaVuSans-63" x="376.757812"/>
      <use xlink:href="#DejaVuSans-65" x="431.738281"/>
      <use xlink:href="#DejaVuSans-20" x="493.261719"/>
      <use xlink:href="#DejaVuSans-44" x="525.048828"/>
      <use xlink:href="#DejaVuSans-75" x="602.050781"/>
      <use xlink:href="#DejaVuSans-70" x="665.429688"/>
      <use xlink:href="#DejaVuSans-6c" x="728.90625"/>
      <use xlink:href="#DejaVuSans-69" x="756.689453"/>
      <use xlink:href="#DejaVuSans-63" x="784.472656"/>
      <use xlink:href="#DejaVuSans-61" x="839.453125"/>
      <use xlink:href="#DejaVuSans-74" x="900.732422"/>
      <use xlink:href="#DejaVuSans-69" x="939.941406"/>
      <use xlink:href="#DejaVuSans-6f" x="967.724609"/>
      <use xlink:href="#DejaVuSans-6e" x="1028.90625"/>
      <use xlink:href="#DejaVuSans-20" x="1092.285156"/>
      <use xlink:href="#DejaVuSans-4c" x="1124.072266"/>
      <use xlink:href="#DejaVuSans-65" x="1178.035156"/>
      <use xlink:href="#DejaVuSans-76" x="1239.558594"/>
      <use xlink:href="#DejaVuSans-65" x="1298.738281"/>
      <use xlink:href="#DejaVuSans-6c" x="1360.261719"/>
     </g>
    </g>
   </g>
   <g id="matplotlib.axis_2">
    <g id="ytick_1">
     <g id="line2d_1">
      <path d="M 43.148125 353.2239 
L 993.078125 353.2239 
" clip-path="url(#p90691bec62)" style="fill: none; stroke: #dedede; stroke-linecap: square"/>
     </g>
     <g id="text_18">
      <!-- 0 -->
      <g transform="translate(31.058125 356.263275)scale(0.08 -0.08)">
       <use xlink:href="#DejaVuSans-30"/>
      </g>
     </g>
    </g>
    <g id="ytick_2">
     <g id="line2d_2">
      <path d="M 43.148125 289.6303 
L 993.078125 289.6303 
" clip-path="url(#p90691bec62)" style="fill: none; stroke: #dedede; stroke-linecap: square"/>
     </g>
     <g id="text_19">
      <!-- 20 -->
      <g transform="translate(25.968125 292.669675)scale(0.08 -0.08)">
       <use xlink:href="#DejaVuSans-32"/>
       <use xlink:href="#DejaVuSans-30" x="63.623047"/>
      </g>
     </g>
    </g>
    <g id="ytick_3">
     <g id="line2d_3">
      <path d="M 43.148125 226.0367 
L 993.078125 226.0367 
" clip-path="url(#p90691bec62)" style="fill: none; stroke: #dedede; stroke-linecap: square"/>
     </g>
     <g id="text_20">
      <!-- 40 -->
      <g transform="translate(25.968125 229.076075)scale(0.08 -0.08)">
       <use xlink:href="#DejaVuSans-34"/>
       <use xlink:href="#DejaVuSans-30" x="63.623047"/>
      </g>
     </g>
    </g>
    <g id="ytick_4">
     <g id="line2d_4">
      <path d="M 43.148125 162.4431 
L 993.078125 162.4431 
" clip-path="url(#p90691bec62)" style="fill: none; stroke: #dedede; stroke-linecap: square"/>
     </g>
     <g id="text_21">
      <!-- 60 -->
      <g transform="translate(25.968125 165.482475)scale(0.08 -0.08)">
       <use xlink:href="#DejaVuSans-36"/>
       <use xlink:href="#DejaVuSans-30" x="63.623047"/>
      </g>
     </g>
    </g>
    <g id="ytick_5">
     <g id="line2d_5">
      <path d="M 43.148125 98.8495 
L 993.078125 98.8495 
" clip-path="url(#p90691bec62)" style="fill: none; stroke: #dedede; stroke-linecap: square"/>
     </g>
     <g id="text_22">
      <!-- 80 -->
      <g transform="translate(25.968125 101.888875)scale(0.08 -0.08)">
       <use xlink:href="#DejaVuSans-38"/>
       <use xlink:href="#DejaVuSans-30" x="63.623047"/>
      </g>
     </g>
    </g>
    <g id="ytick_6">
     <g id="line2d_6">
      <path d="M 43.148125 35.2559 
L 993.078125 35.2559 
" clip-path="url(#p90691bec62)" style="fill: none; stroke: #dedede; stroke-linecap: square"/>
     </g>
     <g id="text_23">
      <!-- 100 -->
      <g transform="translate(20.878125 38.295275)scale(0.08 -0.08)">
       <use xlink:href="#DejaVuSans-31"/>
       <use xlink:href="#DejaVuSans-30" x="63.623047"/>
       <use xlink:href="#DejaVuSans-30" x="127.246094"/>
      </g>
     </g>
    </g>
    <g id="text_24">
     <!-- % of Library -->
     <g transform="translate(14.798437 224.471931)rotate(-90)scale(0.1 -0.1)">
      <defs>
       <path id="DejaVuSans-25" d="M 4653 2053 
Q 4381 2053 4226 1822 
Q 4072 1591 4072 1178 
Q 4072 772 4226 539 
Q 4381 306 4653 306 
Q 4919 306 5073 539 
Q 5228 772 5228 1178 
Q 5228 1588 5073 1820 
Q 4919 2053 4653 2053 
z
M 4653 2450 
Q 5147 2450 5437 2106 
Q 5728 1763 5728 1178 
Q 5728 594 5436 251 
Q 5144 -91 4653 -91 
Q 4153 -91 3862 251 
Q 3572 594 3572 1178 
Q 3572 1766 3864 2108 
Q 4156 2450 4653 2450 
z
M 1428 4353 
Q 1159 4353 1004 4120 
Q 850 3888 850 3481 
Q 850 3069 1003 2837 
Q 1156 2606 1428 2606 
Q 1700 2606 1854 2837 
Q 2009 3069 2009 3481 
Q 2009 3884 1853 4118 
Q 1697 4353 1428 4353 
z
M 4250 4750 
L 4750 4750 
L 1831 -91 
L 1331 -91 
L 4250 4750 
z
M 1428 4750 
Q 1922 4750 2215 4408 
Q 2509 4066 2509 3481 
Q 2509 2891 2217 2550 
Q 1925 2209 1428 2209 
Q 931 2209 642 2551 
Q 353 2894 353 3481 
Q 353 4063 643 4406 
Q 934 4750 1428 4750 
z
" transform="scale(0.015625)"/>
       <path id="DejaVuSans-66" d="M 2375 4863 
L 2375 4384 
L 1825 4384 
Q 1516 4384 1395 4259 
Q 1275 4134 1275 3809 
L 1275 3500 
L 2222 3500 
L 2222 3053 
L 1275 3053 
L 1275 0 
L 697 0 
L 697 3053 
L 147 3053 
L 147 3500 
L 697 3500 
L 697 3744 
Q 697 4328 969 4595 
Q 1241 4863 1831 4863 
L 2375 4863 
z
" transform="scale(0.015625)"/>
       <path id="DejaVuSans-62" d="M 3116 1747 
Q 3116 2381 2855 2742 
Q 2594 3103 2138 3103 
Q 1681 3103 1420 2742 
Q 1159 2381 1159 1747 
Q 1159 1113 1420 752 
Q 1681 391 2138 391 
Q 2594 391 2855 752 
Q 3116 1113 3116 1747 
z
M 1159 2969 
Q 1341 3281 1617 3432 
Q 1894 3584 2278 3584 
Q 2916 3584 3314 3078 
Q 3713 2572 3713 1747 
Q 3713 922 3314 415 
Q 2916 -91 2278 -91 
Q 1894 -91 1617 61 
Q 1341 213 1159 525 
L 1159 0 
L 581 0 
L 581 4863 
L 1159 4863 
L 1159 2969 
z
" transform="scale(0.015625)"/>
       <path id="DejaVuSans-72" d="M 2631 2963 
Q 2534 3019 2420 3045 
Q 2306 3072 2169 3072 
Q 1681 3072 1420 2755 
Q 1159 2438 1159 1844 
L 1159 0 
L 581 0 
L 581 3500 
L 1159 3500 
L 1159 2956 
Q 1341 3275 1631 3429 
Q 1922 3584 2338 3584 
Q 2397 3584 2469 3576 
Q 2541 3569 2628 3553 
L 2631 2963 
z
" transform="scale(0.015625)"/>
       <path id="DejaVuSans-79" d="M 2059 -325 
Q 1816 -950 1584 -1140 
Q 1353 -1331 966 -1331 
L 506 -1331 
L 506 -850 
L 844 -850 
Q 1081 -850 1212 -737 
Q 1344 -625 1503 -206 
L 1606 56 
L 191 3500 
L 800 3500 
L 1894 763 
L 2988 3500 
L 3597 3500 
L 2059 -325 
z
" transform="scale(0.015625)"/>
      </defs>
      <use xlink:href="#DejaVuSans-25"/>
      <use xlink:href="#DejaVuSans-20" x="95.019531"/>
      <use xlink:href="#DejaVuSans-6f" x="126.806641"/>
      <use xlink:href="#DejaVuSans-66" x="187.988281"/>
      <use xlink:href="#DejaVuSans-20" x="223.193359"/>
      <use xlink:href="#DejaVuSans-4c" x="254.980469"/>
      <use xlink:href="#DejaVuSans-69" x="310.693359"/>
      <use xlink:href="#DejaVuSans-62" x="338.476562"/>
      <use xlink:href="#DejaVuSans-72" x="401.953125"/>
      <use xlink:href="#DejaVuSans-61" x="443.066406"/>
      <use xlink:href="#DejaVuSans-72" x="504.345703"/>
      <use xlink:href="#DejaVuSans-79" x="545.458984"/>
     </g>
    </g>
   </g>
   <g id="line2d_7">
    <path d="M 86.326761 149.601586 
L 143.898277 282.074715 
L 201.469792 327.489315 
L 259.041307 344.022013 
L 316.612822 349.712329 
L 374.184337 351.747246 
L 431.755852 352.455874 
L 489.327367 352.813788 
L 546.898883 352.9801 
L 604.470398 351.621708 
L 662.041913 353.082181 
L 719.613428 353.117946 
L 777.184943 353.2239 
L 834.756458 353.2239 
L 892.327973 353.2239 
L 949.899489 353.2239 
" clip-path="url(#p90691bec62)" style="fill: none; stroke: #5cb85c; stroke-linecap: square"/>
   </g>
   <g id="line2d_8">
    <path d="M 86.326761 160.088552 
L 143.898277 276.461723 
L 201.469792 324.950582 
L 259.041307 343.04722 
L 316.612822 349.160384 
L 374.184337 351.450133 
L 431.755852 352.363133 
L 489.327367 352.69848 
L 546.898883 352.877469 
L 604.470398 351.477368 
L 662.041913 353.009842 
L 719.613428 353.133913 
L 777.184943 353.2239 
L 834.756458 353.2239 
L 892.327973 353.2239 
L 949.899489 353.2239 
" clip-path="url(#p90691bec62)" style="fill: none; stroke: #5cb85c; stroke-linecap: square"/>
   </g>
   <g id="line2d_9">
    <path d="M 86.326761 158.605613 
L 143.898277 279.26308 
L 201.469792 324.66601 
L 259.041307 342.61074 
L 316.612822 348.96131 
L 374.184337 351.265984 
L 431.755852 352.149566 
L 489.327367 352.730968 
L 546.898883 352.890654 
L 604.470398 351.410336 
L 662.041913 353.053122 
L 719.613428 353.111416 
L 777.184943 353.2239 
L 834.756458 353.2239 
L 892.327973 353.2239 
L 949.899489 353.2239 
" clip-path="url(#p90691bec62)" style="fill: none; stroke: #5cb85c; stroke-linecap: square"/>
   </g>
   <g id="line2d_10">
    <path d="M 86.326761 168.889529 
L 143.898277 274.133478 
L 201.469792 321.809482 
L 259.041307 341.410048 
L 316.612822 348.454332 
L 374.184337 350.972277 
L 431.755852 352.1816 
L 489.327367 352.657378 
L 546.898883 352.77532 
L 604.470398 351.321067 
L 662.041913 353.011598 
L 719.613428 353.107939 
L 777.184943 353.218652 
L 834.756458 353.2239 
L 892.327973 353.2239 
L 949.899489 353.2239 
" clip-path="url(#p90691bec62)" style="fill: none; stroke: #5cb85c; stroke-linecap: square"/>
   </g>
   <g id="line2d_11">
    <path d="M 86.326761 150.427709 
L 143.898277 282.542473 
L 201.469792 327.057135 
L 259.041307 343.892432 
L 316.612822 349.34454 
L 374.184337 351.72293 
L 431.755852 352.411902 
L 489.327367 352.785481 
L 546.898883 352.961218 
L 604.470398 351.477507 
L 662.041913 352.999055 
L 719.613428 353.096417 
L 777.184943 353.2239 
L 834.756458 353.2239 
L 892.327973 353.2239 
L 949.899489 353.2239 
" clip-path="url(#p90691bec62)" style="fill: none; stroke: #5cb85c; stroke-linecap: square"/>
   </g>
   <g id="line2d_12">
    <path d="M 86.326761 167.266892 
L 143.898277 273.628953 
L 201.469792 322.199679 
L 259.041307 341.901999 
L 316.612822 349.159999 
L 374.184337 351.304801 
L 431.755852 352.344868 
L 489.327367 352.753531 
L 546.898883 352.884372 
L 604.470398 351.239265 
L 662.041913 352.971389 
L 719.613428 353.063053 
L 777.184943 353.2239 
L 834.756458 353.2239 
L 892.327973 353.2239 
L 949.899489 353.2239 
" clip-path="url(#p90691bec62)" style="fill: none; stroke: #5cb85c; stroke-linecap: square"/>
   </g>
   <g id="line2d_13">
    <path d="M 86.326761 164.790076 
L 143.898277 279.232442 
L 201.469792 322.864494 
L 259.041307 340.444752 
L 316.612822 347.936442 
L 374.184337 350.804294 
L 431.755852 352.054483 
L 489.327367 352.510709 
L 546.898883 352.817347 
L 604.470398 351.162718 
L 662.041913 352.990448 
L 719.613428 353.110596 
L 777.184943 353.2239 
L 834.756458 353.2239 
L 892.327973 353.2239 
L 949.899489 353.2239 
" clip-path="url(#p90691bec62)" style="fill: none; stroke: #5cb85c; stroke-linecap: square"/>
   </g>
   <g id="line2d_14">
    <path d="M 86.326761 177.996979 
L 143.898277 272.528152 
L 201.469792 319.204362 
L 259.041307 339.2227 
L 316.612822 347.22585 
L 374.184337 350.507676 
L 431.755852 351.910816 
L 489.327367 352.481987 
L 546.898883 352.775766 
L 604.470398 350.784157 
L 662.041913 352.982574 
L 719.613428 353.097782 
L 777.184943 353.2239 
L 834.756458 353.2239 
L 892.327973 353.2239 
L 949.899489 353.2239 
" clip-path="url(#p90691bec62)" style="fill: none; stroke: #5cb85c; stroke-linecap: square"/>
   </g>
   <g id="line2d_15">
    <path d="M 86.326761 149.76317 
L 143.898277 280.8608 
L 201.469792 328.024945 
L 259.041307 344.211745 
L 316.612822 349.781706 
L 374.184337 351.893845 
L 431.755852 352.59323 
L 489.327367 352.858474 
L 546.898883 352.944663 
L 604.470398 351.611814 
L 662.041913 353.064334 
L 719.613428 353.110075 
L 777.184943 353.2239 
L 834.756458 353.2239 
L 892.327973 353.2239 
L 949.899489 353.2239 
" clip-path="url(#p90691bec62)" style="fill: none; stroke: #5cb85c; stroke-linecap: square"/>
   </g>
   <g id="line2d_16">
    <path d="M 86.326761 156.731952 
L 143.898277 276.372284 
L 201.469792 326.372732 
L 259.041307 343.851573 
L 316.612822 349.57739 
L 374.184337 351.785144 
L 431.755852 352.429957 
L 489.327367 352.813592 
L 546.898883 352.935028 
L 604.470398 351.631432 
L 662.041913 353.088534 
L 719.613428 353.129181 
L 777.184943 353.2239 
L 834.756458 353.2239 
L 892.327973 353.2239 
L 949.899489 353.2239 
" clip-path="url(#p90691bec62)" style="fill: none; stroke: #5cb85c; stroke-linecap: square"/>
   </g>
   <g id="line2d_17">
    <path d="M 86.326761 142.453203 
L 143.898277 284.642528 
L 201.469792 329.422941 
L 259.041307 345.407899 
L 316.612822 350.273677 
L 374.184337 352.104997 
L 431.755852 352.663751 
L 489.327367 352.842524 
L 546.898883 352.919061 
L 604.470398 351.811906 
L 662.041913 353.082544 
L 719.613428 353.093771 
L 777.184943 353.2239 
L 834.756458 353.2239 
L 892.327973 353.2239 
L 949.899489 353.2239 
" clip-path="url(#p90691bec62)" style="fill: none; stroke: #5cb85c; stroke-linecap: square"/>
   </g>
   <g id="line2d_18">
    <path d="M 86.326761 158.3601 
L 143.898277 275.336339 
L 201.469792 325.563293 
L 259.041307 343.811447 
L 316.612822 349.78877 
L 374.184337 351.894155 
L 431.755852 352.526189 
L 489.327367 352.839358 
L 546.898883 352.935132 
L 604.470398 351.520358 
L 662.041913 353.06513 
L 719.613428 353.078528 
L 777.184943 353.2239 
L 834.756458 353.2239 
L 892.327973 353.2239 
L 949.899489 353.2239 
" clip-path="url(#p90691bec62)" style="fill: none; stroke: #5cb85c; stroke-linecap: square"/>
   </g>
   <g id="line2d_19">
    <path d="M 86.326761 151.602199 
L 143.898277 281.289055 
L 201.469792 326.673727 
L 259.041307 343.575975 
L 316.612822 349.943834 
L 374.184337 351.729031 
L 431.755852 352.498044 
L 489.327367 352.762949 
L 546.898883 352.925882 
L 604.470398 351.602794 
L 662.041913 353.079944 
L 719.613428 353.035366 
L 777.184943 353.2239 
L 834.756458 353.2239 
L 892.327973 353.2239 
L 949.899489 353.2239 
" clip-path="url(#p90691bec62)" style="fill: none; stroke: #5cb85c; stroke-linecap: square"/>
   </g>
   <g id="line2d_20">
    <path d="M 86.326761 162.457724 
L 143.898277 274.538631 
L 201.469792 324.360702 
L 259.041307 342.916748 
L 316.612822 349.309069 
L 374.184337 351.598142 
L 431.755852 352.398951 
L 489.327367 352.727755 
L 546.898883 352.855395 
L 604.470398 351.434249 
L 662.041913 353.039102 
L 719.613428 353.082331 
L 777.184943 353.2239 
L 834.756458 353.2239 
L 892.327973 353.2239 
L 949.899489 353.2239 
" clip-path="url(#p90691bec62)" style="fill: none; stroke: #5cb85c; stroke-linecap: square"/>
   </g>
   <g id="line2d_21">
    <path d="M 86.326761 167.179051 
L 143.898277 278.770351 
L 201.469792 322.13531 
L 259.041307 340.034143 
L 316.612822 347.751288 
L 374.184337 350.708284 
L 431.755852 352.006359 
L 489.327367 352.536139 
L 546.898883 352.772399 
L 604.470398 351.033159 
L 662.041913 352.832479 
L 719.613428 352.970251 
L 777.184943 353.213488 
L 834.756458 353.2239 
L 892.327973 353.2239 
L 949.899489 353.2239 
" clip-path="url(#p90691bec62)" style="fill: none; stroke: #5cb85c; stroke-linecap: square"/>
   </g>
   <g id="line2d_22">
    <path d="M 86.326761 181.158797 
L 143.898277 271.7846 
L 201.469792 318.031608 
L 259.041307 338.876513 
L 316.612822 347.104738 
L 374.184337 350.300051 
L 431.755852 351.715753 
L 489.327367 352.478654 
L 546.898883 352.737236 
L 604.470398 350.845463 
L 662.041913 352.831757 
L 719.613428 352.865522 
L 777.184943 353.212008 
L 834.756458 353.2239 
L 892.327973 353.2239 
L 949.899489 353.2239 
" clip-path="url(#p90691bec62)" style="fill: none; stroke: #5cb85c; stroke-linecap: square"/>
   </g>
   <g id="line2d_23">
    <path d="M 86.326761 159.452734 
L 143.898277 280.122097 
L 201.469792 324.319646 
L 259.041307 342.139748 
L 316.612822 348.478523 
L 374.184337 351.413933 
L 431.755852 352.268515 
L 489.327367 352.657791 
L 546.898883 352.794907 
L 604.470398 351.148078 
L 662.041913 352.911693 
L 719.613428 353.011135 
L 777.184943 353.2239 
L 834.756458 353.2239 
L 892.327973 353.2239 
L 949.899489 353.2239 
" clip-path="url(#p90691bec62)" style="fill: none; stroke: #5cb85c; stroke-linecap: square"/>
   </g>
   <g id="line2d_24">
    <path d="M 86.326761 172.740192 
L 143.898277 273.09914 
L 201.469792 320.789592 
L 259.041307 340.563798 
L 316.612822 348.191934 
L 374.184337 350.916142 
L 431.755852 352.112034 
L 489.327367 352.600268 
L 546.898883 352.852559 
L 604.470398 350.967005 
L 662.041913 352.863419 
L 719.613428 353.033649 
L 777.184943 353.212968 
L 834.756458 353.2239 
L 892.327973 353.2239 
L 949.899489 353.2239 
" clip-path="url(#p90691bec62)" style="fill: none; stroke: #5cb85c; stroke-linecap: square"/>
   </g>
   <g id="line2d_25">
    <path d="M 86.326761 157.999472 
L 143.898277 278.522285 
L 201.469792 324.712042 
L 259.041307 343.083445 
L 316.612822 349.226717 
L 374.184337 351.51545 
L 431.755852 352.450313 
L 489.327367 352.753512 
L 546.898883 352.942018 
L 604.470398 351.371172 
L 662.041913 353.040186 
L 719.613428 353.102188 
L 777.184943 353.2239 
L 834.756458 353.2239 
L 892.327973 353.2239 
L 949.899489 353.2239 
" clip-path="url(#p90691bec62)" style="fill: none; stroke: #5cb85c; stroke-linecap: square"/>
   </g>
   <g id="line2d_26">
    <path d="M 86.326761 170.295714 
L 143.898277 271.720428 
L 201.469792 322.034035 
L 259.041307 341.45587 
L 316.612822 348.589022 
L 374.184337 351.323969 
L 431.755852 352.412 
L 489.327367 352.689541 
L 546.898883 352.91961 
L 604.470398 351.210337 
L 662.041913 352.948397 
L 719.613428 353.119876 
L 777.184943 353.2239 
L 834.756458 353.2239 
L 892.327973 353.2239 
L 949.899489 353.2239 
" clip-path="url(#p90691bec62)" style="fill: none; stroke: #5cb85c; stroke-linecap: square"/>
   </g>
   <g id="line2d_27">
    <path d="M 86.326761 157.43426 
L 143.898277 280.117264 
L 201.469792 324.780772 
L 259.041307 342.628426 
L 316.612822 349.054725 
L 374.184337 351.442119 
L 431.755852 352.242595 
L 489.327367 352.753542 
L 546.898883 352.88118 
L 604.470398 351.358561 
L 662.041913 352.975511 
L 719.613428 353.049844 
L 777.184943 353.2239 
L 834.756458 353.2239 
L 892.327973 353.2239 
L 949.899489 353.2239 
" clip-path="url(#p90691bec62)" style="fill: none; stroke: #5cb85c; stroke-linecap: square"/>
   </g>
   <g id="line2d_28">
    <path d="M 86.326761 169.747891 
L 143.898277 273.159517 
L 201.469792 321.555294 
L 259.041307 341.523501 
L 316.612822 348.42982 
L 374.184337 351.340049 
L 431.755852 352.261825 
L 489.327367 352.702372 
L 546.898883 352.823542 
L 604.470398 351.167425 
L 662.041913 352.961642 
L 719.613428 353.051747 
L 777.184943 353.218074 
L 834.756458 353.2239 
L 892.327973 353.2239 
L 949.899489 353.2239 
" clip-path="url(#p90691bec62)" style="fill: none; stroke: #5cb85c; stroke-linecap: square"/>
   </g>
   <g id="line2d_29">
    <path d="M 86.326761 159.904776 
L 143.898277 280.037421 
L 201.469792 324.15859 
L 259.041307 342.006738 
L 316.612822 348.667131 
L 374.184337 351.190738 
L 431.755852 352.297416 
L 489.327367 352.689872 
L 546.898883 352.814201 
L 604.470398 351.0289 
L 662.041913 352.93309 
L 719.613428 352.995013 
L 777.184943 353.218815 
L 834.756458 353.2239 
L 892.327973 353.2239 
L 949.899489 353.2239 
" clip-path="url(#p90691bec62)" style="fill: none; stroke: #5cb85c; stroke-linecap: square"/>
   </g>
   <g id="line2d_30">
    <path d="M 86.326761 172.757469 
L 143.898277 273.078372 
L 201.469792 320.727466 
L 259.041307 340.736769 
L 316.612822 348.109555 
L 374.184337 350.970703 
L 431.755852 352.073879 
L 489.327367 352.55562 
L 546.898883 352.843038 
L 604.470398 351.025104 
L 662.041913 352.858327 
L 719.613428 352.988274 
L 777.184943 353.218124 
L 834.756458 353.2239 
L 892.327973 353.2239 
L 949.899489 353.2239 
" clip-path="url(#p90691bec62)" style="fill: none; stroke: #5cb85c; stroke-linecap: square"/>
   </g>
   <g id="line2d_31">
    <path d="M 86.326761 115.118988 
L 143.898277 294.927815 
L 201.469792 339.030682 
L 259.041307 349.618993 
L 316.612822 351.965435 
L 374.184337 352.649566 
L 431.755852 352.928125 
L 489.327367 353.011292 
L 546.898883 353.065741 
L 604.470398 352.128179 
L 662.041913 353.096459 
L 719.613428 353.177525 
L 777.184943 353.2239 
L 834.756458 353.2239 
L 892.327973 353.2239 
L 949.899489 353.2239 
" clip-path="url(#p90691bec62)" style="fill: none; stroke: #5cb85c; stroke-linecap: square"/>
   </g>
   <g id="line2d_32">
    <path d="M 86.326761 124.368439 
L 143.898277 288.325876 
L 201.469792 337.386304 
L 259.041307 348.887492 
L 316.612822 351.895082 
L 374.184337 352.646394 
L 431.755852 352.892779 
L 489.327367 352.991975 
L 546.898883 353.043154 
L 604.470398 352.039094 
L 662.041913 353.064408 
L 719.613428 353.177803 
L 777.184943 353.2239 
L 834.756458 353.2239 
L 892.327973 353.2239 
L 949.899489 353.2239 
" clip-path="url(#p90691bec62)" style="fill: none; stroke: #5cb85c; stroke-linecap: square"/>
   </g>
   <g id="line2d_33">
    <path d="M 86.326761 141.37076 
L 143.898277 286.228919 
L 201.469792 329.908108 
L 259.041307 345.05893 
L 316.612822 350.177139 
L 374.184337 351.810428 
L 431.755852 352.586675 
L 489.327367 352.829516 
L 546.898883 352.934944 
L 604.470398 351.661604 
L 662.041913 353.01177 
L 719.613428 353.140006 
L 777.184943 353.2239 
L 834.756458 353.2239 
L 892.327973 353.2239 
L 949.899489 353.2239 
" clip-path="url(#p90691bec62)" style="fill: none; stroke: #5cb85c; stroke-linecap: square"/>
   </g>
   <g id="line2d_34">
    <path d="M 86.326761 157.838959 
L 143.898277 276.66741 
L 201.469792 326.185989 
L 259.041307 343.638026 
L 316.612822 349.510262 
L 374.184337 351.490911 
L 431.755852 352.433094 
L 489.327367 352.707751 
L 546.898883 352.835472 
L 604.470398 351.313192 
L 662.041913 353.001805 
L 719.613428 353.09593 
L 777.184943 353.2239 
L 834.756458 353.2239 
L 892.327973 353.2239 
L 949.899489 353.2239 
" clip-path="url(#p90691bec62)" style="fill: none; stroke: #5cb85c; stroke-linecap: square"/>
   </g>
   <g id="line2d_35">
    <path d="M 86.326761 172.271205 
L 143.898277 275.339866 
L 201.469792 320.834907 
L 259.041307 339.868002 
L 316.612822 347.496078 
L 374.184337 350.654035 
L 431.755852 351.801881 
L 489.327367 352.475399 
L 546.898883 352.830067 
L 604.470398 351.127971 
L 662.041913 352.965132 
L 719.613428 353.054256 
L 777.184943 353.2239 
L 834.756458 353.2239 
L 892.327973 353.2239 
L 949.899489 353.2239 
" clip-path="url(#p90691bec62)" style="fill: none; stroke: #5cb85c; stroke-linecap: square"/>
   </g>
   <g id="line2d_36">
    <path d="M 86.326761 179.48739 
L 143.898277 271.578665 
L 201.469792 318.929682 
L 259.041307 338.689646 
L 316.612822 347.295322 
L 374.184337 350.618977 
L 431.755852 351.846642 
L 489.327367 352.395441 
L 546.898883 352.830069 
L 604.470398 351.042252 
L 662.041913 352.948996 
L 719.613428 353.06084 
L 777.184943 353.218779 
L 834.756458 353.2239 
L 892.327973 353.2239 
L 949.899489 353.2239 
" clip-path="url(#p90691bec62)" style="fill: none; stroke: #5cb85c; stroke-linecap: square"/>
   </g>
   <g id="line2d_37">
    <path d="M 86.326761 159.774784 
L 143.898277 277.978832 
L 201.469792 325.00756 
L 259.041307 342.311754 
L 316.612822 348.88189 
L 374.184337 351.4099 
L 431.755852 352.303159 
L 489.327367 352.721441 
L 546.898883 352.881101 
L 604.470398 351.281536 
L 662.041913 353.046928 
L 719.613428 353.119914 
L 777.184943 353.2239 
L 834.756458 353.2239 
L 892.327973 353.2239 
L 949.899489 353.2239 
" clip-path="url(#p90691bec62)" style="fill: none; stroke: #5cb85c; stroke-linecap: square"/>
   </g>
   <g id="line2d_38">
    <path d="M 86.326761 170.027452 
L 143.898277 272.684199 
L 201.469792 321.960157 
L 259.041307 341.410724 
L 316.612822 348.461097 
L 374.184337 351.042768 
L 431.755852 352.197717 
L 489.327367 352.702267 
L 546.898883 352.826656 
L 604.470398 351.286574 
L 662.041913 353.008243 
L 719.613428 353.110947 
L 777.184943 353.2239 
L 834.756458 353.2239 
L 892.327973 353.2239 
L 949.899489 353.2239 
" clip-path="url(#p90691bec62)" style="fill: none; stroke: #5cb85c; stroke-linecap: square"/>
   </g>
   <g id="line2d_39">
    <path d="M 86.326761 164.236244 
L 143.898277 277.347041 
L 201.469792 323.123546 
L 259.041307 341.441588 
L 316.612822 348.313798 
L 374.184337 351.221319 
L 431.755852 352.098425 
L 489.327367 352.644549 
L 546.898883 352.800932 
L 604.470398 351.413757 
L 662.041913 352.977824 
L 719.613428 353.099777 
L 777.184943 353.2239 
L 834.756458 353.2239 
L 892.327973 353.2239 
L 949.899489 353.2239 
" clip-path="url(#p90691bec62)" style="fill: none; stroke: #5cb85c; stroke-linecap: square"/>
   </g>
   <g id="line2d_40">
    <path d="M 86.326761 172.813765 
L 143.898277 273.075337 
L 201.469792 321.196365 
L 259.041307 340.326899 
L 316.612822 347.921658 
L 374.184337 350.704029 
L 431.755852 352.018544 
L 489.327367 352.654173 
L 546.898883 352.733658 
L 604.470398 351.161248 
L 662.041913 353.000854 
L 719.613428 353.112269 
L 777.184943 353.2239 
L 834.756458 353.2239 
L 892.327973 353.2239 
L 949.899489 353.2239 
" clip-path="url(#p90691bec62)" style="fill: none; stroke: #5cb85c; stroke-linecap: square"/>
   </g>
   <g id="line2d_41">
    <path d="M 86.326761 152.293896 
L 143.898277 281.914782 
L 201.469792 326.713772 
L 259.041307 343.391493 
L 316.612822 349.067913 
L 374.184337 351.641975 
L 431.755852 352.382401 
L 489.327367 352.682521 
L 546.898883 352.916005 
L 604.470398 351.527507 
L 662.041913 353.0554 
L 719.613428 353.131137 
L 777.184943 353.2239 
L 834.756458 353.2239 
L 892.327973 353.2239 
L 949.899489 353.2239 
" clip-path="url(#p90691bec62)" style="fill: none; stroke: #5cb85c; stroke-linecap: square"/>
   </g>
   <g id="line2d_42">
    <path d="M 86.326761 166.996594 
L 143.898277 273.718039 
L 201.469792 323.13145 
L 259.041307 341.865529 
L 316.612822 348.55446 
L 374.184337 351.201141 
L 431.755852 352.20651 
L 489.327367 352.618501 
L 546.898883 352.893579 
L 604.470398 351.359045 
L 662.041913 353.027545 
L 719.613428 353.146406 
L 777.184943 353.2239 
L 834.756458 353.2239 
L 892.327973 353.2239 
L 949.899489 353.2239 
" clip-path="url(#p90691bec62)" style="fill: none; stroke: #5cb85c; stroke-linecap: square"/>
   </g>
   <g id="line2d_43">
    <path d="M 86.326761 160.194371 
L 143.898277 277.905281 
L 201.469792 324.321044 
L 259.041307 342.45881 
L 316.612822 349.226623 
L 374.184337 351.355697 
L 431.755852 352.306403 
L 489.327367 352.715068 
L 546.898883 352.922766 
L 604.470398 351.212264 
L 662.041913 353.039771 
L 719.613428 353.060703 
L 777.184943 353.2239 
L 834.756458 353.2239 
L 892.327973 353.2239 
L 949.899489 353.2239 
" clip-path="url(#p90691bec62)" style="fill: none; stroke: #5cb85c; stroke-linecap: square"/>
   </g>
   <g id="line2d_44">
    <path d="M 86.326761 171.202504 
L 143.898277 272.006646 
L 201.469792 321.75449 
L 259.041307 341.423978 
L 316.612822 348.378379 
L 374.184337 351.132288 
L 431.755852 352.207361 
L 489.327367 352.647895 
L 546.898883 352.849103 
L 604.470398 351.090347 
L 662.041913 352.937102 
L 719.613428 353.088705 
L 777.184943 353.2239 
L 834.756458 353.2239 
L 892.327973 353.2239 
L 949.899489 353.2239 
" clip-path="url(#p90691bec62)" style="fill: none; stroke: #5cb85c; stroke-linecap: square"/>
   </g>
   <g id="line2d_45">
    <path d="M 86.326761 168.211156 
L 143.898277 276.255264 
L 201.469792 321.802425 
L 259.041307 340.44314 
L 316.612822 348.066242 
L 374.184337 350.950579 
L 431.755852 351.999798 
L 489.327367 352.542446 
L 546.898883 352.849203 
L 604.470398 351.419711 
L 662.041913 353.091283 
L 719.613428 353.087553 
L 777.184943 353.2239 
L 834.756458 353.2239 
L 892.327973 353.2239 
L 949.899489 353.2239 
" clip-path="url(#p90691bec62)" style="fill: none; stroke: #5cb85c; stroke-linecap: square"/>
   </g>
   <g id="line2d_46">
    <path d="M 86.326761 177.481667 
L 143.898277 272.19856 
L 201.469792 319.053653 
L 259.041307 339.427191 
L 316.612822 347.399788 
L 374.184337 350.525993 
L 431.755852 351.86239 
L 489.327367 352.520058 
L 546.898883 352.762736 
L 604.470398 351.26114 
L 662.041913 353.111634 
L 719.613428 353.113989 
L 777.184943 353.2239 
L 834.756458 353.2239 
L 892.327973 353.2239 
L 949.899489 353.2239 
" clip-path="url(#p90691bec62)" style="fill: none; stroke: #5cb85c; stroke-linecap: square"/>
   </g>
   <g id="line2d_47">
    <path d="M 86.326761 166.627946 
L 143.898277 276.961118 
L 201.469792 322.197269 
L 259.041307 340.663732 
L 316.612822 348.211499 
L 374.184337 350.828316 
L 431.755852 352.104724 
L 489.327367 352.638084 
L 546.898883 352.871381 
L 604.470398 351.497898 
L 662.041913 353.063448 
L 719.613428 353.053385 
L 777.184943 353.2239 
L 834.756458 353.2239 
L 892.327973 353.2239 
L 949.899489 353.2239 
" clip-path="url(#p90691bec62)" style="fill: none; stroke: #5cb85c; stroke-linecap: square"/>
   </g>
   <g id="line2d_48">
    <path d="M 86.326761 174.388034 
L 143.898277 272.587546 
L 201.469792 320.871694 
L 259.041307 339.775288 
L 316.612822 347.586428 
L 374.184337 350.777321 
L 431.755852 351.980065 
L 489.327367 352.542072 
L 546.898883 352.791275 
L 604.470398 351.328945 
L 662.041913 353.014445 
L 719.613428 353.081428 
L 777.184943 353.218159 
L 834.756458 353.2239 
L 892.327973 353.2239 
L 949.899489 353.2239 
" clip-path="url(#p90691bec62)" style="fill: none; stroke: #5cb85c; stroke-linecap: square"/>
   </g>
   <g id="line2d_49">
    <path d="M 86.326761 158.991677 
L 143.898277 280.715851 
L 201.469792 324.620496 
L 259.041307 341.445678 
L 316.612822 348.611107 
L 374.184337 351.11311 
L 431.755852 352.101886 
L 489.327367 352.603116 
L 546.898883 352.836311 
L 604.470398 351.496694 
L 662.041913 353.118484 
L 719.613428 353.064389 
L 777.184943 353.2239 
L 834.756458 353.2239 
L 892.327973 353.2239 
L 949.899489 353.2239 
" clip-path="url(#p90691bec62)" style="fill: none; stroke: #5cb85c; stroke-linecap: square"/>
   </g>
   <g id="line2d_50">
    <path d="M 86.326761 175.213513 
L 143.898277 272.254067 
L 201.469792 320.307798 
L 259.041307 339.933589 
L 316.612822 347.715364 
L 374.184337 350.720624 
L 431.755852 351.894258 
L 489.327367 352.504 
L 546.898883 352.737065 
L 604.470398 351.336069 
L 662.041913 353.016114 
L 719.613428 353.091592 
L 777.184943 353.218647 
L 834.756458 353.2239 
L 892.327973 353.2239 
L 949.899489 353.2239 
" clip-path="url(#p90691bec62)" style="fill: none; stroke: #5cb85c; stroke-linecap: square"/>
   </g>
   <g id="line2d_51">
    <path d="M 86.326761 151.792184 
L 143.898277 283.07806 
L 201.469792 326.032209 
L 259.041307 343.100133 
L 316.612822 349.279661 
L 374.184337 351.517939 
L 431.755852 352.35398 
L 489.327367 352.753237 
L 546.898883 352.935418 
L 604.470398 351.688952 
L 662.041913 353.101092 
L 719.613428 353.085935 
L 777.184943 353.2239 
L 834.756458 353.2239 
L 892.327973 353.2239 
L 949.899489 353.2239 
" clip-path="url(#p90691bec62)" style="fill: none; stroke: #5cb85c; stroke-linecap: square"/>
   </g>
   <g id="line2d_52">
    <path d="M 86.326761 167.976525 
L 143.898277 273.980064 
L 201.469792 322.60392 
L 259.041307 341.549297 
L 316.612822 348.249551 
L 374.184337 351.083723 
L 431.755852 352.280532 
L 489.327367 352.644442 
L 546.898883 352.80725 
L 604.470398 351.425762 
L 662.041913 353.049071 
L 719.613428 353.068663 
L 777.184943 353.2239 
L 834.756458 353.2239 
L 892.327973 353.2239 
L 949.899489 353.2239 
" clip-path="url(#p90691bec62)" style="fill: none; stroke: #5cb85c; stroke-linecap: square"/>
   </g>
   <g id="line2d_53">
    <path d="M 86.326761 150.257299 
L 143.898277 281.820673 
L 201.469792 326.963587 
L 259.041307 344.292795 
L 316.612822 349.728141 
L 374.184337 351.664052 
L 431.755852 352.417412 
L 489.327367 352.724031 
L 546.898883 352.954408 
L 604.470398 351.743128 
L 662.041913 353.051583 
L 719.613428 353.101691 
L 777.184943 353.2239 
L 834.756458 353.2239 
L 892.327973 353.2239 
L 949.899489 353.2239 
" clip-path="url(#p90691bec62)" style="fill: none; stroke: #5cb85c; stroke-linecap: square"/>
   </g>
   <g id="line2d_54">
    <path d="M 86.326761 161.090243 
L 143.898277 275.800534 
L 201.469792 324.743218 
L 259.041307 342.906617 
L 316.612822 349.192107 
L 374.184337 351.462799 
L 431.755852 352.35986 
L 489.327367 352.692017 
L 546.898883 352.87422 
L 604.470398 351.425769 
L 662.041913 353.064373 
L 719.613428 353.107044 
L 777.184943 353.2239 
L 834.756458 353.2239 
L 892.327973 353.2239 
L 949.899489 353.2239 
" clip-path="url(#p90691bec62)" style="fill: none; stroke: #5cb85c; stroke-linecap: square"/>
   </g>
   <g id="line2d_55">
    <path d="M 86.326761 153.204086 
L 143.898277 280.989548 
L 201.469792 326.520393 
L 259.041307 343.462225 
L 316.612822 349.097007 
L 374.184337 351.539906 
L 431.755852 352.43051 
L 489.327367 352.721048 
L 546.898883 352.925686 
L 604.470398 351.62045 
L 662.041913 353.079369 
L 719.613428 353.128572 
L 777.184943 353.2239 
L 834.756458 353.2239 
L 892.327973 353.2239 
L 949.899489 353.2239 
" clip-path="url(#p90691bec62)" style="fill: none; stroke: #5cb85c; stroke-linecap: square"/>
   </g>
   <g id="line2d_56">
    <path d="M 86.326761 161.993869 
L 143.898277 276.300773 
L 201.469792 323.838103 
L 259.041307 342.56391 
L 316.612822 348.969599 
L 374.184337 351.434558 
L 431.755852 352.363372 
L 489.327367 352.692248 
L 546.898883 352.896841 
L 604.470398 351.496742 
L 662.041913 353.041602 
L 719.613428 353.13269 
L 777.184943 353.218392 
L 834.756458 353.2239 
L 892.327973 353.2239 
L 949.899489 353.2239 
" clip-path="url(#p90691bec62)" style="fill: none; stroke: #5cb85c; stroke-linecap: square"/>
   </g>
   <g id="line2d_57">
    <path d="M 86.326761 150.379651 
L 143.898277 281.606864 
L 201.469792 327.504662 
L 259.041307 343.862209 
L 316.612822 349.587612 
L 374.184337 351.743935 
L 431.755852 352.516608 
L 489.327367 352.759267 
L 546.898883 352.896652 
L 604.470398 351.651438 
L 662.041913 353.075104 
L 719.613428 353.134798 
L 777.184943 353.2239 
L 834.756458 353.2239 
L 892.327973 353.2239 
L 949.899489 353.2239 
" clip-path="url(#p90691bec62)" style="fill: none; stroke: #5cb85c; stroke-linecap: square"/>
   </g>
   <g id="line2d_58">
    <path d="M 86.326761 158.538085 
L 143.898277 277.104537 
L 201.469792 325.452153 
L 259.041307 342.976316 
L 316.612822 349.278123 
L 374.184337 351.609751 
L 431.755852 352.36622 
L 489.327367 352.752873 
L 546.898883 352.9512 
L 604.470398 351.499845 
L 662.041913 353.078726 
L 719.613428 353.110971 
L 777.184943 353.2239 
L 834.756458 353.2239 
L 892.327973 353.2239 
L 949.899489 353.2239 
" clip-path="url(#p90691bec62)" style="fill: none; stroke: #5cb85c; stroke-linecap: square"/>
   </g>
   <g id="line2d_59">
    <path d="M 86.326761 145.372911 
L 143.898277 282.082583 
L 201.469792 329.291793 
L 259.041307 345.415557 
L 316.612822 350.267937 
L 374.184337 351.942307 
L 431.755852 352.647935 
L 489.327367 352.874706 
L 546.898883 352.98655 
L 604.470398 351.680322 
L 662.041913 353.055098 
L 719.613428 353.101103 
L 777.184943 353.2239 
L 834.756458 353.2239 
L 892.327973 353.2239 
L 949.899489 353.2239 
" clip-path="url(#p90691bec62)" style="fill: none; stroke: #5cb85c; stroke-linecap: square"/>
   </g>
   <g id="line2d_60">
    <path d="M 86.326761 155.264985 
L 143.898277 276.686934 
L 201.469792 326.723533 
L 259.041307 344.293769 
L 316.612822 349.891435 
L 374.184337 351.884843 
L 431.755852 352.478377 
L 489.327367 352.823462 
L 546.898883 352.970521 
L 604.470398 351.577441 
L 662.041913 353.003416 
L 719.613428 353.120083 
L 777.184943 353.2239 
L 834.756458 353.2239 
L 892.327973 353.2239 
L 949.899489 353.2239 
" clip-path="url(#p90691bec62)" style="fill: none; stroke: #5cb85c; stroke-linecap: square"/>
   </g>
   <g id="line2d_61">
    <path d="M 86.326761 145.928883 
L 143.898277 281.697328 
L 201.469792 329.131939 
L 259.041307 345.265332 
L 316.612822 350.526322 
L 374.184337 351.958176 
L 431.755852 352.58067 
L 489.327367 352.852232 
L 546.898883 352.951227 
L 604.470398 351.678801 
L 662.041913 353.030842 
L 719.613428 353.117047 
L 777.184943 353.2239 
L 834.756458 353.2239 
L 892.327973 353.2239 
L 949.899489 353.2239 
" clip-path="url(#p90691bec62)" style="fill: none; stroke: #5cb85c; stroke-linecap: square"/>
   </g>
   <g id="line2d_62">
    <path d="M 86.326761 155.15266 
L 143.898277 276.695484 
L 201.469792 326.732128 
L 259.041307 344.015849 
L 316.612822 350.124197 
L 374.184337 351.887897 
L 431.755852 352.503882 
L 489.327367 352.845829 
L 546.898883 352.976892 
L 604.470398 351.634386 
L 662.041913 353.03095 
L 719.613428 353.118647 
L 777.184943 353.2239 
L 834.756458 353.2239 
L 892.327973 353.2239 
L 949.899489 353.2239 
" clip-path="url(#p90691bec62)" style="fill: none; stroke: #5cb85c; stroke-linecap: square"/>
   </g>
   <g id="line2d_63">
    <path d="M 86.326761 154.590073 
L 143.898277 279.866742 
L 201.469792 326.311972 
L 259.041307 343.287748 
L 316.612822 349.410211 
L 374.184337 351.466641 
L 431.755852 352.417837 
L 489.327367 352.772374 
L 546.898883 352.85842 
L 604.470398 351.611295 
L 662.041913 353.024755 
L 719.613428 353.100732 
L 777.184943 353.2239 
L 834.756458 353.2239 
L 892.327973 353.2239 
L 949.899489 353.2239 
" clip-path="url(#p90691bec62)" style="fill: none; stroke: #5cb85c; stroke-linecap: square"/>
   </g>
   <g id="line2d_64">
    <path d="M 86.326761 164.685431 
L 143.898277 274.771327 
L 201.469792 323.41343 
L 259.041307 342.166422 
L 316.612822 348.797751 
L 374.184337 351.406044 
L 431.755852 352.225972 
L 489.327367 352.778801 
L 546.898883 352.855231 
L 604.470398 351.480157 
L 662.041913 353.07641 
L 719.613428 353.061824 
L 777.184943 353.2239 
L 834.756458 353.2239 
L 892.327973 353.2239 
L 949.899489 353.2239 
" clip-path="url(#p90691bec62)" style="fill: none; stroke: #5cb85c; stroke-linecap: square"/>
   </g>
   <g id="line2d_65">
    <path d="M 86.326761 147.948098 
L 143.898277 282.007686 
L 201.469792 328.429468 
L 259.041307 344.63114 
L 316.612822 350.076262 
L 374.184337 351.942201 
L 431.755852 352.468656 
L 489.327367 352.759303 
L 546.898883 352.948008 
L 604.470398 351.526364 
L 662.041913 352.878454 
L 719.613428 353.103158 
L 777.184943 353.2239 
L 834.756458 353.2239 
L 892.327973 353.2239 
L 949.899489 353.2239 
" clip-path="url(#p90691bec62)" style="fill: none; stroke: #5cb85c; stroke-linecap: square"/>
   </g>
   <g id="line2d_66">
    <path d="M 86.326761 159.619724 
L 143.898277 275.555327 
L 201.469792 325.167857 
L 259.041307 343.340649 
L 316.612822 349.757293 
L 374.184337 351.728157 
L 431.755852 352.411105 
L 489.327367 352.794573 
L 546.898883 352.931982 
L 604.470398 351.437149 
L 662.041913 352.90485 
L 719.613428 353.070134 
L 777.184943 353.2239 
L 834.756458 353.2239 
L 892.327973 353.2239 
L 949.899489 353.2239 
" clip-path="url(#p90691bec62)" style="fill: none; stroke: #5cb85c; stroke-linecap: square"/>
   </g>
   <g id="line2d_67">
    <path d="M 86.326761 152.531116 
L 143.898277 281.991216 
L 201.469792 326.108559 
L 259.041307 343.579507 
L 316.612822 349.359985 
L 374.184337 351.617223 
L 431.755852 352.485231 
L 489.327367 352.743718 
L 546.898883 352.935474 
L 604.470398 351.471086 
L 662.041913 352.870298 
L 719.613428 353.025385 
L 777.184943 353.2239 
L 834.756458 353.2239 
L 892.327973 353.2239 
L 949.899489 353.2239 
" clip-path="url(#p90691bec62)" style="fill: none; stroke: #5cb85c; stroke-linecap: square"/>
   </g>
   <g id="line2d_68">
    <path d="M 86.326761 167.622279 
L 143.898277 273.872347 
L 201.469792 322.936064 
L 259.041307 341.764604 
L 316.612822 348.575789 
L 374.184337 351.2949 
L 431.755852 352.210379 
L 489.327367 352.590151 
L 546.898883 352.852204 
L 604.470398 351.224066 
L 662.041913 352.791899 
L 719.613428 352.984117 
L 777.184943 353.2239 
L 834.756458 353.2239 
L 892.327973 353.2239 
L 949.899489 353.2239 
" clip-path="url(#p90691bec62)" style="fill: none; stroke: #5cb85c; stroke-linecap: square"/>
   </g>
   <g id="line2d_69">
    <path d="M 86.326761 155.406915 
L 143.898277 281.222209 
L 201.469792 325.299296 
L 259.041307 342.488195 
L 316.612822 349.300382 
L 374.184337 351.534754 
L 431.755852 352.392853 
L 489.327367 352.699169 
L 546.898883 352.910023 
L 604.470398 351.476791 
L 662.041913 352.930794 
L 719.613428 353.05742 
L 777.184943 353.2239 
L 834.756458 353.2239 
L 892.327973 353.2239 
L 949.899489 353.2239 
" clip-path="url(#p90691bec62)" style="fill: none; stroke: #5cb85c; stroke-linecap: square"/>
   </g>
   <g id="line2d_70">
    <path d="M 86.326761 171.569087 
L 143.898277 272.105229 
L 201.469792 321.390695 
L 259.041307 341.15437 
L 316.612822 348.391796 
L 374.184337 351.174146 
L 431.755852 352.239525 
L 489.327367 352.724812 
L 546.898883 352.846 
L 604.470398 351.200883 
L 662.041913 352.879435 
L 719.613428 353.042823 
L 777.184943 353.2239 
L 834.756458 353.2239 
L 892.327973 353.2239 
L 949.899489 353.2239 
" clip-path="url(#p90691bec62)" style="fill: none; stroke: #5cb85c; stroke-linecap: square"/>
   </g>
   <g id="line2d_71">
    <path d="M 86.326761 157.603666 
L 143.898277 279.231629 
L 201.469792 325.210093 
L 259.041307 342.864971 
L 316.612822 349.168166 
L 374.184337 351.51479 
L 431.755852 352.353984 
L 489.327367 352.68599 
L 546.898883 352.871298 
L 604.470398 351.290684 
L 662.041913 352.864076 
L 719.613428 353.059453 
L 777.184943 353.2239 
L 834.756458 353.2239 
L 892.327973 353.2239 
L 949.899489 353.2239 
" clip-path="url(#p90691bec62)" style="fill: none; stroke: #5cb85c; stroke-linecap: square"/>
   </g>
   <g id="line2d_72">
    <path d="M 86.326761 169.45424 
L 143.898277 273.107382 
L 201.469792 322.087484 
L 259.041307 341.604152 
L 316.612822 348.418832 
L 374.184337 351.256242 
L 431.755852 352.248545 
L 489.327367 352.692447 
L 546.898883 352.896973 
L 604.470398 351.078899 
L 662.041913 352.876496 
L 719.613428 352.997109 
L 777.184943 353.2239 
L 834.756458 353.2239 
L 892.327973 353.2239 
L 949.899489 353.2239 
" clip-path="url(#p90691bec62)" style="fill: none; stroke: #5cb85c; stroke-linecap: square"/>
   </g>
   <g id="line2d_73">
    <path d="M 86.326761 149.684464 
L 143.898277 280.759373 
L 201.469792 328.029177 
L 259.041307 344.511429 
L 316.612822 350.228563 
L 374.184337 351.864918 
L 431.755852 352.471456 
L 489.327367 352.868014 
L 546.898883 352.896432 
L 604.470398 351.49751 
L 662.041913 352.84822 
L 719.613428 353.059245 
L 777.184943 353.2239 
L 834.756458 353.2239 
L 892.327973 353.2239 
L 949.899489 353.2239 
" clip-path="url(#p90691bec62)" style="fill: none; stroke: #5cb85c; stroke-linecap: square"/>
   </g>
   <g id="line2d_74">
    <path d="M 86.326761 159.895287 
L 143.898277 275.05405 
L 201.469792 325.260686 
L 259.041307 343.526731 
L 316.612822 349.641232 
L 374.184337 351.839421 
L 431.755852 352.583556 
L 489.327367 352.726965 
L 546.898883 352.94139 
L 604.470398 351.373463 
L 662.041913 352.813538 
L 719.613428 353.062482 
L 777.184943 353.2239 
L 834.756458 353.2239 
L 892.327973 353.2239 
L 949.899489 353.2239 
" clip-path="url(#p90691bec62)" style="fill: none; stroke: #5cb85c; stroke-linecap: square"/>
   </g>
   <g id="line2d_75">
    <path d="M 86.326761 157.265315 
L 143.898277 281.18993 
L 201.469792 324.834378 
L 259.041307 342.0687 
L 316.612822 348.90376 
L 374.184337 351.163704 
L 431.755852 352.219867 
L 489.327367 352.711738 
L 546.898883 352.877817 
L 604.470398 351.348743 
L 662.041913 352.981209 
L 719.613428 353.153639 
L 777.184943 353.2239 
L 834.756458 353.2239 
L 892.327973 353.2239 
L 949.899489 353.2239 
" clip-path="url(#p90691bec62)" style="fill: none; stroke: #5cb85c; stroke-linecap: square"/>
   </g>
   <g id="line2d_76">
    <path d="M 86.326761 169.944287 
L 143.898277 273.818124 
L 201.469792 321.939563 
L 259.041307 340.8457 
L 316.612822 348.364862 
L 374.184337 350.901929 
L 431.755852 352.146383 
L 489.327367 352.663751 
L 546.898883 352.79452 
L 604.470398 351.141254 
L 662.041913 353.001328 
L 719.613428 353.157099 
L 777.184943 353.2239 
L 834.756458 353.2239 
L 892.327973 353.2239 
L 949.899489 353.2239 
" clip-path="url(#p90691bec62)" style="fill: none; stroke: #5cb85c; stroke-linecap: square"/>
   </g>
   <g id="line2d_77">
    <path d="M 86.326761 162.34379 
L 143.898277 278.636943 
L 201.469792 323.435922 
L 259.041307 341.658794 
L 316.612822 348.550226 
L 374.184337 351.084197 
L 431.755852 352.149723 
L 489.327367 352.63504 
L 546.898883 352.810623 
L 604.470398 351.324405 
L 662.041913 352.960648 
L 719.613428 353.128489 
L 777.184943 353.2239 
L 834.756458 353.2239 
L 892.327973 353.2239 
L 949.899489 353.2239 
" clip-path="url(#p90691bec62)" style="fill: none; stroke: #5cb85c; stroke-linecap: square"/>
   </g>
   <g id="line2d_78">
    <path d="M 86.326761 172.457792 
L 143.898277 273.122386 
L 201.469792 321.308424 
L 259.041307 340.384882 
L 316.612822 348.071995 
L 374.184337 350.723453 
L 431.755852 352.085837 
L 489.327367 352.625463 
L 546.898883 352.768991 
L 604.470398 351.057634 
L 662.041913 353.002079 
L 719.613428 353.109863 
L 777.184943 353.2239 
L 834.756458 353.2239 
L 892.327973 353.2239 
L 949.899489 353.2239 
" clip-path="url(#p90691bec62)" style="fill: none; stroke: #5cb85c; stroke-linecap: square"/>
   </g>
   <g id="line2d_79">
    <path d="M 86.326761 164.021592 
L 143.898277 277.85783 
L 201.469792 322.650989 
L 259.041307 341.435553 
L 316.612822 348.456254 
L 374.184337 351.072435 
L 431.755852 352.278148 
L 489.327367 352.619452 
L 546.898883 352.890979 
L 604.470398 351.327137 
L 662.041913 353.031055 
L 719.613428 353.077375 
L 777.184943 353.2239 
L 834.756458 353.2239 
L 892.327973 353.2239 
L 949.899489 353.2239 
" clip-path="url(#p90691bec62)" style="fill: none; stroke: #5cb85c; stroke-linecap: square"/>
   </g>
   <g id="line2d_80">
    <path d="M 86.326761 174.577258 
L 143.898277 272.480122 
L 201.469792 320.014551 
L 259.041307 340.340365 
L 316.612822 347.672061 
L 374.184337 350.938484 
L 431.755852 352.150392 
L 489.327367 352.574704 
L 546.898883 352.775752 
L 604.470398 351.095257 
L 662.041913 353.026632 
L 719.613428 353.078436 
L 777.184943 353.218687 
L 834.756458 353.2239 
L 892.327973 353.2239 
L 949.899489 353.2239 
" clip-path="url(#p90691bec62)" style="fill: none; stroke: #5cb85c; stroke-linecap: square"/>
   </g>
   <g id="line2d_81">
    <path d="M 86.326761 164.304254 
L 143.898277 278.24022 
L 201.469792 322.562077 
L 259.041307 341.204213 
L 316.612822 348.282924 
L 374.184337 351.110124 
L 431.755852 352.146764 
L 489.327367 352.6064 
L 546.898883 352.852384 
L 604.470398 351.283782 
L 662.041913 352.995465 
L 719.613428 353.130192 
L 777.184943 353.2239 
L 834.756458 353.2239 
L 892.327973 353.2239 
L 949.899489 353.2239 
" clip-path="url(#p90691bec62)" style="fill: none; stroke: #5cb85c; stroke-linecap: square"/>
   </g>
   <g id="line2d_82">
    <path d="M 86.326761 175.833206 
L 143.898277 272.241306 
L 201.469792 319.999548 
L 259.041307 339.605817 
L 316.612822 347.840013 
L 374.184337 350.666504 
L 431.755852 352.044575 
L 489.327367 352.500868 
L 546.898883 352.765941 
L 604.470398 351.21604 
L 662.041913 352.890384 
L 719.613428 353.114598 
L 777.184943 353.2239 
L 834.756458 353.2239 
L 892.327973 353.2239 
L 949.899489 353.2239 
" clip-path="url(#p90691bec62)" style="fill: none; stroke: #5cb85c; stroke-linecap: square"/>
   </g>
   <g id="line2d_83">
    <path d="M 86.326761 150.856119 
L 143.898277 281.864273 
L 201.469792 326.944413 
L 259.041307 343.827343 
L 316.612822 349.514314 
L 374.184337 351.60976 
L 431.755852 352.465447 
L 489.327367 352.794546 
L 546.898883 352.899888 
L 604.470398 351.765213 
L 662.041913 353.013493 
L 719.613428 353.16399 
L 777.184943 353.2239 
L 834.756458 353.2239 
L 892.327973 353.2239 
L 949.899489 353.2239 
" clip-path="url(#p90691bec62)" style="fill: none; stroke: #5cb85c; stroke-linecap: square"/>
   </g>
   <g id="line2d_84">
    <path d="M 86.326761 162.341087 
L 143.898277 274.667547 
L 201.469792 324.765526 
L 259.041307 342.677176 
L 316.612822 349.224115 
L 374.184337 351.488423 
L 431.755852 352.334296 
L 489.327367 352.698453 
L 546.898883 352.854994 
L 604.470398 351.534836 
L 662.041913 352.985926 
L 719.613428 353.146421 
L 777.184943 353.2239 
L 834.756458 353.2239 
L 892.327973 353.2239 
L 949.899489 353.2239 
" clip-path="url(#p90691bec62)" style="fill: none; stroke: #5cb85c; stroke-linecap: square"/>
   </g>
   <g id="line2d_85">
    <path d="M 86.326761 124.742654 
L 143.898277 291.26317 
L 201.469792 335.838153 
L 259.041307 347.921646 
L 316.612822 351.548517 
L 374.184337 352.445719 
L 431.755852 352.829379 
L 489.327367 352.88979 
L 546.898883 353.017967 
L 604.470398 351.968816 
L 662.041913 353.114289 
L 719.613428 353.138701 
L 777.184943 353.2239 
L 834.756458 353.2239 
L 892.327973 353.2239 
L 949.899489 353.2239 
" clip-path="url(#p90691bec62)" style="fill: none; stroke: #5cb85c; stroke-linecap: square"/>
   </g>
   <g id="line2d_86">
    <path d="M 86.326761 136.876482 
L 143.898277 283.316038 
L 201.469792 333.022881 
L 259.041307 347.373161 
L 316.612822 351.123466 
L 374.184337 352.391347 
L 431.755852 352.678667 
L 489.327367 352.950847 
L 546.898883 352.953628 
L 604.470398 351.820415 
L 662.041913 353.068492 
L 719.613428 353.143375 
L 777.184943 353.2239 
L 834.756458 353.2239 
L 892.327973 353.2239 
L 949.899489 353.2239 
" clip-path="url(#p90691bec62)" style="fill: none; stroke: #5cb85c; stroke-linecap: square"/>
   </g>
   <g id="line2d_87">
    <path d="M 43.148125 353.2239 
L 993.078125 353.2239 
" clip-path="url(#p90691bec62)" style="fill: none; stroke: #dedede; stroke-width: 2; stroke-linecap: square"/>
   </g>
   <g id="text_25">
    <!-- FastQC: Sequence Duplication Levels -->
    <g transform="translate(369.699375 19.3575)scale(0.16 -0.16)">
     <defs>
      <path id="DejaVuSans-46" d="M 628 4666 
L 3309 4666 
L 3309 4134 
L 1259 4134 
L 1259 2759 
L 3109 2759 
L 3109 2228 
L 1259 2228 
L 1259 0 
L 628 0 
L 628 4666 
z
" transform="scale(0.015625)"/>
      <path id="DejaVuSans-73" d="M 2834 3397 
L 2834 2853 
Q 2591 2978 2328 3040 
Q 2066 3103 1784 3103 
Q 1356 3103 1142 2972 
Q 928 2841 928 2578 
Q 928 2378 1081 2264 
Q 1234 2150 1697 2047 
L 1894 2003 
Q 2506 1872 2764 1633 
Q 3022 1394 3022 966 
Q 3022 478 2636 193 
Q 2250 -91 1575 -91 
Q 1294 -91 989 -36 
Q 684 19 347 128 
L 347 722 
Q 666 556 975 473 
Q 1284 391 1588 391 
Q 1994 391 2212 530 
Q 2431 669 2431 922 
Q 2431 1156 2273 1281 
Q 2116 1406 1581 1522 
L 1381 1569 
Q 847 1681 609 1914 
Q 372 2147 372 2553 
Q 372 3047 722 3315 
Q 1072 3584 1716 3584 
Q 2034 3584 2315 3537 
Q 2597 3491 2834 3397 
z
" transform="scale(0.015625)"/>
      <path id="DejaVuSans-51" d="M 2522 4238 
Q 1834 4238 1429 3725 
Q 1025 3213 1025 2328 
Q 1025 1447 1429 934 
Q 1834 422 2522 422 
Q 3209 422 3611 934 
Q 4013 1447 4013 2328 
Q 4013 3213 3611 3725 
Q 3209 4238 2522 4238 
z
M 3406 84 
L 4238 -825 
L 3475 -825 
L 2784 -78 
Q 2681 -84 2626 -87 
Q 2572 -91 2522 -91 
Q 1538 -91 948 567 
Q 359 1225 359 2328 
Q 359 3434 948 4092 
Q 1538 4750 2522 4750 
Q 3503 4750 4090 4092 
Q 4678 3434 4678 2328 
Q 4678 1516 4351 937 
Q 4025 359 3406 84 
z
" transform="scale(0.015625)"/>
      <path id="DejaVuSans-43" d="M 4122 4306 
L 4122 3641 
Q 3803 3938 3442 4084 
Q 3081 4231 2675 4231 
Q 1875 4231 1450 3742 
Q 1025 3253 1025 2328 
Q 1025 1406 1450 917 
Q 1875 428 2675 428 
Q 3081 428 3442 575 
Q 3803 722 4122 1019 
L 4122 359 
Q 3791 134 3420 21 
Q 3050 -91 2638 -91 
Q 1578 -91 968 557 
Q 359 1206 359 2328 
Q 359 3453 968 4101 
Q 1578 4750 2638 4750 
Q 3056 4750 3426 4639 
Q 3797 4528 4122 4306 
z
" transform="scale(0.015625)"/>
      <path id="DejaVuSans-3a" d="M 750 794 
L 1409 794 
L 1409 0 
L 750 0 
L 750 794 
z
M 750 3309 
L 1409 3309 
L 1409 2516 
L 750 2516 
L 750 3309 
z
" transform="scale(0.015625)"/>
     </defs>
     <use xlink:href="#DejaVuSans-46"/>
     <use xlink:href="#DejaVuSans-61" x="48.394531"/>
     <use xlink:href="#DejaVuSans-73" x="109.673828"/>
     <use xlink:href="#DejaVuSans-74" x="161.773438"/>
     <use xlink:href="#DejaVuSans-51" x="200.982422"/>
     <use xlink:href="#DejaVuSans-43" x="279.693359"/>
     <use xlink:href="#DejaVuSans-3a" x="349.517578"/>
     <use xlink:href="#DejaVuSans-20" x="383.208984"/>
     <use xlink:href="#DejaVuSans-53" x="414.996094"/>
     <use xlink:href="#DejaVuSans-65" x="478.472656"/>
     <use xlink:href="#DejaVuSans-71" x="539.996094"/>
     <use xlink:href="#DejaVuSans-75" x="603.472656"/>
     <use xlink:href="#DejaVuSans-65" x="666.851562"/>
     <use xlink:href="#DejaVuSans-6e" x="728.375"/>
     <use xlink:href="#DejaVuSans-63" x="791.753906"/>
     <use xlink:href="#DejaVuSans-65" x="846.734375"/>
     <use xlink:href="#DejaVuSans-20" x="908.257812"/>
     <use xlink:href="#DejaVuSans-44" x="940.044922"/>
     <use xlink:href="#DejaVuSans-75" x="1017.046875"/>
     <use xlink:href="#DejaVuSans-70" x="1080.425781"/>
     <use xlink:href="#DejaVuSans-6c" x="1143.902344"/>
     <use xlink:href="#DejaVuSans-69" x="1171.685547"/>
     <use xlink:href="#DejaVuSans-63" x="1199.46875"/>
     <use xlink:href="#DejaVuSans-61" x="1254.449219"/>
     <use xlink:href="#DejaVuSans-74" x="1315.728516"/>
     <use xlink:href="#DejaVuSans-69" x="1354.9375"/>
     <use xlink:href="#DejaVuSans-6f" x="1382.720703"/>
     <use xlink:href="#DejaVuSans-6e" x="1443.902344"/>
     <use xlink:href="#DejaVuSans-20" x="1507.28125"/>
     <use xlink:href="#DejaVuSans-4c" x="1539.068359"/>
     <use xlink:href="#DejaVuSans-65" x="1593.03125"/>
     <use xlink:href="#DejaVuSans-76" x="1654.554688"/>
     <use xlink:href="#DejaVuSans-65" x="1713.734375"/>
     <use xlink:href="#DejaVuSans-6c" x="1775.257812"/>
     <use xlink:href="#DejaVuSans-73" x="1803.041016"/>
    </g>
   </g>
  </g>
 </g>
 <defs>
  <clipPath id="p90691bec62">
   <rect x="43.148125" y="35.2559" width="949.93" height="317.968"/>
  </clipPath>
 </defs>
</svg>
