<?xml version="1.0" encoding="utf-8" standalone="no"?>
<!DOCTYPE svg PUBLIC "-//W3C//DTD SVG 1.1//EN"
  "http://www.w3.org/Graphics/SVG/1.1/DTD/svg11.dtd">
<svg xmlns:xlink="http://www.w3.org/1999/xlink" width="1000.340625pt" height="388.844525pt" viewBox="0 0 1000.340625 388.844525" xmlns="http://www.w3.org/2000/svg" version="1.1">
 <metadata>
  <rdf:RDF xmlns:dc="http://purl.org/dc/elements/1.1/" xmlns:cc="http://creativecommons.org/ns#" xmlns:rdf="http://www.w3.org/1999/02/22-rdf-syntax-ns#">
   <cc:Work>
    <dc:type rdf:resource="http://purl.org/dc/dcmitype/StillImage"/>
    <dc:date>2023-06-21T15:44:35.051060</dc:date>
    <dc:format>image/svg+xml</dc:format>
    <dc:creator>
     <cc:Agent>
      <dc:title>Matplotlib v3.5.3, https://matplotlib.org/</dc:title>
     </cc:Agent>
    </dc:creator>
   </cc:Work>
  </rdf:RDF>
 </metadata>
 <defs>
  <style type="text/css">*{stroke-linejoin: round; stroke-linecap: butt}</style>
 </defs>
 <g id="figure_1">
  <g id="axes_1">
   <g id="patch_1">
    <path d="M 40.600625 353.2239 
L 993.140625 353.2239 
L 993.140625 35.2559 
L 40.600625 35.2559 
z
" style="fill: #ffffff"/>
   </g>
   <g id="patch_2">
    <path d="M 728.000625 353.2239 
L 2495.600625 353.2239 
L 2495.600625 35.2559 
L 728.000625 35.2559 
z
" clip-path="url(#p39a7360b9f)" style="fill: #c3e6c3"/>
   </g>
   <g id="patch_3">
    <path d="M 531.600625 353.2239 
L 728.000625 353.2239 
L 728.000625 35.2559 
L 531.600625 35.2559 
z
" clip-path="url(#p39a7360b9f)" style="fill: #e6dcc3"/>
   </g>
   <g id="patch_4">
    <path d="M 40.600625 353.2239 
L 531.600625 353.2239 
L 531.600625 35.2559 
L 40.600625 35.2559 
z
" clip-path="url(#p39a7360b9f)" style="fill: #e6c3c3"/>
   </g>
   <g id="matplotlib.axis_1">
    <g id="xtick_1">
     <g id="text_1">
      <!-- 0 -->
      <g transform="translate(38.055625 366.30265)scale(0.08 -0.08)">
       <defs>
        <path id="DejaVuSans-30" d="M 2034 4250 
Q 1547 4250 1301 3770 
Q 1056 3291 1056 2328 
Q 1056 1369 1301 889 
Q 1547 409 2034 409 
Q 2525 409 2770 889 
Q 3016 1369 3016 2328 
Q 3016 3291 2770 3770 
Q 2525 4250 2034 4250 
z
M 2034 4750 
Q 2819 4750 3233 4129 
Q 3647 3509 3647 2328 
Q 3647 1150 3233 529 
Q 2819 -91 2034 -91 
Q 1250 -91 836 529 
Q 422 1150 422 2328 
Q 422 3509 836 4129 
Q 1250 4750 2034 4750 
z
" transform="scale(0.015625)"/>
       </defs>
       <use xlink:href="#DejaVuSans-30"/>
      </g>
     </g>
    </g>
    <g id="xtick_2">
     <g id="text_2">
      <!-- 5 -->
      <g transform="translate(160.805625 366.30265)scale(0.08 -0.08)">
       <defs>
        <path id="DejaVuSans-35" d="M 691 4666 
L 3169 4666 
L 3169 4134 
L 1269 4134 
L 1269 2991 
Q 1406 3038 1543 3061 
Q 1681 3084 1819 3084 
Q 2600 3084 3056 2656 
Q 3513 2228 3513 1497 
Q 3513 744 3044 326 
Q 2575 -91 1722 -91 
Q 1428 -91 1123 -41 
Q 819 9 494 109 
L 494 744 
Q 775 591 1075 516 
Q 1375 441 1709 441 
Q 2250 441 2565 725 
Q 2881 1009 2881 1497 
Q 2881 1984 2565 2268 
Q 2250 2553 1709 2553 
Q 1456 2553 1204 2497 
Q 953 2441 691 2322 
L 691 4666 
z
" transform="scale(0.015625)"/>
       </defs>
       <use xlink:href="#DejaVuSans-35"/>
      </g>
     </g>
    </g>
    <g id="xtick_3">
     <g id="text_3">
      <!-- 10 -->
      <g transform="translate(281.010625 366.30265)scale(0.08 -0.08)">
       <defs>
        <path id="DejaVuSans-31" d="M 794 531 
L 1825 531 
L 1825 4091 
L 703 3866 
L 703 4441 
L 1819 4666 
L 2450 4666 
L 2450 531 
L 3481 531 
L 3481 0 
L 794 0 
L 794 531 
z
" transform="scale(0.015625)"/>
       </defs>
       <use xlink:href="#DejaVuSans-31"/>
       <use xlink:href="#DejaVuSans-30" x="63.623047"/>
      </g>
     </g>
    </g>
    <g id="xtick_4">
     <g id="text_4">
      <!-- 15 -->
      <g transform="translate(403.760625 366.30265)scale(0.08 -0.08)">
       <use xlink:href="#DejaVuSans-31"/>
       <use xlink:href="#DejaVuSans-35" x="63.623047"/>
      </g>
     </g>
    </g>
    <g id="xtick_5">
     <g id="text_5">
      <!-- 20 -->
      <g transform="translate(526.510625 366.30265)scale(0.08 -0.08)">
       <defs>
        <path id="DejaVuSans-32" d="M 1228 531 
L 3431 531 
L 3431 0 
L 469 0 
L 469 531 
Q 828 903 1448 1529 
Q 2069 2156 2228 2338 
Q 2531 2678 2651 2914 
Q 2772 3150 2772 3378 
Q 2772 3750 2511 3984 
Q 2250 4219 1831 4219 
Q 1534 4219 1204 4116 
Q 875 4013 500 3803 
L 500 4441 
Q 881 4594 1212 4672 
Q 1544 4750 1819 4750 
Q 2544 4750 2975 4387 
Q 3406 4025 3406 3419 
Q 3406 3131 3298 2873 
Q 3191 2616 2906 2266 
Q 2828 2175 2409 1742 
Q 1991 1309 1228 531 
z
" transform="scale(0.015625)"/>
       </defs>
       <use xlink:href="#DejaVuSans-32"/>
       <use xlink:href="#DejaVuSans-30" x="63.623047"/>
      </g>
     </g>
    </g>
    <g id="xtick_6">
     <g id="text_6">
      <!-- 25 -->
      <g transform="translate(649.260625 366.30265)scale(0.08 -0.08)">
       <use xlink:href="#DejaVuSans-32"/>
       <use xlink:href="#DejaVuSans-35" x="63.623047"/>
      </g>
     </g>
    </g>
    <g id="xtick_7">
     <g id="text_7">
      <!-- 30 -->
      <g transform="translate(772.010625 366.30265)scale(0.08 -0.08)">
       <defs>
        <path id="DejaVuSans-33" d="M 2597 2516 
Q 3050 2419 3304 2112 
Q 3559 1806 3559 1356 
Q 3559 666 3084 287 
Q 2609 -91 1734 -91 
Q 1441 -91 1130 -33 
Q 819 25 488 141 
L 488 750 
Q 750 597 1062 519 
Q 1375 441 1716 441 
Q 2309 441 2620 675 
Q 2931 909 2931 1356 
Q 2931 1769 2642 2001 
Q 2353 2234 1838 2234 
L 1294 2234 
L 1294 2753 
L 1863 2753 
Q 2328 2753 2575 2939 
Q 2822 3125 2822 3475 
Q 2822 3834 2567 4026 
Q 2313 4219 1838 4219 
Q 1578 4219 1281 4162 
Q 984 4106 628 3988 
L 628 4550 
Q 988 4650 1302 4700 
Q 1616 4750 1894 4750 
Q 2613 4750 3031 4423 
Q 3450 4097 3450 3541 
Q 3450 3153 3228 2886 
Q 3006 2619 2597 2516 
z
" transform="scale(0.015625)"/>
       </defs>
       <use xlink:href="#DejaVuSans-33"/>
       <use xlink:href="#DejaVuSans-30" x="63.623047"/>
      </g>
     </g>
    </g>
    <g id="xtick_8">
     <g id="text_8">
      <!-- 35 -->
      <g transform="translate(894.760625 366.30265)scale(0.08 -0.08)">
       <use xlink:href="#DejaVuSans-33"/>
       <use xlink:href="#DejaVuSans-35" x="63.623047"/>
      </g>
     </g>
    </g>
    <g id="text_9">
     <!-- Mean Sequence Quality (Phred Score) -->
     <g transform="translate(422.078438 379.564837)scale(0.1 -0.1)">
      <defs>
       <path id="DejaVuSans-4d" d="M 628 4666 
L 1569 4666 
L 2759 1491 
L 3956 4666 
L 4897 4666 
L 4897 0 
L 4281 0 
L 4281 4097 
L 3078 897 
L 2444 897 
L 1241 4097 
L 1241 0 
L 628 0 
L 628 4666 
z
" transform="scale(0.015625)"/>
       <path id="DejaVuSans-65" d="M 3597 1894 
L 3597 1613 
L 953 1613 
Q 991 1019 1311 708 
Q 1631 397 2203 397 
Q 2534 397 2845 478 
Q 3156 559 3463 722 
L 3463 178 
Q 3153 47 2828 -22 
Q 2503 -91 2169 -91 
Q 1331 -91 842 396 
Q 353 884 353 1716 
Q 353 2575 817 3079 
Q 1281 3584 2069 3584 
Q 2775 3584 3186 3129 
Q 3597 2675 3597 1894 
z
M 3022 2063 
Q 3016 2534 2758 2815 
Q 2500 3097 2075 3097 
Q 1594 3097 1305 2825 
Q 1016 2553 972 2059 
L 3022 2063 
z
" transform="scale(0.015625)"/>
       <path id="DejaVuSans-61" d="M 2194 1759 
Q 1497 1759 1228 1600 
Q 959 1441 959 1056 
Q 959 750 1161 570 
Q 1363 391 1709 391 
Q 2188 391 2477 730 
Q 2766 1069 2766 1631 
L 2766 1759 
L 2194 1759 
z
M 3341 1997 
L 3341 0 
L 2766 0 
L 2766 531 
Q 2569 213 2275 61 
Q 1981 -91 1556 -91 
Q 1019 -91 701 211 
Q 384 513 384 1019 
Q 384 1609 779 1909 
Q 1175 2209 1959 2209 
L 2766 2209 
L 2766 2266 
Q 2766 2663 2505 2880 
Q 2244 3097 1772 3097 
Q 1472 3097 1187 3025 
Q 903 2953 641 2809 
L 641 3341 
Q 956 3463 1253 3523 
Q 1550 3584 1831 3584 
Q 2591 3584 2966 3190 
Q 3341 2797 3341 1997 
z
" transform="scale(0.015625)"/>
       <path id="DejaVuSans-6e" d="M 3513 2113 
L 3513 0 
L 2938 0 
L 2938 2094 
Q 2938 2591 2744 2837 
Q 2550 3084 2163 3084 
Q 1697 3084 1428 2787 
Q 1159 2491 1159 1978 
L 1159 0 
L 581 0 
L 581 3500 
L 1159 3500 
L 1159 2956 
Q 1366 3272 1645 3428 
Q 1925 3584 2291 3584 
Q 2894 3584 3203 3211 
Q 3513 2838 3513 2113 
z
" transform="scale(0.015625)"/>
       <path id="DejaVuSans-20" transform="scale(0.015625)"/>
       <path id="DejaVuSans-53" d="M 3425 4513 
L 3425 3897 
Q 3066 4069 2747 4153 
Q 2428 4238 2131 4238 
Q 1616 4238 1336 4038 
Q 1056 3838 1056 3469 
Q 1056 3159 1242 3001 
Q 1428 2844 1947 2747 
L 2328 2669 
Q 3034 2534 3370 2195 
Q 3706 1856 3706 1288 
Q 3706 609 3251 259 
Q 2797 -91 1919 -91 
Q 1588 -91 1214 -16 
Q 841 59 441 206 
L 441 856 
Q 825 641 1194 531 
Q 1563 422 1919 422 
Q 2459 422 2753 634 
Q 3047 847 3047 1241 
Q 3047 1584 2836 1778 
Q 2625 1972 2144 2069 
L 1759 2144 
Q 1053 2284 737 2584 
Q 422 2884 422 3419 
Q 422 4038 858 4394 
Q 1294 4750 2059 4750 
Q 2388 4750 2728 4690 
Q 3069 4631 3425 4513 
z
" transform="scale(0.015625)"/>
       <path id="DejaVuSans-71" d="M 947 1747 
Q 947 1113 1208 752 
Q 1469 391 1925 391 
Q 2381 391 2643 752 
Q 2906 1113 2906 1747 
Q 2906 2381 2643 2742 
Q 2381 3103 1925 3103 
Q 1469 3103 1208 2742 
Q 947 2381 947 1747 
z
M 2906 525 
Q 2725 213 2448 61 
Q 2172 -91 1784 -91 
Q 1150 -91 751 415 
Q 353 922 353 1747 
Q 353 2572 751 3078 
Q 1150 3584 1784 3584 
Q 2172 3584 2448 3432 
Q 2725 3281 2906 2969 
L 2906 3500 
L 3481 3500 
L 3481 -1331 
L 2906 -1331 
L 2906 525 
z
" transform="scale(0.015625)"/>
       <path id="DejaVuSans-75" d="M 544 1381 
L 544 3500 
L 1119 3500 
L 1119 1403 
Q 1119 906 1312 657 
Q 1506 409 1894 409 
Q 2359 409 2629 706 
Q 2900 1003 2900 1516 
L 2900 3500 
L 3475 3500 
L 3475 0 
L 2900 0 
L 2900 538 
Q 2691 219 2414 64 
Q 2138 -91 1772 -91 
Q 1169 -91 856 284 
Q 544 659 544 1381 
z
M 1991 3584 
L 1991 3584 
z
" transform="scale(0.015625)"/>
       <path id="DejaVuSans-63" d="M 3122 3366 
L 3122 2828 
Q 2878 2963 2633 3030 
Q 2388 3097 2138 3097 
Q 1578 3097 1268 2742 
Q 959 2388 959 1747 
Q 959 1106 1268 751 
Q 1578 397 2138 397 
Q 2388 397 2633 464 
Q 2878 531 3122 666 
L 3122 134 
Q 2881 22 2623 -34 
Q 2366 -91 2075 -91 
Q 1284 -91 818 406 
Q 353 903 353 1747 
Q 353 2603 823 3093 
Q 1294 3584 2113 3584 
Q 2378 3584 2631 3529 
Q 2884 3475 3122 3366 
z
" transform="scale(0.015625)"/>
       <path id="DejaVuSans-51" d="M 2522 4238 
Q 1834 4238 1429 3725 
Q 1025 3213 1025 2328 
Q 1025 1447 1429 934 
Q 1834 422 2522 422 
Q 3209 422 3611 934 
Q 4013 1447 4013 2328 
Q 4013 3213 3611 3725 
Q 3209 4238 2522 4238 
z
M 3406 84 
L 4238 -825 
L 3475 -825 
L 2784 -78 
Q 2681 -84 2626 -87 
Q 2572 -91 2522 -91 
Q 1538 -91 948 567 
Q 359 1225 359 2328 
Q 359 3434 948 4092 
Q 1538 4750 2522 4750 
Q 3503 4750 4090 4092 
Q 4678 3434 4678 2328 
Q 4678 1516 4351 937 
Q 4025 359 3406 84 
z
" transform="scale(0.015625)"/>
       <path id="DejaVuSans-6c" d="M 603 4863 
L 1178 4863 
L 1178 0 
L 603 0 
L 603 4863 
z
" transform="scale(0.015625)"/>
       <path id="DejaVuSans-69" d="M 603 3500 
L 1178 3500 
L 1178 0 
L 603 0 
L 603 3500 
z
M 603 4863 
L 1178 4863 
L 1178 4134 
L 603 4134 
L 603 4863 
z
" transform="scale(0.015625)"/>
       <path id="DejaVuSans-74" d="M 1172 4494 
L 1172 3500 
L 2356 3500 
L 2356 3053 
L 1172 3053 
L 1172 1153 
Q 1172 725 1289 603 
Q 1406 481 1766 481 
L 2356 481 
L 2356 0 
L 1766 0 
Q 1100 0 847 248 
Q 594 497 594 1153 
L 594 3053 
L 172 3053 
L 172 3500 
L 594 3500 
L 594 4494 
L 1172 4494 
z
" transform="scale(0.015625)"/>
       <path id="DejaVuSans-79" d="M 2059 -325 
Q 1816 -950 1584 -1140 
Q 1353 -1331 966 -1331 
L 506 -1331 
L 506 -850 
L 844 -850 
Q 1081 -850 1212 -737 
Q 1344 -625 1503 -206 
L 1606 56 
L 191 3500 
L 800 3500 
L 1894 763 
L 2988 3500 
L 3597 3500 
L 2059 -325 
z
" transform="scale(0.015625)"/>
       <path id="DejaVuSans-28" d="M 1984 4856 
Q 1566 4138 1362 3434 
Q 1159 2731 1159 2009 
Q 1159 1288 1364 580 
Q 1569 -128 1984 -844 
L 1484 -844 
Q 1016 -109 783 600 
Q 550 1309 550 2009 
Q 550 2706 781 3412 
Q 1013 4119 1484 4856 
L 1984 4856 
z
" transform="scale(0.015625)"/>
       <path id="DejaVuSans-50" d="M 1259 4147 
L 1259 2394 
L 2053 2394 
Q 2494 2394 2734 2622 
Q 2975 2850 2975 3272 
Q 2975 3691 2734 3919 
Q 2494 4147 2053 4147 
L 1259 4147 
z
M 628 4666 
L 2053 4666 
Q 2838 4666 3239 4311 
Q 3641 3956 3641 3272 
Q 3641 2581 3239 2228 
Q 2838 1875 2053 1875 
L 1259 1875 
L 1259 0 
L 628 0 
L 628 4666 
z
" transform="scale(0.015625)"/>
       <path id="DejaVuSans-68" d="M 3513 2113 
L 3513 0 
L 2938 0 
L 2938 2094 
Q 2938 2591 2744 2837 
Q 2550 3084 2163 3084 
Q 1697 3084 1428 2787 
Q 1159 2491 1159 1978 
L 1159 0 
L 581 0 
L 581 4863 
L 1159 4863 
L 1159 2956 
Q 1366 3272 1645 3428 
Q 1925 3584 2291 3584 
Q 2894 3584 3203 3211 
Q 3513 2838 3513 2113 
z
" transform="scale(0.015625)"/>
       <path id="DejaVuSans-72" d="M 2631 2963 
Q 2534 3019 2420 3045 
Q 2306 3072 2169 3072 
Q 1681 3072 1420 2755 
Q 1159 2438 1159 1844 
L 1159 0 
L 581 0 
L 581 3500 
L 1159 3500 
L 1159 2956 
Q 1341 3275 1631 3429 
Q 1922 3584 2338 3584 
Q 2397 3584 2469 3576 
Q 2541 3569 2628 3553 
L 2631 2963 
z
" transform="scale(0.015625)"/>
       <path id="DejaVuSans-64" d="M 2906 2969 
L 2906 4863 
L 3481 4863 
L 3481 0 
L 2906 0 
L 2906 525 
Q 2725 213 2448 61 
Q 2172 -91 1784 -91 
Q 1150 -91 751 415 
Q 353 922 353 1747 
Q 353 2572 751 3078 
Q 1150 3584 1784 3584 
Q 2172 3584 2448 3432 
Q 2725 3281 2906 2969 
z
M 947 1747 
Q 947 1113 1208 752 
Q 1469 391 1925 391 
Q 2381 391 2643 752 
Q 2906 1113 2906 1747 
Q 2906 2381 2643 2742 
Q 2381 3103 1925 3103 
Q 1469 3103 1208 2742 
Q 947 2381 947 1747 
z
" transform="scale(0.015625)"/>
       <path id="DejaVuSans-6f" d="M 1959 3097 
Q 1497 3097 1228 2736 
Q 959 2375 959 1747 
Q 959 1119 1226 758 
Q 1494 397 1959 397 
Q 2419 397 2687 759 
Q 2956 1122 2956 1747 
Q 2956 2369 2687 2733 
Q 2419 3097 1959 3097 
z
M 1959 3584 
Q 2709 3584 3137 3096 
Q 3566 2609 3566 1747 
Q 3566 888 3137 398 
Q 2709 -91 1959 -91 
Q 1206 -91 779 398 
Q 353 888 353 1747 
Q 353 2609 779 3096 
Q 1206 3584 1959 3584 
z
" transform="scale(0.015625)"/>
       <path id="DejaVuSans-29" d="M 513 4856 
L 1013 4856 
Q 1481 4119 1714 3412 
Q 1947 2706 1947 2009 
Q 1947 1309 1714 600 
Q 1481 -109 1013 -844 
L 513 -844 
Q 928 -128 1133 580 
Q 1338 1288 1338 2009 
Q 1338 2731 1133 3434 
Q 928 4138 513 4856 
z
" transform="scale(0.015625)"/>
      </defs>
      <use xlink:href="#DejaVuSans-4d"/>
      <use xlink:href="#DejaVuSans-65" x="86.279297"/>
      <use xlink:href="#DejaVuSans-61" x="147.802734"/>
      <use xlink:href="#DejaVuSans-6e" x="209.082031"/>
      <use xlink:href="#DejaVuSans-20" x="272.460938"/>
      <use xlink:href="#DejaVuSans-53" x="304.248047"/>
      <use xlink:href="#DejaVuSans-65" x="367.724609"/>
      <use xlink:href="#DejaVuSans-71" x="429.248047"/>
      <use xlink:href="#DejaVuSans-75" x="492.724609"/>
      <use xlink:href="#DejaVuSans-65" x="556.103516"/>
      <use xlink:href="#DejaVuSans-6e" x="617.626953"/>
      <use xlink:href="#DejaVuSans-63" x="681.005859"/>
      <use xlink:href="#DejaVuSans-65" x="735.986328"/>
      <use xlink:href="#DejaVuSans-20" x="797.509766"/>
      <use xlink:href="#DejaVuSans-51" x="829.296875"/>
      <use xlink:href="#DejaVuSans-75" x="908.007812"/>
      <use xlink:href="#DejaVuSans-61" x="971.386719"/>
      <use xlink:href="#DejaVuSans-6c" x="1032.666016"/>
      <use xlink:href="#DejaVuSans-69" x="1060.449219"/>
      <use xlink:href="#DejaVuSans-74" x="1088.232422"/>
      <use xlink:href="#DejaVuSans-79" x="1127.441406"/>
      <use xlink:href="#DejaVuSans-20" x="1186.621094"/>
      <use xlink:href="#DejaVuSans-28" x="1218.408203"/>
      <use xlink:href="#DejaVuSans-50" x="1257.421875"/>
      <use xlink:href="#DejaVuSans-68" x="1317.724609"/>
      <use xlink:href="#DejaVuSans-72" x="1381.103516"/>
      <use xlink:href="#DejaVuSans-65" x="1419.966797"/>
      <use xlink:href="#DejaVuSans-64" x="1481.490234"/>
      <use xlink:href="#DejaVuSans-20" x="1544.966797"/>
      <use xlink:href="#DejaVuSans-53" x="1576.753906"/>
      <use xlink:href="#DejaVuSans-63" x="1640.230469"/>
      <use xlink:href="#DejaVuSans-6f" x="1695.210938"/>
      <use xlink:href="#DejaVuSans-72" x="1756.392578"/>
      <use xlink:href="#DejaVuSans-65" x="1795.255859"/>
      <use xlink:href="#DejaVuSans-29" x="1856.779297"/>
     </g>
    </g>
   </g>
   <g id="matplotlib.axis_2">
    <g id="ytick_1">
     <g id="line2d_1">
      <path d="M 40.600625 353.2239 
L 993.140625 353.2239 
" clip-path="url(#p39a7360b9f)" style="fill: none; stroke: #dedede; stroke-linecap: square"/>
     </g>
     <g id="text_10">
      <!-- 0.0 -->
      <g transform="translate(20.878125 356.263275)scale(0.08 -0.08)">
       <defs>
        <path id="DejaVuSans-2e" d="M 684 794 
L 1344 794 
L 1344 0 
L 684 0 
L 684 794 
z
" transform="scale(0.015625)"/>
       </defs>
       <use xlink:href="#DejaVuSans-30"/>
       <use xlink:href="#DejaVuSans-2e" x="63.623047"/>
       <use xlink:href="#DejaVuSans-30" x="95.410156"/>
      </g>
     </g>
    </g>
    <g id="ytick_2">
     <g id="line2d_2">
      <path d="M 40.600625 309.142842 
L 993.140625 309.142842 
" clip-path="url(#p39a7360b9f)" style="fill: none; stroke: #dedede; stroke-linecap: square"/>
     </g>
     <g id="text_11">
      <!-- 0.5 -->
      <g transform="translate(20.878125 312.182217)scale(0.08 -0.08)">
       <use xlink:href="#DejaVuSans-30"/>
       <use xlink:href="#DejaVuSans-2e" x="63.623047"/>
       <use xlink:href="#DejaVuSans-35" x="95.410156"/>
      </g>
     </g>
    </g>
    <g id="ytick_3">
     <g id="line2d_3">
      <path d="M 40.600625 265.061784 
L 993.140625 265.061784 
" clip-path="url(#p39a7360b9f)" style="fill: none; stroke: #dedede; stroke-linecap: square"/>
     </g>
     <g id="text_12">
      <!-- 1.0 -->
      <g transform="translate(20.878125 268.101159)scale(0.08 -0.08)">
       <use xlink:href="#DejaVuSans-31"/>
       <use xlink:href="#DejaVuSans-2e" x="63.623047"/>
       <use xlink:href="#DejaVuSans-30" x="95.410156"/>
      </g>
     </g>
    </g>
    <g id="ytick_4">
     <g id="line2d_4">
      <path d="M 40.600625 220.980726 
L 993.140625 220.980726 
" clip-path="url(#p39a7360b9f)" style="fill: none; stroke: #dedede; stroke-linecap: square"/>
     </g>
     <g id="text_13">
      <!-- 1.5 -->
      <g transform="translate(20.878125 224.020101)scale(0.08 -0.08)">
       <use xlink:href="#DejaVuSans-31"/>
       <use xlink:href="#DejaVuSans-2e" x="63.623047"/>
       <use xlink:href="#DejaVuSans-35" x="95.410156"/>
      </g>
     </g>
    </g>
    <g id="ytick_5">
     <g id="line2d_5">
      <path d="M 40.600625 176.899669 
L 993.140625 176.899669 
" clip-path="url(#p39a7360b9f)" style="fill: none; stroke: #dedede; stroke-linecap: square"/>
     </g>
     <g id="text_14">
      <!-- 2.0 -->
      <g transform="translate(20.878125 179.939044)scale(0.08 -0.08)">
       <use xlink:href="#DejaVuSans-32"/>
       <use xlink:href="#DejaVuSans-2e" x="63.623047"/>
       <use xlink:href="#DejaVuSans-30" x="95.410156"/>
      </g>
     </g>
    </g>
    <g id="ytick_6">
     <g id="line2d_6">
      <path d="M 40.600625 132.818611 
L 993.140625 132.818611 
" clip-path="url(#p39a7360b9f)" style="fill: none; stroke: #dedede; stroke-linecap: square"/>
     </g>
     <g id="text_15">
      <!-- 2.5 -->
      <g transform="translate(20.878125 135.857986)scale(0.08 -0.08)">
       <use xlink:href="#DejaVuSans-32"/>
       <use xlink:href="#DejaVuSans-2e" x="63.623047"/>
       <use xlink:href="#DejaVuSans-35" x="95.410156"/>
      </g>
     </g>
    </g>
    <g id="ytick_7">
     <g id="line2d_7">
      <path d="M 40.600625 88.737553 
L 993.140625 88.737553 
" clip-path="url(#p39a7360b9f)" style="fill: none; stroke: #dedede; stroke-linecap: square"/>
     </g>
     <g id="text_16">
      <!-- 3.0 -->
      <g transform="translate(20.878125 91.776928)scale(0.08 -0.08)">
       <use xlink:href="#DejaVuSans-33"/>
       <use xlink:href="#DejaVuSans-2e" x="63.623047"/>
       <use xlink:href="#DejaVuSans-30" x="95.410156"/>
      </g>
     </g>
    </g>
    <g id="ytick_8">
     <g id="line2d_8">
      <path d="M 40.600625 44.656495 
L 993.140625 44.656495 
" clip-path="url(#p39a7360b9f)" style="fill: none; stroke: #dedede; stroke-linecap: square"/>
     </g>
     <g id="text_17">
      <!-- 3.5 -->
      <g transform="translate(20.878125 47.69587)scale(0.08 -0.08)">
       <use xlink:href="#DejaVuSans-33"/>
       <use xlink:href="#DejaVuSans-2e" x="63.623047"/>
       <use xlink:href="#DejaVuSans-35" x="95.410156"/>
      </g>
     </g>
    </g>
    <g id="text_18">
     <!-- Count -->
     <g transform="translate(14.798438 209.088338)rotate(-90)scale(0.1 -0.1)">
      <defs>
       <path id="DejaVuSans-43" d="M 4122 4306 
L 4122 3641 
Q 3803 3938 3442 4084 
Q 3081 4231 2675 4231 
Q 1875 4231 1450 3742 
Q 1025 3253 1025 2328 
Q 1025 1406 1450 917 
Q 1875 428 2675 428 
Q 3081 428 3442 575 
Q 3803 722 4122 1019 
L 4122 359 
Q 3791 134 3420 21 
Q 3050 -91 2638 -91 
Q 1578 -91 968 557 
Q 359 1206 359 2328 
Q 359 3453 968 4101 
Q 1578 4750 2638 4750 
Q 3056 4750 3426 4639 
Q 3797 4528 4122 4306 
z
" transform="scale(0.015625)"/>
      </defs>
      <use xlink:href="#DejaVuSans-43"/>
      <use xlink:href="#DejaVuSans-6f" x="69.824219"/>
      <use xlink:href="#DejaVuSans-75" x="131.005859"/>
      <use xlink:href="#DejaVuSans-6e" x="194.384766"/>
      <use xlink:href="#DejaVuSans-74" x="257.763672"/>
     </g>
    </g>
    <g id="text_19">
     <!-- 1e7 -->
     <g transform="translate(40.600625 32.2559)scale(0.1 -0.1)">
      <defs>
       <path id="DejaVuSans-37" d="M 525 4666 
L 3525 4666 
L 3525 4397 
L 1831 0 
L 1172 0 
L 2766 4134 
L 525 4134 
L 525 4666 
z
" transform="scale(0.015625)"/>
      </defs>
      <use xlink:href="#DejaVuSans-31"/>
      <use xlink:href="#DejaVuSans-65" x="63.623047"/>
      <use xlink:href="#DejaVuSans-37" x="125.146484"/>
     </g>
    </g>
   </g>
   <g id="line2d_9">
    <path d="M 654.350625 353.223874 
L 678.900625 353.217279 
L 703.450625 353.053095 
L 728.000625 352.060619 
L 752.550625 349.848481 
L 777.100625 347.381776 
L 801.650625 345.280026 
L 826.200625 342.473165 
L 850.750625 337.984003 
L 875.300625 330.048813 
L 899.850625 314.329887 
L 924.400625 278.147625 
L 948.950625 174.559564 
L 973.500625 349.90159 
" clip-path="url(#p39a7360b9f)" style="fill: none; stroke: #5cb85c; stroke-linecap: square"/>
   </g>
   <g id="line2d_10">
    <path d="M 580.700625 353.223812 
L 605.250625 353.214405 
L 629.800625 353.106988 
L 654.350625 352.840659 
L 678.900625 352.423097 
L 703.450625 351.770213 
L 728.000625 351.173822 
L 752.550625 350.59279 
L 777.100625 349.851514 
L 801.650625 348.780953 
L 826.200625 347.170363 
L 850.750625 344.528374 
L 875.300625 339.69917 
L 899.850625 328.572618 
L 924.400625 291.107113 
L 948.950625 140.024753 
L 973.500625 333.100853 
" clip-path="url(#p39a7360b9f)" style="fill: none; stroke: #5cb85c; stroke-linecap: square"/>
   </g>
   <g id="line2d_11">
    <path d="M 654.350625 353.223874 
L 678.900625 353.216336 
L 703.450625 353.025235 
L 728.000625 351.948018 
L 752.550625 349.683142 
L 777.100625 347.174251 
L 801.650625 344.987443 
L 826.200625 342.055479 
L 850.750625 337.308619 
L 875.300625 328.880471 
L 899.850625 311.470683 
L 924.400625 269.505631 
L 948.950625 141.029201 
L 973.500625 349.170946 
" clip-path="url(#p39a7360b9f)" style="fill: none; stroke: #5cb85c; stroke-linecap: square"/>
   </g>
   <g id="line2d_12">
    <path d="M 580.700625 353.223829 
L 605.250625 353.212289 
L 629.800625 353.079446 
L 654.350625 352.749755 
L 678.900625 352.238926 
L 703.450625 351.459714 
L 728.000625 350.731284 
L 752.550625 350.050734 
L 777.100625 349.15342 
L 801.650625 347.874708 
L 826.200625 345.949326 
L 850.750625 342.83686 
L 875.300625 337.073438 
L 899.850625 323.952015 
L 924.400625 279.902034 
L 948.950625 114.692876 
L 973.500625 334.170374 
" clip-path="url(#p39a7360b9f)" style="fill: none; stroke: #5cb85c; stroke-linecap: square"/>
   </g>
   <g id="line2d_13">
    <path d="M 654.350625 353.223856 
L 678.900625 353.217244 
L 703.450625 353.027598 
L 728.000625 351.619314 
L 752.550625 347.678997 
L 777.100625 342.892023 
L 801.650625 338.762562 
L 826.200625 333.382258 
L 850.750625 325.026552 
L 875.300625 311.278763 
L 899.850625 287.460807 
L 924.400625 246.633954 
L 948.950625 218.974791 
L 973.500625 352.868474 
" clip-path="url(#p39a7360b9f)" style="fill: none; stroke: #5cb85c; stroke-linecap: square"/>
   </g>
   <g id="line2d_14">
    <path d="M 580.700625 353.223874 
L 605.250625 353.213021 
L 629.800625 353.086984 
L 654.350625 352.768587 
L 678.900625 352.288306 
L 703.450625 351.526726 
L 728.000625 350.804564 
L 752.550625 350.110058 
L 777.100625 349.198841 
L 801.650625 347.867064 
L 826.200625 345.901208 
L 850.750625 342.670181 
L 875.300625 336.693547 
L 899.850625 322.819784 
L 924.400625 275.69075 
L 948.950625 102.71399 
L 973.500625 335.141409 
" clip-path="url(#p39a7360b9f)" style="fill: none; stroke: #5cb85c; stroke-linecap: square"/>
   </g>
   <g id="line2d_15">
    <path d="M 654.350625 353.223856 
L 678.900625 353.216724 
L 703.450625 353.013783 
L 728.000625 351.690197 
L 752.550625 348.306632 
L 777.100625 344.266982 
L 801.650625 340.944107 
L 826.200625 336.649634 
L 850.750625 329.865947 
L 875.300625 318.327801 
L 899.850625 296.411069 
L 924.400625 249.953072 
L 948.950625 152.878128 
L 973.500625 350.90409 
" clip-path="url(#p39a7360b9f)" style="fill: none; stroke: #5cb85c; stroke-linecap: square"/>
   </g>
   <g id="line2d_16">
    <path d="M 580.700625 353.223856 
L 605.250625 353.213506 
L 629.800625 353.085389 
L 654.350625 352.769574 
L 678.900625 352.264899 
L 703.450625 351.487697 
L 728.000625 350.752302 
L 752.550625 350.050893 
L 777.100625 349.116524 
L 801.650625 347.797601 
L 826.200625 345.795052 
L 850.750625 342.476823 
L 875.300625 336.396476 
L 899.850625 322.260298 
L 924.400625 274.00003 
L 948.950625 76.624616 
L 973.500625 328.008186 
" clip-path="url(#p39a7360b9f)" style="fill: none; stroke: #5cb85c; stroke-linecap: square"/>
   </g>
   <g id="line2d_17">
    <path d="M 654.350625 353.223838 
L 678.900625 353.216821 
L 703.450625 353.06668 
L 728.000625 352.383124 
L 752.550625 351.187091 
L 777.100625 349.912522 
L 801.650625 348.68363 
L 826.200625 346.978381 
L 850.750625 344.115149 
L 875.300625 338.695497 
L 899.850625 326.598976 
L 924.400625 292.927193 
L 948.950625 143.562972 
L 973.500625 345.890593 
" clip-path="url(#p39a7360b9f)" style="fill: none; stroke: #5cb85c; stroke-linecap: square"/>
   </g>
   <g id="line2d_18">
    <path d="M 580.700625 353.223821 
L 605.250625 353.212659 
L 629.800625 353.082664 
L 654.350625 352.77646 
L 678.900625 352.303867 
L 703.450625 351.587117 
L 728.000625 350.939822 
L 752.550625 350.357573 
L 777.100625 349.592749 
L 801.650625 348.551061 
L 826.200625 347.012103 
L 850.750625 344.534219 
L 875.300625 340.021015 
L 899.850625 329.948352 
L 924.400625 296.313614 
L 948.950625 154.275498 
L 973.500625 332.381574 
" clip-path="url(#p39a7360b9f)" style="fill: none; stroke: #5cb85c; stroke-linecap: square"/>
   </g>
   <g id="line2d_19">
    <path d="M 654.350625 353.223847 
L 678.900625 353.219245 
L 703.450625 353.076934 
L 728.000625 352.043727 
L 752.550625 349.196831 
L 777.100625 345.679145 
L 801.650625 342.85779 
L 826.200625 339.23981 
L 850.750625 333.5898 
L 875.300625 324.016144 
L 899.850625 306.398364 
L 924.400625 271.458246 
L 948.950625 214.083839 
L 973.500625 352.159148 
" clip-path="url(#p39a7360b9f)" style="fill: none; stroke: #5cb85c; stroke-linecap: square"/>
   </g>
   <g id="line2d_20">
    <path d="M 580.700625 353.223838 
L 605.250625 353.218408 
L 629.800625 353.149571 
L 654.350625 352.968873 
L 678.900625 352.659266 
L 703.450625 352.131307 
L 728.000625 351.611353 
L 752.550625 351.129477 
L 777.100625 350.472554 
L 801.650625 349.538106 
L 826.200625 348.125397 
L 850.750625 345.772297 
L 875.300625 341.358187 
L 899.850625 330.952554 
L 924.400625 294.518519 
L 948.950625 134.952152 
L 973.500625 334.132711 
" clip-path="url(#p39a7360b9f)" style="fill: none; stroke: #5cb85c; stroke-linecap: square"/>
   </g>
   <g id="line2d_21">
    <path d="M 654.350625 353.223865 
L 678.900625 353.216671 
L 703.450625 353.035092 
L 728.000625 351.999637 
L 752.550625 349.672562 
L 777.100625 347.003349 
L 801.650625 344.64555 
L 826.200625 341.468346 
L 850.750625 336.296165 
L 875.300625 326.979105 
L 899.850625 308.172962 
L 924.400625 264.322474 
L 948.950625 153.651186 
L 973.500625 350.513902 
" clip-path="url(#p39a7360b9f)" style="fill: none; stroke: #5cb85c; stroke-linecap: square"/>
   </g>
   <g id="line2d_22">
    <path d="M 580.700625 353.223856 
L 605.250625 353.213259 
L 629.800625 353.083158 
L 654.350625 352.766004 
L 678.900625 352.25439 
L 703.450625 351.445591 
L 728.000625 350.669253 
L 752.550625 349.942303 
L 777.100625 349.004532 
L 801.650625 347.675532 
L 826.200625 345.654936 
L 850.750625 342.368137 
L 875.300625 336.33367 
L 899.850625 322.543202 
L 924.400625 276.235486 
L 948.950625 119.430153 
L 973.500625 338.029106 
" clip-path="url(#p39a7360b9f)" style="fill: none; stroke: #5cb85c; stroke-linecap: square"/>
   </g>
   <g id="line2d_23">
    <path d="M 654.350625 353.223865 
L 678.900625 353.219977 
L 703.450625 353.093059 
L 728.000625 352.20561 
L 752.550625 349.760328 
L 777.100625 346.512004 
L 801.650625 343.911389 
L 826.200625 340.572592 
L 850.750625 335.222968 
L 875.300625 325.666494 
L 899.850625 306.283806 
L 924.400625 259.732058 
L 948.950625 138.995346 
L 973.500625 350.9814 
" clip-path="url(#p39a7360b9f)" style="fill: none; stroke: #5cb85c; stroke-linecap: square"/>
   </g>
   <g id="line2d_24">
    <path d="M 580.700625 353.223891 
L 605.250625 353.22211 
L 629.800625 353.196614 
L 654.350625 353.123157 
L 678.900625 352.946295 
L 703.450625 352.541137 
L 728.000625 352.12555 
L 752.550625 351.772143 
L 777.100625 351.315631 
L 801.650625 350.639939 
L 826.200625 349.59036 
L 850.750625 347.817164 
L 875.300625 344.353583 
L 899.850625 335.702984 
L 924.400625 301.59255 
L 948.950625 50.397233 
L 973.500625 315.492251 
" clip-path="url(#p39a7360b9f)" style="fill: none; stroke: #5cb85c; stroke-linecap: square"/>
   </g>
   <g id="line2d_25">
    <path d="M 654.350625 353.223882 
L 678.900625 353.216459 
L 703.450625 353.019575 
L 728.000625 351.779311 
L 752.550625 348.826092 
L 777.100625 345.324874 
L 801.650625 342.247258 
L 826.200625 338.064389 
L 850.750625 331.303809 
L 875.300625 319.431343 
L 899.850625 296.515294 
L 924.400625 247.909898 
L 948.950625 155.398754 
L 973.500625 351.283769 
" clip-path="url(#p39a7360b9f)" style="fill: none; stroke: #5cb85c; stroke-linecap: square"/>
   </g>
   <g id="line2d_26">
    <path d="M 580.700625 353.223794 
L 605.250625 353.210111 
L 629.800625 353.050229 
L 654.350625 352.664035 
L 678.900625 352.080076 
L 703.450625 351.19827 
L 728.000625 350.356656 
L 752.550625 349.549391 
L 777.100625 348.51383 
L 801.650625 347.024772 
L 826.200625 344.81654 
L 850.750625 341.256827 
L 875.300625 334.736516 
L 899.850625 319.869421 
L 924.400625 270.318045 
L 948.950625 91.388738 
L 973.500625 333.959155 
" clip-path="url(#p39a7360b9f)" style="fill: none; stroke: #5cb85c; stroke-linecap: square"/>
   </g>
   <g id="line2d_27">
    <path d="M 654.350625 353.223882 
L 678.900625 353.216151 
L 703.450625 353.019479 
L 728.000625 351.892731 
L 752.550625 349.443835 
L 777.100625 346.724122 
L 801.650625 344.402346 
L 826.200625 341.256378 
L 850.750625 336.158694 
L 875.300625 326.964258 
L 899.850625 308.050328 
L 924.400625 262.768291 
L 948.950625 136.092696 
L 973.500625 349.789642 
" clip-path="url(#p39a7360b9f)" style="fill: none; stroke: #5cb85c; stroke-linecap: square"/>
   </g>
   <g id="line2d_28">
    <path d="M 580.700625 353.223882 
L 605.250625 353.213911 
L 629.800625 353.100799 
L 654.350625 352.807854 
L 678.900625 352.329672 
L 703.450625 351.542216 
L 728.000625 350.811555 
L 752.550625 350.125822 
L 777.100625 349.22856 
L 801.650625 347.943933 
L 826.200625 346.008007 
L 850.750625 342.850313 
L 875.300625 336.995935 
L 899.850625 323.496578 
L 924.400625 277.591049 
L 948.950625 98.380937 
L 973.500625 333.023508 
" clip-path="url(#p39a7360b9f)" style="fill: none; stroke: #5cb85c; stroke-linecap: square"/>
   </g>
   <g id="line2d_29">
    <path d="M 654.350625 353.223847 
L 678.900625 353.215771 
L 703.450625 353.01924 
L 728.000625 351.895914 
L 752.550625 349.451487 
L 777.100625 346.673411 
L 801.650625 344.233136 
L 826.200625 340.859657 
L 850.750625 335.300136 
L 875.300625 325.218049 
L 899.850625 304.70127 
L 924.400625 257.388665 
L 948.950625 147.414448 
L 973.500625 350.887022 
" clip-path="url(#p39a7360b9f)" style="fill: none; stroke: #5cb85c; stroke-linecap: square"/>
   </g>
   <g id="line2d_30">
    <path d="M 580.700625 353.223838 
L 605.250625 353.211672 
L 629.800625 353.061382 
L 654.350625 352.700587 
L 678.900625 352.127913 
L 703.450625 351.244916 
L 728.000625 350.432194 
L 752.550625 349.666268 
L 777.100625 348.702568 
L 801.650625 347.310796 
L 826.200625 345.213234 
L 850.750625 341.853685 
L 875.300625 335.730341 
L 899.850625 321.762341 
L 924.400625 275.163928 
L 948.950625 106.59486 
L 973.500625 335.153232 
" clip-path="url(#p39a7360b9f)" style="fill: none; stroke: #5cb85c; stroke-linecap: square"/>
   </g>
   <g id="line2d_31">
    <path d="M 654.350625 353.223882 
L 678.900625 353.217156 
L 703.450625 353.022159 
L 728.000625 351.688936 
L 752.550625 348.381596 
L 777.100625 344.558684 
L 801.650625 341.243003 
L 826.200625 336.786047 
L 850.750625 329.757349 
L 875.300625 317.64018 
L 899.850625 294.849145 
L 924.400625 247.713596 
L 948.950625 151.268103 
L 973.500625 350.876998 
" clip-path="url(#p39a7360b9f)" style="fill: none; stroke: #5cb85c; stroke-linecap: square"/>
   </g>
   <g id="line2d_32">
    <path d="M 580.700625 353.223847 
L 605.250625 353.207467 
L 629.800625 353.01708 
L 654.350625 352.558223 
L 678.900625 351.880168 
L 703.450625 350.893299 
L 728.000625 350.001407 
L 752.550625 349.136951 
L 777.100625 347.997905 
L 801.650625 346.403079 
L 826.200625 344.01996 
L 850.750625 340.173253 
L 875.300625 333.169619 
L 899.850625 317.363184 
L 924.400625 265.843941 
L 948.950625 90.585457 
L 973.500625 334.42369 
" clip-path="url(#p39a7360b9f)" style="fill: none; stroke: #5cb85c; stroke-linecap: square"/>
   </g>
   <g id="line2d_33">
    <path d="M 654.350625 353.223874 
L 678.900625 353.220497 
L 703.450625 353.120803 
L 728.000625 352.490003 
L 752.550625 350.999543 
L 777.100625 349.299072 
L 801.650625 347.841197 
L 826.200625 345.871074 
L 850.750625 342.711282 
L 875.300625 337.174225 
L 899.850625 326.519754 
L 924.400625 303.660834 
L 948.950625 254.639629 
L 973.500625 351.993095 
" clip-path="url(#p39a7360b9f)" style="fill: none; stroke: #5cb85c; stroke-linecap: square"/>
   </g>
   <g id="line2d_34">
    <path d="M 580.700625 353.223865 
L 605.250625 353.216309 
L 629.800625 353.127839 
L 654.350625 352.915412 
L 678.900625 352.59831 
L 703.450625 352.135362 
L 728.000625 351.710844 
L 752.550625 351.301358 
L 777.100625 350.769546 
L 801.650625 350.002589 
L 826.200625 348.882683 
L 850.750625 347.051212 
L 875.300625 343.712028 
L 899.850625 336.156852 
L 924.400625 311.274276 
L 948.950625 229.625057 
L 973.500625 344.733042 
" clip-path="url(#p39a7360b9f)" style="fill: none; stroke: #5cb85c; stroke-linecap: square"/>
   </g>
   <g id="line2d_35">
    <path d="M 654.350625 353.223891 
L 678.900625 353.2198 
L 703.450625 353.086579 
L 728.000625 352.038446 
L 752.550625 348.776606 
L 777.100625 344.538177 
L 801.650625 341.171248 
L 826.200625 336.971152 
L 850.750625 330.51929 
L 875.300625 320.037458 
L 899.850625 302.008667 
L 924.400625 271.553469 
L 948.950625 251.542882 
L 973.500625 352.894482 
" clip-path="url(#p39a7360b9f)" style="fill: none; stroke: #5cb85c; stroke-linecap: square"/>
   </g>
   <g id="line2d_36">
    <path d="M 580.700625 353.223821 
L 605.250625 353.217808 
L 629.800625 353.142438 
L 654.350625 352.953004 
L 678.900625 352.628435 
L 703.450625 352.099948 
L 728.000625 351.590512 
L 752.550625 351.095667 
L 777.100625 350.454878 
L 801.650625 349.522502 
L 826.200625 348.092283 
L 850.750625 345.714956 
L 875.300625 341.251211 
L 899.850625 330.676122 
L 924.400625 293.862769 
L 948.950625 152.579946 
L 973.500625 339.147549 
" clip-path="url(#p39a7360b9f)" style="fill: none; stroke: #5cb85c; stroke-linecap: square"/>
   </g>
   <g id="line2d_37">
    <path d="M 654.350625 353.223821 
L 678.900625 353.21623 
L 703.450625 353.056039 
L 728.000625 352.294856 
L 752.550625 350.868173 
L 777.100625 349.257522 
L 801.650625 347.801366 
L 826.200625 345.827143 
L 850.750625 342.56011 
L 875.300625 336.383137 
L 899.850625 322.453082 
L 924.400625 281.602893 
L 948.950625 68.038728 
L 973.500625 341.890052 
" clip-path="url(#p39a7360b9f)" style="fill: none; stroke: #5cb85c; stroke-linecap: square"/>
   </g>
   <g id="line2d_38">
    <path d="M 580.700625 353.223865 
L 605.250625 353.216397 
L 629.800625 353.125061 
L 654.350625 352.878472 
L 678.900625 352.419773 
L 703.450625 351.528948 
L 728.000625 350.708688 
L 752.550625 350.007878 
L 777.100625 349.122933 
L 801.650625 347.914337 
L 826.200625 346.054548 
L 850.750625 343.064662 
L 875.300625 337.515024 
L 899.850625 324.635791 
L 924.400625 279.925723 
L 948.950625 82.506669 
L 973.500625 330.296081 
" clip-path="url(#p39a7360b9f)" style="fill: none; stroke: #5cb85c; stroke-linecap: square"/>
   </g>
   <g id="line2d_39">
    <path d="M 654.350625 353.223821 
L 678.900625 353.216979 
L 703.450625 353.041061 
L 728.000625 352.038005 
L 752.550625 349.901925 
L 777.100625 347.472636 
L 801.650625 345.373293 
L 826.200625 342.531167 
L 850.750625 337.879099 
L 875.300625 329.41364 
L 899.850625 311.749161 
L 924.400625 267.996463 
L 948.950625 130.788387 
L 973.500625 349.122775 
" clip-path="url(#p39a7360b9f)" style="fill: none; stroke: #5cb85c; stroke-linecap: square"/>
   </g>
   <g id="line2d_40">
    <path d="M 580.700625 353.223856 
L 605.250625 353.215807 
L 629.800625 353.113944 
L 654.350625 352.84855 
L 678.900625 352.406179 
L 703.450625 351.639636 
L 728.000625 350.922543 
L 752.550625 350.273528 
L 777.100625 349.415482 
L 801.650625 348.192576 
L 826.200625 346.330134 
L 850.750625 343.315069 
L 875.300625 337.631222 
L 899.850625 324.518201 
L 924.400625 279.235758 
L 948.950625 102.761042 
L 973.500625 334.376585 
" clip-path="url(#p39a7360b9f)" style="fill: none; stroke: #5cb85c; stroke-linecap: square"/>
   </g>
   <g id="line2d_41">
    <path d="M 654.350625 353.223856 
L 678.900625 353.215454 
L 703.450625 353.041052 
L 728.000625 352.185888 
L 752.550625 350.537592 
L 777.100625 348.727853 
L 801.650625 347.136103 
L 826.200625 344.991771 
L 850.750625 341.447716 
L 875.300625 334.849936 
L 899.850625 319.988493 
L 924.400625 277.961912 
L 948.950625 110.71688 
L 973.500625 348.341367 
" clip-path="url(#p39a7360b9f)" style="fill: none; stroke: #5cb85c; stroke-linecap: square"/>
   </g>
   <g id="line2d_42">
    <path d="M 580.700625 353.223856 
L 605.250625 353.215049 
L 629.800625 353.10839 
L 654.350625 352.83596 
L 678.900625 352.38882 
L 703.450625 351.676999 
L 728.000625 350.999244 
L 752.550625 350.384789 
L 777.100625 349.578317 
L 801.650625 348.414639 
L 826.200625 346.678639 
L 850.750625 343.849525 
L 875.300625 338.588134 
L 899.850625 326.423181 
L 924.400625 284.423481 
L 948.950625 109.496795 
L 973.500625 330.751756 
" clip-path="url(#p39a7360b9f)" style="fill: none; stroke: #5cb85c; stroke-linecap: square"/>
   </g>
   <g id="line2d_43">
    <path d="M 654.350625 353.223865 
L 678.900625 353.218892 
L 703.450625 353.077348 
L 728.000625 352.094737 
L 752.550625 349.525711 
L 777.100625 346.429122 
L 801.650625 343.9017 
L 826.200625 340.567655 
L 850.750625 335.271792 
L 875.300625 326.031953 
L 899.850625 308.114546 
L 924.400625 269.142976 
L 948.950625 191.531406 
L 973.500625 351.781947 
" clip-path="url(#p39a7360b9f)" style="fill: none; stroke: #5cb85c; stroke-linecap: square"/>
   </g>
   <g id="line2d_44">
    <path d="M 580.700625 353.223829 
L 605.250625 353.217367 
L 629.800625 353.135368 
L 654.350625 352.92369 
L 678.900625 352.56316 
L 703.450625 351.965668 
L 728.000625 351.400893 
L 752.550625 350.862425 
L 777.100625 350.172979 
L 801.650625 349.160728 
L 826.200625 347.612478 
L 850.750625 345.081723 
L 875.300625 340.336856 
L 899.850625 329.189964 
L 924.400625 290.016582 
L 948.950625 128.153239 
L 973.500625 334.5684 
" clip-path="url(#p39a7360b9f)" style="fill: none; stroke: #5cb85c; stroke-linecap: square"/>
   </g>
   <g id="line2d_45">
    <path d="M 654.350625 353.223891 
L 678.900625 353.217526 
L 703.450625 353.0573 
L 728.000625 352.08407 
L 752.550625 349.865823 
L 777.100625 347.347489 
L 801.650625 345.210907 
L 826.200625 342.354675 
L 850.750625 337.755478 
L 875.300625 329.460798 
L 899.850625 312.319235 
L 924.400625 269.642362 
L 948.950625 127.982592 
L 973.500625 348.858315 
" clip-path="url(#p39a7360b9f)" style="fill: none; stroke: #5cb85c; stroke-linecap: square"/>
   </g>
   <g id="line2d_46">
    <path d="M 580.700625 353.223882 
L 605.250625 353.218434 
L 629.800625 353.148777 
L 654.350625 352.960683 
L 678.900625 352.625676 
L 703.450625 352.023731 
L 728.000625 351.44053 
L 752.550625 350.885118 
L 777.100625 350.184996 
L 801.650625 349.175161 
L 826.200625 347.620122 
L 850.750625 345.033763 
L 875.300625 340.186716 
L 899.850625 328.619758 
L 924.400625 287.259718 
L 948.950625 86.149572 
L 973.500625 328.295524 
" clip-path="url(#p39a7360b9f)" style="fill: none; stroke: #5cb85c; stroke-linecap: square"/>
   </g>
   <g id="line2d_47">
    <path d="M 654.350625 353.223838 
L 678.900625 353.216327 
L 703.450625 353.033629 
L 728.000625 352.05376 
L 752.550625 349.967518 
L 777.100625 347.594943 
L 801.650625 345.57186 
L 826.200625 342.879504 
L 850.750625 338.515523 
L 875.300625 330.587633 
L 899.850625 313.845445 
L 924.400625 270.697336 
L 948.950625 107.567429 
L 973.500625 346.993228 
" clip-path="url(#p39a7360b9f)" style="fill: none; stroke: #5cb85c; stroke-linecap: square"/>
   </g>
   <g id="line2d_48">
    <path d="M 580.700625 353.223865 
L 605.250625 353.214608 
L 629.800625 353.10221 
L 654.350625 352.817578 
L 678.900625 352.325114 
L 703.450625 351.477823 
L 728.000625 350.684487 
L 752.550625 349.976986 
L 777.100625 349.081709 
L 801.650625 347.799823 
L 826.200625 345.869496 
L 850.750625 342.723325 
L 875.300625 336.963667 
L 899.850625 323.696953 
L 924.400625 278.827144 
L 948.950625 93.02321 
L 973.500625 330.611675 
" clip-path="url(#p39a7360b9f)" style="fill: none; stroke: #5cb85c; stroke-linecap: square"/>
   </g>
   <g id="line2d_49">
    <path d="M 654.350625 353.223847 
L 678.900625 353.216926 
L 703.450625 353.054417 
L 728.000625 352.221065 
L 752.550625 350.654098 
L 777.100625 348.970483 
L 801.650625 347.513975 
L 826.200625 345.517253 
L 850.750625 342.352488 
L 875.300625 336.540233 
L 899.850625 324.002576 
L 924.400625 289.303536 
L 948.950625 105.70973 
L 973.500625 341.921314 
" clip-path="url(#p39a7360b9f)" style="fill: none; stroke: #5cb85c; stroke-linecap: square"/>
   </g>
   <g id="line2d_50">
    <path d="M 580.700625 353.223882 
L 605.250625 353.218681 
L 629.800625 353.152277 
L 654.350625 352.967445 
L 678.900625 352.630869 
L 703.450625 351.994382 
L 728.000625 351.383031 
L 752.550625 350.850479 
L 777.100625 350.168201 
L 801.650625 349.186763 
L 826.200625 347.668109 
L 850.750625 345.207548 
L 875.300625 340.622527 
L 899.850625 329.841632 
L 924.400625 291.867167 
L 948.950625 103.502891 
L 973.500625 326.387758 
" clip-path="url(#p39a7360b9f)" style="fill: none; stroke: #5cb85c; stroke-linecap: square"/>
   </g>
   <g id="line2d_51">
    <path d="M 654.350625 353.223865 
L 678.900625 353.217649 
L 703.450625 353.052486 
L 728.000625 351.916077 
L 752.550625 348.850133 
L 777.100625 344.956445 
L 801.650625 341.52834 
L 826.200625 336.78178 
L 850.750625 329.162898 
L 875.300625 315.987872 
L 899.850625 291.457548 
L 924.400625 244.708555 
L 948.950625 199.578862 
L 973.500625 352.673054 
" clip-path="url(#p39a7360b9f)" style="fill: none; stroke: #5cb85c; stroke-linecap: square"/>
   </g>
   <g id="line2d_52">
    <path d="M 580.700625 353.223856 
L 605.250625 353.215692 
L 629.800625 353.113071 
L 654.350625 352.843075 
L 678.900625 352.386545 
L 703.450625 351.602167 
L 728.000625 350.857338 
L 752.550625 350.17186 
L 777.100625 349.276 
L 801.650625 347.979365 
L 826.200625 346.006429 
L 850.750625 342.752286 
L 875.300625 336.663273 
L 899.850625 322.380578 
L 924.400625 273.160665 
L 948.950625 102.539993 
L 973.500625 338.595072 
" clip-path="url(#p39a7360b9f)" style="fill: none; stroke: #5cb85c; stroke-linecap: square"/>
   </g>
   <g id="line2d_53">
    <path d="M 654.350625 353.223891 
L 678.900625 353.218654 
L 703.450625 353.063498 
L 728.000625 351.963552 
L 752.550625 348.836812 
L 777.100625 344.83762 
L 801.650625 341.542367 
L 826.200625 337.297458 
L 850.750625 330.588303 
L 875.300625 319.165658 
L 899.850625 298.209126 
L 924.400625 257.506115 
L 948.950625 205.841069 
L 973.500625 352.386651 
" clip-path="url(#p39a7360b9f)" style="fill: none; stroke: #5cb85c; stroke-linecap: square"/>
   </g>
   <g id="line2d_54">
    <path d="M 580.700625 353.223891 
L 605.250625 353.216256 
L 629.800625 353.124524 
L 654.350625 352.890136 
L 678.900625 352.492102 
L 703.450625 351.823295 
L 728.000625 351.203639 
L 752.550625 350.608624 
L 777.100625 349.82473 
L 801.650625 348.708166 
L 826.200625 346.992752 
L 850.750625 344.131124 
L 875.300625 338.814754 
L 899.850625 326.299075 
L 924.400625 282.696209 
L 948.950625 115.323579 
L 973.500625 335.979619 
" clip-path="url(#p39a7360b9f)" style="fill: none; stroke: #5cb85c; stroke-linecap: square"/>
   </g>
   <g id="line2d_55">
    <path d="M 654.350625 353.223882 
L 678.900625 353.21742 
L 703.450625 353.051437 
L 728.000625 352.089368 
L 752.550625 350.098879 
L 777.100625 347.978519 
L 801.650625 346.139571 
L 826.200625 343.697252 
L 850.750625 339.802972 
L 875.300625 332.909224 
L 899.850625 318.880268 
L 924.400625 284.842736 
L 948.950625 161.516852 
L 973.500625 347.867505 
" clip-path="url(#p39a7360b9f)" style="fill: none; stroke: #5cb85c; stroke-linecap: square"/>
   </g>
   <g id="line2d_56">
    <path d="M 580.700625 353.223882 
L 605.250625 353.217076 
L 629.800625 353.133939 
L 654.350625 352.920199 
L 678.900625 352.56696 
L 703.450625 351.986677 
L 728.000625 351.425684 
L 752.550625 350.916371 
L 777.100625 350.252881 
L 801.650625 349.288793 
L 826.200625 347.853849 
L 850.750625 345.497187 
L 875.300625 341.110945 
L 899.850625 331.012301 
L 924.400625 296.249177 
L 948.950625 135.825195 
L 973.500625 328.506469 
" clip-path="url(#p39a7360b9f)" style="fill: none; stroke: #5cb85c; stroke-linecap: square"/>
   </g>
   <g id="line2d_57">
    <path d="M 654.350625 353.223882 
L 678.900625 353.218275 
L 703.450625 353.069167 
L 728.000625 352.179443 
L 752.550625 350.192957 
L 777.100625 347.909408 
L 801.650625 345.913621 
L 826.200625 343.222243 
L 850.750625 338.854471 
L 875.300625 330.989176 
L 899.850625 314.82087 
L 924.400625 275.637562 
L 948.950625 155.980068 
L 973.500625 349.760707 
" clip-path="url(#p39a7360b9f)" style="fill: none; stroke: #5cb85c; stroke-linecap: square"/>
   </g>
   <g id="line2d_58">
    <path d="M 580.700625 353.223847 
L 605.250625 353.21243 
L 629.800625 353.08061 
L 654.350625 352.748063 
L 678.900625 352.237163 
L 703.450625 351.454239 
L 728.000625 350.723728 
L 752.550625 350.045188 
L 777.100625 349.144709 
L 801.650625 347.890877 
L 826.200625 345.984177 
L 850.750625 342.947609 
L 875.300625 337.295148 
L 899.850625 324.474058 
L 924.400625 281.953364 
L 948.950625 139.612842 
L 973.500625 338.615499 
" clip-path="url(#p39a7360b9f)" style="fill: none; stroke: #5cb85c; stroke-linecap: square"/>
   </g>
   <g id="line2d_59">
    <path d="M 654.350625 353.223838 
L 678.900625 353.217015 
L 703.450625 353.060782 
L 728.000625 352.249964 
L 752.550625 350.693647 
L 777.100625 348.927434 
L 801.650625 347.216745 
L 826.200625 344.689023 
L 850.750625 340.325853 
L 875.300625 331.893649 
L 899.850625 313.649725 
L 924.400625 269.587534 
L 948.950625 175.853026 
L 973.500625 351.782987 
" clip-path="url(#p39a7360b9f)" style="fill: none; stroke: #5cb85c; stroke-linecap: square"/>
   </g>
   <g id="line2d_60">
    <path d="M 580.700625 353.223838 
L 605.250625 353.21176 
L 629.800625 353.06564 
L 654.350625 352.724559 
L 678.900625 352.23227 
L 703.450625 351.536504 
L 728.000625 350.896041 
L 752.550625 350.275724 
L 777.100625 349.49265 
L 801.650625 348.38089 
L 826.200625 346.735089 
L 850.750625 344.09086 
L 875.300625 339.262018 
L 899.850625 328.316092 
L 924.400625 291.375743 
L 948.950625 145.881803 
L 973.500625 335.34144 
" clip-path="url(#p39a7360b9f)" style="fill: none; stroke: #5cb85c; stroke-linecap: square"/>
   </g>
   <g id="line2d_61">
    <path d="M 654.350625 353.223891 
L 678.900625 353.217649 
L 703.450625 353.050776 
L 728.000625 352.062523 
L 752.550625 349.896565 
L 777.100625 347.439152 
L 801.650625 345.216946 
L 826.200625 342.181895 
L 850.750625 337.153507 
L 875.300625 328.123097 
L 899.850625 309.955653 
L 924.400625 269.347609 
L 948.950625 181.503133 
L 973.500625 351.469932 
" clip-path="url(#p39a7360b9f)" style="fill: none; stroke: #5cb85c; stroke-linecap: square"/>
   </g>
   <g id="line2d_62">
    <path d="M 580.700625 353.223803 
L 605.250625 353.212227 
L 629.800625 353.075074 
L 654.350625 352.742173 
L 678.900625 352.241862 
L 703.450625 351.491744 
L 728.000625 350.784542 
L 752.550625 350.108868 
L 777.100625 349.253166 
L 801.650625 348.018844 
L 826.200625 346.188695 
L 850.750625 343.223424 
L 875.300625 337.831738 
L 899.850625 325.612786 
L 924.400625 285.067549 
L 948.950625 143.300778 
L 973.500625 338.136752 
" clip-path="url(#p39a7360b9f)" style="fill: none; stroke: #5cb85c; stroke-linecap: square"/>
   </g>
   <g id="line2d_63">
    <path d="M 654.350625 353.223865 
L 678.900625 353.216089 
L 703.450625 353.041607 
L 728.000625 352.11125 
L 752.550625 350.267868 
L 777.100625 348.295091 
L 801.650625 346.566884 
L 826.200625 344.199414 
L 850.750625 340.355846 
L 875.300625 333.310688 
L 899.850625 318.625339 
L 924.400625 281.50781 
L 948.950625 155.437086 
L 973.500625 349.064932 
" clip-path="url(#p39a7360b9f)" style="fill: none; stroke: #5cb85c; stroke-linecap: square"/>
   </g>
   <g id="line2d_64">
    <path d="M 580.700625 353.223865 
L 605.250625 353.213083 
L 629.800625 353.082056 
L 654.350625 352.766903 
L 678.900625 352.276228 
L 703.450625 351.542596 
L 728.000625 350.858925 
L 752.550625 350.204189 
L 777.100625 349.347967 
L 801.650625 348.150241 
L 826.200625 346.376437 
L 850.750625 343.505614 
L 875.300625 338.291741 
L 899.850625 326.534671 
L 924.400625 287.733448 
L 948.950625 146.108547 
L 973.500625 335.67896 
" clip-path="url(#p39a7360b9f)" style="fill: none; stroke: #5cb85c; stroke-linecap: square"/>
   </g>
   <g id="line2d_65">
    <path d="M 654.350625 353.223838 
L 678.900625 353.217429 
L 703.450625 353.059337 
L 728.000625 352.142124 
L 752.550625 350.048063 
L 777.100625 347.609622 
L 801.650625 345.485655 
L 826.200625 342.613422 
L 850.750625 337.93874 
L 875.300625 329.576079 
L 899.850625 312.642367 
L 924.400625 272.295512 
L 948.950625 158.014144 
L 973.500625 349.957679 
" clip-path="url(#p39a7360b9f)" style="fill: none; stroke: #5cb85c; stroke-linecap: square"/>
   </g>
   <g id="line2d_66">
    <path d="M 580.700625 353.223803 
L 605.250625 353.214132 
L 629.800625 353.091921 
L 654.350625 352.783081 
L 678.900625 352.287583 
L 703.450625 351.463364 
L 728.000625 350.703486 
L 752.550625 350.023377 
L 777.100625 349.13949 
L 801.650625 347.864728 
L 826.200625 345.952183 
L 850.750625 342.850966 
L 875.300625 337.140803 
L 899.850625 324.103116 
L 924.400625 280.752155 
L 948.950625 134.408059 
L 973.500625 338.493465 
" clip-path="url(#p39a7360b9f)" style="fill: none; stroke: #5cb85c; stroke-linecap: square"/>
   </g>
   <g id="line2d_67">
    <path d="M 654.350625 353.223829 
L 678.900625 353.217129 
L 703.450625 353.059046 
L 728.000625 352.179276 
L 752.550625 350.366971 
L 777.100625 348.374525 
L 801.650625 346.568789 
L 826.200625 344.043544 
L 850.750625 339.909622 
L 875.300625 332.290493 
L 899.850625 316.50854 
L 924.400625 278.130257 
L 948.950625 166.454971 
L 973.500625 350.189572 
" clip-path="url(#p39a7360b9f)" style="fill: none; stroke: #5cb85c; stroke-linecap: square"/>
   </g>
   <g id="line2d_68">
    <path d="M 580.700625 353.223838 
L 605.250625 353.21362 
L 629.800625 353.093094 
L 654.350625 352.798535 
L 678.900625 352.337474 
L 703.450625 351.631842 
L 728.000625 350.987448 
L 752.550625 350.377736 
L 777.100625 349.603946 
L 801.650625 348.498719 
L 826.200625 346.847469 
L 850.750625 344.200587 
L 875.300625 339.346072 
L 899.850625 328.359309 
L 924.400625 291.513919 
L 948.950625 143.60194 
L 973.500625 334.552716 
" clip-path="url(#p39a7360b9f)" style="fill: none; stroke: #5cb85c; stroke-linecap: square"/>
   </g>
   <g id="line2d_69">
    <path d="M 654.350625 353.223891 
L 678.900625 353.218707 
L 703.450625 353.066901 
L 728.000625 351.954568 
L 752.550625 348.829027 
L 777.100625 344.951631 
L 801.650625 341.655576 
L 826.200625 337.392232 
L 850.750625 330.741467 
L 875.300625 319.444153 
L 899.850625 298.894966 
L 924.400625 259.196985 
L 948.950625 198.779928 
L 973.500625 351.881094 
" clip-path="url(#p39a7360b9f)" style="fill: none; stroke: #5cb85c; stroke-linecap: square"/>
   </g>
   <g id="line2d_70">
    <path d="M 580.700625 353.223882 
L 605.250625 353.214652 
L 629.800625 353.100552 
L 654.350625 352.812659 
L 678.900625 352.347075 
L 703.450625 351.601382 
L 728.000625 350.905774 
L 752.550625 350.235672 
L 777.100625 349.356325 
L 801.650625 348.106424 
L 826.200625 346.214421 
L 850.750625 343.091701 
L 875.300625 337.305049 
L 899.850625 323.938817 
L 924.400625 278.885322 
L 948.950625 121.27841 
L 973.500625 337.28471 
" clip-path="url(#p39a7360b9f)" style="fill: none; stroke: #5cb85c; stroke-linecap: square"/>
   </g>
   <g id="line2d_71">
    <path d="M 654.350625 353.223856 
L 678.900625 353.217605 
L 703.450625 353.034854 
L 728.000625 351.74774 
L 752.550625 348.273315 
L 777.100625 344.050491 
L 801.650625 340.642646 
L 826.200625 336.231199 
L 850.750625 329.311874 
L 875.300625 317.5637 
L 899.850625 295.846408 
L 924.400625 252.4532 
L 948.950625 181.657055 
L 973.500625 351.875848 
" clip-path="url(#p39a7360b9f)" style="fill: none; stroke: #5cb85c; stroke-linecap: square"/>
   </g>
   <g id="line2d_72">
    <path d="M 580.700625 353.223865 
L 605.250625 353.216441 
L 629.800625 353.12418 
L 654.350625 352.885578 
L 678.900625 352.4761 
L 703.450625 351.797322 
L 728.000625 351.146272 
L 752.550625 350.545279 
L 777.100625 349.73261 
L 801.650625 348.556844 
L 826.200625 346.8033 
L 850.750625 343.880973 
L 875.300625 338.42402 
L 899.850625 325.606862 
L 924.400625 280.900867 
L 948.950625 87.359597 
L 973.500625 329.121383 
" clip-path="url(#p39a7360b9f)" style="fill: none; stroke: #5cb85c; stroke-linecap: square"/>
   </g>
   <g id="line2d_73">
    <path d="M 654.350625 353.223882 
L 678.900625 353.217649 
L 703.450625 353.059636 
L 728.000625 352.141102 
L 752.550625 350.10312 
L 777.100625 347.69163 
L 801.650625 345.650316 
L 826.200625 342.93286 
L 850.750625 338.442957 
L 875.300625 330.301186 
L 899.850625 313.256795 
L 924.400625 271.248058 
L 948.950625 153.23306 
L 973.500625 350.540818 
" clip-path="url(#p39a7360b9f)" style="fill: none; stroke: #5cb85c; stroke-linecap: square"/>
   </g>
   <g id="line2d_74">
    <path d="M 580.700625 353.223882 
L 605.250625 353.218743 
L 629.800625 353.154331 
L 654.350625 352.975248 
L 678.900625 352.649859 
L 703.450625 352.070775 
L 728.000625 351.494891 
L 752.550625 350.973518 
L 777.100625 350.313087 
L 801.650625 349.329674 
L 826.200625 347.829472 
L 850.750625 345.338328 
L 875.300625 340.599984 
L 899.850625 329.370793 
L 924.400625 288.857039 
L 948.950625 109.559038 
L 973.500625 333.756109 
" clip-path="url(#p39a7360b9f)" style="fill: none; stroke: #5cb85c; stroke-linecap: square"/>
   </g>
   <g id="line2d_75">
    <path d="M 654.350625 353.223882 
L 678.900625 353.219554 
L 703.450625 353.110003 
L 728.000625 352.45741 
L 752.550625 350.933986 
L 777.100625 349.142056 
L 801.650625 347.651543 
L 826.200625 345.672118 
L 850.750625 342.504198 
L 875.300625 336.690462 
L 899.850625 324.350366 
L 924.400625 291.421931 
L 948.950625 165.221168 
L 973.500625 349.264301 
" clip-path="url(#p39a7360b9f)" style="fill: none; stroke: #5cb85c; stroke-linecap: square"/>
   </g>
   <g id="line2d_76">
    <path d="M 580.700625 353.223882 
L 605.250625 353.221855 
L 629.800625 353.19098 
L 654.350625 353.102034 
L 678.900625 352.916117 
L 703.450625 352.532735 
L 728.000625 352.136702 
L 752.550625 351.791142 
L 777.100625 351.351284 
L 801.650625 350.7083 
L 826.200625 349.710895 
L 850.750625 348.038716 
L 875.300625 344.850994 
L 899.850625 337.157254 
L 924.400625 308.29601 
L 948.950625 133.90505 
L 973.500625 328.400728 
" clip-path="url(#p39a7360b9f)" style="fill: none; stroke: #5cb85c; stroke-linecap: square"/>
   </g>
   <g id="line2d_77">
    <path d="M 654.350625 353.223874 
L 678.900625 353.217235 
L 703.450625 353.033549 
L 728.000625 351.894715 
L 752.550625 349.269935 
L 777.100625 346.301305 
L 801.650625 343.770118 
L 826.200625 340.391454 
L 850.750625 334.967386 
L 875.300625 325.391138 
L 899.850625 306.407983 
L 924.400625 263.820144 
L 948.950625 163.154428 
L 973.500625 350.821791 
" clip-path="url(#p39a7360b9f)" style="fill: none; stroke: #5cb85c; stroke-linecap: square"/>
   </g>
   <g id="line2d_78">
    <path d="M 580.700625 353.223829 
L 605.250625 353.212554 
L 629.800625 353.082955 
L 654.350625 352.76454 
L 678.900625 352.265534 
L 703.450625 351.519806 
L 728.000625 350.824048 
L 752.550625 350.153549 
L 777.100625 349.270243 
L 801.650625 348.039253 
L 826.200625 346.155291 
L 850.750625 343.066558 
L 875.300625 337.438235 
L 899.850625 324.45974 
L 924.400625 280.911561 
L 948.950625 115.508191 
L 973.500625 333.440868 
" clip-path="url(#p39a7360b9f)" style="fill: none; stroke: #5cb85c; stroke-linecap: square"/>
   </g>
   <g id="line2d_79">
    <path d="M 654.350625 353.223874 
L 678.900625 353.216177 
L 703.450625 353.035356 
L 728.000625 352.076417 
L 752.550625 350.156476 
L 777.100625 348.082576 
L 801.650625 346.181907 
L 826.200625 343.520434 
L 850.750625 339.130613 
L 875.300625 331.097766 
L 899.850625 314.068927 
L 924.400625 271.260084 
L 948.950625 121.990857 
L 973.500625 347.559422 
" clip-path="url(#p39a7360b9f)" style="fill: none; stroke: #5cb85c; stroke-linecap: square"/>
   </g>
   <g id="line2d_80">
    <path d="M 580.700625 353.223838 
L 605.250625 353.212915 
L 629.800625 353.083326 
L 654.350625 352.758669 
L 678.900625 352.265684 
L 703.450625 351.473961 
L 728.000625 350.725677 
L 752.550625 350.037915 
L 777.100625 349.153376 
L 801.650625 347.90753 
L 826.200625 346.035223 
L 850.750625 343.007877 
L 875.300625 337.499517 
L 899.850625 324.934978 
L 924.400625 282.817017 
L 948.950625 106.495827 
L 973.500625 329.639256 
" clip-path="url(#p39a7360b9f)" style="fill: none; stroke: #5cb85c; stroke-linecap: square"/>
   </g>
   <g id="line2d_81">
    <path d="M 654.350625 353.223838 
L 678.900625 353.215807 
L 703.450625 353.007206 
L 728.000625 351.827139 
L 752.550625 349.473008 
L 777.100625 346.960599 
L 801.650625 344.7586 
L 826.200625 341.80293 
L 850.750625 337.016247 
L 875.300625 328.4629 
L 899.850625 310.698648 
L 924.400625 266.370207 
L 948.950625 94.29613 
L 973.500625 345.527577 
" clip-path="url(#p39a7360b9f)" style="fill: none; stroke: #5cb85c; stroke-linecap: square"/>
   </g>
   <g id="line2d_82">
    <path d="M 580.700625 353.223856 
L 605.250625 353.211936 
L 629.800625 353.074395 
L 654.350625 352.729302 
L 678.900625 352.177275 
L 703.450625 351.306973 
L 728.000625 350.488864 
L 752.550625 349.72747 
L 777.100625 348.76146 
L 801.650625 347.386254 
L 826.200625 345.304553 
L 850.750625 341.935561 
L 875.300625 335.784331 
L 899.850625 321.722633 
L 924.400625 274.607961 
L 948.950625 77.939131 
L 973.500625 326.93058 
" clip-path="url(#p39a7360b9f)" style="fill: none; stroke: #5cb85c; stroke-linecap: square"/>
   </g>
   <g id="line2d_83">
    <path d="M 654.350625 353.223882 
L 678.900625 353.217455 
L 703.450625 353.055845 
L 728.000625 352.066358 
L 752.550625 349.645832 
L 777.100625 346.729129 
L 801.650625 344.232387 
L 826.200625 340.918488 
L 850.750625 335.533413 
L 875.300625 325.798076 
L 899.850625 305.99973 
L 924.400625 259.153468 
L 948.950625 138.21929 
L 973.500625 350.388598 
" clip-path="url(#p39a7360b9f)" style="fill: none; stroke: #5cb85c; stroke-linecap: square"/>
   </g>
   <g id="line2d_84">
    <path d="M 580.700625 353.223874 
L 605.250625 353.21787 
L 629.800625 353.136258 
L 654.350625 352.91803 
L 678.900625 352.51647 
L 703.450625 351.769084 
L 728.000625 351.049646 
L 752.550625 350.432758 
L 777.100625 349.621693 
L 801.650625 348.463384 
L 826.200625 346.691951 
L 850.750625 343.75863 
L 875.300625 338.283736 
L 899.850625 325.393545 
L 924.400625 280.070776 
L 948.950625 85.011337 
L 973.500625 332.29461 
" clip-path="url(#p39a7360b9f)" style="fill: none; stroke: #5cb85c; stroke-linecap: square"/>
   </g>
   <g id="line2d_85">
    <path d="M 654.350625 353.223891 
L 678.900625 353.217737 
L 703.450625 353.05983 
L 728.000625 352.096597 
L 752.550625 349.837822 
L 777.100625 347.20911 
L 801.650625 345.039132 
L 826.200625 342.200197 
L 850.750625 337.62692 
L 875.300625 329.698897 
L 899.850625 313.936992 
L 924.400625 277.751733 
L 948.950625 177.514106 
L 973.500625 350.165671 
" clip-path="url(#p39a7360b9f)" style="fill: none; stroke: #5cb85c; stroke-linecap: square"/>
   </g>
   <g id="line2d_86">
    <path d="M 580.700625 353.223865 
L 605.250625 353.216124 
L 629.800625 353.129734 
L 654.350625 352.905071 
L 678.900625 352.541023 
L 703.450625 351.960934 
L 728.000625 351.401977 
L 752.550625 350.880904 
L 777.100625 350.215059 
L 801.650625 349.244474 
L 826.200625 347.779149 
L 850.750625 345.374994 
L 875.300625 340.892136 
L 899.850625 330.525408 
L 924.400625 294.542438 
L 948.950625 133.975086 
L 973.500625 330.441963 
" clip-path="url(#p39a7360b9f)" style="fill: none; stroke: #5cb85c; stroke-linecap: square"/>
   </g>
   <g id="line2d_87">
    <path d="M 654.350625 353.223829 
L 678.900625 353.219536 
L 703.450625 353.093596 
L 728.000625 352.202524 
L 752.550625 349.870672 
L 777.100625 347.227421 
L 801.650625 345.058378 
L 826.200625 342.229829 
L 850.750625 337.806488 
L 875.300625 330.303698 
L 899.850625 316.463286 
L 924.400625 289.117355 
L 948.950625 245.238012 
L 973.500625 352.416652 
" clip-path="url(#p39a7360b9f)" style="fill: none; stroke: #5cb85c; stroke-linecap: square"/>
   </g>
   <g id="line2d_88">
    <path d="M 580.700625 353.223847 
L 605.250625 353.217394 
L 629.800625 353.142756 
L 654.350625 352.954291 
L 678.900625 352.657573 
L 703.450625 352.180986 
L 728.000625 351.73605 
L 752.550625 351.310817 
L 777.100625 350.750574 
L 801.650625 349.951719 
L 826.200625 348.72891 
L 850.750625 346.730302 
L 875.300625 343.040373 
L 899.850625 334.541061 
L 924.400625 305.59966 
L 948.950625 188.857758 
L 973.500625 338.518909 
" clip-path="url(#p39a7360b9f)" style="fill: none; stroke: #5cb85c; stroke-linecap: square"/>
   </g>
   <g id="line2d_89">
    <path d="M 40.600625 353.2239 
L 993.140625 353.2239 
" clip-path="url(#p39a7360b9f)" style="fill: none; stroke: #dedede; stroke-width: 2; stroke-linecap: square"/>
   </g>
   <g id="text_20">
    <!-- FastQC: Per Sequence Quality Scores -->
    <g transform="translate(368.678125 19.3575)scale(0.16 -0.16)">
     <defs>
      <path id="DejaVuSans-46" d="M 628 4666 
L 3309 4666 
L 3309 4134 
L 1259 4134 
L 1259 2759 
L 3109 2759 
L 3109 2228 
L 1259 2228 
L 1259 0 
L 628 0 
L 628 4666 
z
" transform="scale(0.015625)"/>
      <path id="DejaVuSans-73" d="M 2834 3397 
L 2834 2853 
Q 2591 2978 2328 3040 
Q 2066 3103 1784 3103 
Q 1356 3103 1142 2972 
Q 928 2841 928 2578 
Q 928 2378 1081 2264 
Q 1234 2150 1697 2047 
L 1894 2003 
Q 2506 1872 2764 1633 
Q 3022 1394 3022 966 
Q 3022 478 2636 193 
Q 2250 -91 1575 -91 
Q 1294 -91 989 -36 
Q 684 19 347 128 
L 347 722 
Q 666 556 975 473 
Q 1284 391 1588 391 
Q 1994 391 2212 530 
Q 2431 669 2431 922 
Q 2431 1156 2273 1281 
Q 2116 1406 1581 1522 
L 1381 1569 
Q 847 1681 609 1914 
Q 372 2147 372 2553 
Q 372 3047 722 3315 
Q 1072 3584 1716 3584 
Q 2034 3584 2315 3537 
Q 2597 3491 2834 3397 
z
" transform="scale(0.015625)"/>
      <path id="DejaVuSans-3a" d="M 750 794 
L 1409 794 
L 1409 0 
L 750 0 
L 750 794 
z
M 750 3309 
L 1409 3309 
L 1409 2516 
L 750 2516 
L 750 3309 
z
" transform="scale(0.015625)"/>
     </defs>
     <use xlink:href="#DejaVuSans-46"/>
     <use xlink:href="#DejaVuSans-61" x="48.394531"/>
     <use xlink:href="#DejaVuSans-73" x="109.673828"/>
     <use xlink:href="#DejaVuSans-74" x="161.773438"/>
     <use xlink:href="#DejaVuSans-51" x="200.982422"/>
     <use xlink:href="#DejaVuSans-43" x="279.693359"/>
     <use xlink:href="#DejaVuSans-3a" x="349.517578"/>
     <use xlink:href="#DejaVuSans-20" x="383.208984"/>
     <use xlink:href="#DejaVuSans-50" x="414.996094"/>
     <use xlink:href="#DejaVuSans-65" x="471.673828"/>
     <use xlink:href="#DejaVuSans-72" x="533.197266"/>
     <use xlink:href="#DejaVuSans-20" x="574.310547"/>
     <use xlink:href="#DejaVuSans-53" x="606.097656"/>
     <use xlink:href="#DejaVuSans-65" x="669.574219"/>
     <use xlink:href="#DejaVuSans-71" x="731.097656"/>
     <use xlink:href="#DejaVuSans-75" x="794.574219"/>
     <use xlink:href="#DejaVuSans-65" x="857.953125"/>
     <use xlink:href="#DejaVuSans-6e" x="919.476562"/>
     <use xlink:href="#DejaVuSans-63" x="982.855469"/>
     <use xlink:href="#DejaVuSans-65" x="1037.835938"/>
     <use xlink:href="#DejaVuSans-20" x="1099.359375"/>
     <use xlink:href="#DejaVuSans-51" x="1131.146484"/>
     <use xlink:href="#DejaVuSans-75" x="1209.857422"/>
     <use xlink:href="#DejaVuSans-61" x="1273.236328"/>
     <use xlink:href="#DejaVuSans-6c" x="1334.515625"/>
     <use xlink:href="#DejaVuSans-69" x="1362.298828"/>
     <use xlink:href="#DejaVuSans-74" x="1390.082031"/>
     <use xlink:href="#DejaVuSans-79" x="1429.291016"/>
     <use xlink:href="#DejaVuSans-20" x="1488.470703"/>
     <use xlink:href="#DejaVuSans-53" x="1520.257812"/>
     <use xlink:href="#DejaVuSans-63" x="1583.734375"/>
     <use xlink:href="#DejaVuSans-6f" x="1638.714844"/>
     <use xlink:href="#DejaVuSans-72" x="1699.896484"/>
     <use xlink:href="#DejaVuSans-65" x="1738.759766"/>
     <use xlink:href="#DejaVuSans-73" x="1800.283203"/>
    </g>
   </g>
  </g>
 </g>
 <defs>
  <clipPath id="p39a7360b9f">
   <rect x="40.600625" y="35.2559" width="952.54" height="317.968"/>
  </clipPath>
 </defs>
</svg>
