<?xml version="1.0" encoding="utf-8" standalone="no"?>
<!DOCTYPE svg PUBLIC "-//W3C//DTD SVG 1.1//EN"
  "http://www.w3.org/Graphics/SVG/1.1/DTD/svg11.dtd">
<svg xmlns:xlink="http://www.w3.org/1999/xlink" width="818.36625pt" height="426.2pt" viewBox="0 0 818.36625 426.2" xmlns="http://www.w3.org/2000/svg" version="1.1">
 <metadata>
  <rdf:RDF xmlns:dc="http://purl.org/dc/elements/1.1/" xmlns:cc="http://creativecommons.org/ns#" xmlns:rdf="http://www.w3.org/1999/02/22-rdf-syntax-ns#">
   <cc:Work>
    <dc:type rdf:resource="http://purl.org/dc/dcmitype/StillImage"/>
    <dc:date>2023-06-21T15:44:49.118738</dc:date>
    <dc:format>image/svg+xml</dc:format>
    <dc:creator>
     <cc:Agent>
      <dc:title>Matplotlib v3.5.3, https://matplotlib.org/</dc:title>
     </cc:Agent>
    </dc:creator>
   </cc:Work>
  </rdf:RDF>
 </metadata>
 <defs>
  <style type="text/css">*{stroke-linejoin: round; stroke-linecap: butt}</style>
 </defs>
 <g id="figure_1">
  <g id="axes_1">
   <g id="patch_1">
    <path d="M 24.87625 339.84 
L 806.07625 339.84 
L 806.07625 7.2 
L 24.87625 7.2 
z
" style="fill: #ffffff"/>
   </g>
   <g id="matplotlib.axis_1">
    <g id="xtick_1">
     <g id="line2d_1">
      <path d="M 24.87625 339.84 
L 24.87625 7.2 
" clip-path="url(#p9b76f30765)" style="fill: none; stroke: #dedede; stroke-linecap: square"/>
     </g>
     <g id="text_1">
      <!-- 0 -->
      <g transform="translate(22.33125 352.91875)scale(0.08 -0.08)">
       <defs>
        <path id="DejaVuSans-30" d="M 2034 4250 
Q 1547 4250 1301 3770 
Q 1056 3291 1056 2328 
Q 1056 1369 1301 889 
Q 1547 409 2034 409 
Q 2525 409 2770 889 
Q 3016 1369 3016 2328 
Q 3016 3291 2770 3770 
Q 2525 4250 2034 4250 
z
M 2034 4750 
Q 2819 4750 3233 4129 
Q 3647 3509 3647 2328 
Q 3647 1150 3233 529 
Q 2819 -91 2034 -91 
Q 1250 -91 836 529 
Q 422 1150 422 2328 
Q 422 3509 836 4129 
Q 1250 4750 2034 4750 
z
" transform="scale(0.015625)"/>
       </defs>
       <use xlink:href="#DejaVuSans-30"/>
      </g>
     </g>
    </g>
    <g id="xtick_2">
     <g id="line2d_2">
      <path d="M 122.52625 339.84 
L 122.52625 7.2 
" clip-path="url(#p9b76f30765)" style="fill: none; stroke: #dedede; stroke-linecap: square"/>
     </g>
     <g id="text_2">
      <!-- 5 -->
      <g transform="translate(119.98125 352.91875)scale(0.08 -0.08)">
       <defs>
        <path id="DejaVuSans-35" d="M 691 4666 
L 3169 4666 
L 3169 4134 
L 1269 4134 
L 1269 2991 
Q 1406 3038 1543 3061 
Q 1681 3084 1819 3084 
Q 2600 3084 3056 2656 
Q 3513 2228 3513 1497 
Q 3513 744 3044 326 
Q 2575 -91 1722 -91 
Q 1428 -91 1123 -41 
Q 819 9 494 109 
L 494 744 
Q 775 591 1075 516 
Q 1375 441 1709 441 
Q 2250 441 2565 725 
Q 2881 1009 2881 1497 
Q 2881 1984 2565 2268 
Q 2250 2553 1709 2553 
Q 1456 2553 1204 2497 
Q 953 2441 691 2322 
L 691 4666 
z
" transform="scale(0.015625)"/>
       </defs>
       <use xlink:href="#DejaVuSans-35"/>
      </g>
     </g>
    </g>
    <g id="xtick_3">
     <g id="line2d_3">
      <path d="M 220.17625 339.84 
L 220.17625 7.2 
" clip-path="url(#p9b76f30765)" style="fill: none; stroke: #dedede; stroke-linecap: square"/>
     </g>
     <g id="text_3">
      <!-- 10 -->
      <g transform="translate(215.08625 352.91875)scale(0.08 -0.08)">
       <defs>
        <path id="DejaVuSans-31" d="M 794 531 
L 1825 531 
L 1825 4091 
L 703 3866 
L 703 4441 
L 1819 4666 
L 2450 4666 
L 2450 531 
L 3481 531 
L 3481 0 
L 794 0 
L 794 531 
z
" transform="scale(0.015625)"/>
       </defs>
       <use xlink:href="#DejaVuSans-31"/>
       <use xlink:href="#DejaVuSans-30" x="63.623047"/>
      </g>
     </g>
    </g>
    <g id="xtick_4">
     <g id="line2d_4">
      <path d="M 317.82625 339.84 
L 317.82625 7.2 
" clip-path="url(#p9b76f30765)" style="fill: none; stroke: #dedede; stroke-linecap: square"/>
     </g>
     <g id="text_4">
      <!-- 15 -->
      <g transform="translate(312.73625 352.91875)scale(0.08 -0.08)">
       <use xlink:href="#DejaVuSans-31"/>
       <use xlink:href="#DejaVuSans-35" x="63.623047"/>
      </g>
     </g>
    </g>
    <g id="xtick_5">
     <g id="line2d_5">
      <path d="M 415.47625 339.84 
L 415.47625 7.2 
" clip-path="url(#p9b76f30765)" style="fill: none; stroke: #dedede; stroke-linecap: square"/>
     </g>
     <g id="text_5">
      <!-- 20 -->
      <g transform="translate(410.38625 352.91875)scale(0.08 -0.08)">
       <defs>
        <path id="DejaVuSans-32" d="M 1228 531 
L 3431 531 
L 3431 0 
L 469 0 
L 469 531 
Q 828 903 1448 1529 
Q 2069 2156 2228 2338 
Q 2531 2678 2651 2914 
Q 2772 3150 2772 3378 
Q 2772 3750 2511 3984 
Q 2250 4219 1831 4219 
Q 1534 4219 1204 4116 
Q 875 4013 500 3803 
L 500 4441 
Q 881 4594 1212 4672 
Q 1544 4750 1819 4750 
Q 2544 4750 2975 4387 
Q 3406 4025 3406 3419 
Q 3406 3131 3298 2873 
Q 3191 2616 2906 2266 
Q 2828 2175 2409 1742 
Q 1991 1309 1228 531 
z
" transform="scale(0.015625)"/>
       </defs>
       <use xlink:href="#DejaVuSans-32"/>
       <use xlink:href="#DejaVuSans-30" x="63.623047"/>
      </g>
     </g>
    </g>
    <g id="xtick_6">
     <g id="line2d_6">
      <path d="M 513.12625 339.84 
L 513.12625 7.2 
" clip-path="url(#p9b76f30765)" style="fill: none; stroke: #dedede; stroke-linecap: square"/>
     </g>
     <g id="text_6">
      <!-- 25 -->
      <g transform="translate(508.03625 352.91875)scale(0.08 -0.08)">
       <use xlink:href="#DejaVuSans-32"/>
       <use xlink:href="#DejaVuSans-35" x="63.623047"/>
      </g>
     </g>
    </g>
    <g id="xtick_7">
     <g id="line2d_7">
      <path d="M 610.77625 339.84 
L 610.77625 7.2 
" clip-path="url(#p9b76f30765)" style="fill: none; stroke: #dedede; stroke-linecap: square"/>
     </g>
     <g id="text_7">
      <!-- 30 -->
      <g transform="translate(605.68625 352.91875)scale(0.08 -0.08)">
       <defs>
        <path id="DejaVuSans-33" d="M 2597 2516 
Q 3050 2419 3304 2112 
Q 3559 1806 3559 1356 
Q 3559 666 3084 287 
Q 2609 -91 1734 -91 
Q 1441 -91 1130 -33 
Q 819 25 488 141 
L 488 750 
Q 750 597 1062 519 
Q 1375 441 1716 441 
Q 2309 441 2620 675 
Q 2931 909 2931 1356 
Q 2931 1769 2642 2001 
Q 2353 2234 1838 2234 
L 1294 2234 
L 1294 2753 
L 1863 2753 
Q 2328 2753 2575 2939 
Q 2822 3125 2822 3475 
Q 2822 3834 2567 4026 
Q 2313 4219 1838 4219 
Q 1578 4219 1281 4162 
Q 984 4106 628 3988 
L 628 4550 
Q 988 4650 1302 4700 
Q 1616 4750 1894 4750 
Q 2613 4750 3031 4423 
Q 3450 4097 3450 3541 
Q 3450 3153 3228 2886 
Q 3006 2619 2597 2516 
z
" transform="scale(0.015625)"/>
       </defs>
       <use xlink:href="#DejaVuSans-33"/>
       <use xlink:href="#DejaVuSans-30" x="63.623047"/>
      </g>
     </g>
    </g>
    <g id="xtick_8">
     <g id="line2d_8">
      <path d="M 708.42625 339.84 
L 708.42625 7.2 
" clip-path="url(#p9b76f30765)" style="fill: none; stroke: #dedede; stroke-linecap: square"/>
     </g>
     <g id="text_8">
      <!-- 35 -->
      <g transform="translate(703.33625 352.91875)scale(0.08 -0.08)">
       <use xlink:href="#DejaVuSans-33"/>
       <use xlink:href="#DejaVuSans-35" x="63.623047"/>
      </g>
     </g>
    </g>
    <g id="xtick_9">
     <g id="line2d_9">
      <path d="M 806.07625 339.84 
L 806.07625 7.2 
" clip-path="url(#p9b76f30765)" style="fill: none; stroke: #dedede; stroke-linecap: square"/>
     </g>
     <g id="text_9">
      <!-- 40 -->
      <g transform="translate(800.98625 352.91875)scale(0.08 -0.08)">
       <defs>
        <path id="DejaVuSans-34" d="M 2419 4116 
L 825 1625 
L 2419 1625 
L 2419 4116 
z
M 2253 4666 
L 3047 4666 
L 3047 1625 
L 3713 1625 
L 3713 1100 
L 3047 1100 
L 3047 0 
L 2419 0 
L 2419 1100 
L 313 1100 
L 313 1709 
L 2253 4666 
z
" transform="scale(0.015625)"/>
       </defs>
       <use xlink:href="#DejaVuSans-34"/>
       <use xlink:href="#DejaVuSans-30" x="63.623047"/>
      </g>
     </g>
    </g>
    <g id="text_10">
     <!-- # Samples -->
     <g transform="translate(388.344219 366.180937)scale(0.1 -0.1)">
      <defs>
       <path id="DejaVuSans-23" d="M 3272 2816 
L 2363 2816 
L 2100 1772 
L 3016 1772 
L 3272 2816 
z
M 2803 4594 
L 2478 3297 
L 3391 3297 
L 3719 4594 
L 4219 4594 
L 3897 3297 
L 4872 3297 
L 4872 2816 
L 3775 2816 
L 3519 1772 
L 4513 1772 
L 4513 1294 
L 3397 1294 
L 3072 0 
L 2572 0 
L 2894 1294 
L 1978 1294 
L 1656 0 
L 1153 0 
L 1478 1294 
L 494 1294 
L 494 1772 
L 1594 1772 
L 1856 2816 
L 850 2816 
L 850 3297 
L 1978 3297 
L 2297 4594 
L 2803 4594 
z
" transform="scale(0.015625)"/>
       <path id="DejaVuSans-20" transform="scale(0.015625)"/>
       <path id="DejaVuSans-53" d="M 3425 4513 
L 3425 3897 
Q 3066 4069 2747 4153 
Q 2428 4238 2131 4238 
Q 1616 4238 1336 4038 
Q 1056 3838 1056 3469 
Q 1056 3159 1242 3001 
Q 1428 2844 1947 2747 
L 2328 2669 
Q 3034 2534 3370 2195 
Q 3706 1856 3706 1288 
Q 3706 609 3251 259 
Q 2797 -91 1919 -91 
Q 1588 -91 1214 -16 
Q 841 59 441 206 
L 441 856 
Q 825 641 1194 531 
Q 1563 422 1919 422 
Q 2459 422 2753 634 
Q 3047 847 3047 1241 
Q 3047 1584 2836 1778 
Q 2625 1972 2144 2069 
L 1759 2144 
Q 1053 2284 737 2584 
Q 422 2884 422 3419 
Q 422 4038 858 4394 
Q 1294 4750 2059 4750 
Q 2388 4750 2728 4690 
Q 3069 4631 3425 4513 
z
" transform="scale(0.015625)"/>
       <path id="DejaVuSans-61" d="M 2194 1759 
Q 1497 1759 1228 1600 
Q 959 1441 959 1056 
Q 959 750 1161 570 
Q 1363 391 1709 391 
Q 2188 391 2477 730 
Q 2766 1069 2766 1631 
L 2766 1759 
L 2194 1759 
z
M 3341 1997 
L 3341 0 
L 2766 0 
L 2766 531 
Q 2569 213 2275 61 
Q 1981 -91 1556 -91 
Q 1019 -91 701 211 
Q 384 513 384 1019 
Q 384 1609 779 1909 
Q 1175 2209 1959 2209 
L 2766 2209 
L 2766 2266 
Q 2766 2663 2505 2880 
Q 2244 3097 1772 3097 
Q 1472 3097 1187 3025 
Q 903 2953 641 2809 
L 641 3341 
Q 956 3463 1253 3523 
Q 1550 3584 1831 3584 
Q 2591 3584 2966 3190 
Q 3341 2797 3341 1997 
z
" transform="scale(0.015625)"/>
       <path id="DejaVuSans-6d" d="M 3328 2828 
Q 3544 3216 3844 3400 
Q 4144 3584 4550 3584 
Q 5097 3584 5394 3201 
Q 5691 2819 5691 2113 
L 5691 0 
L 5113 0 
L 5113 2094 
Q 5113 2597 4934 2840 
Q 4756 3084 4391 3084 
Q 3944 3084 3684 2787 
Q 3425 2491 3425 1978 
L 3425 0 
L 2847 0 
L 2847 2094 
Q 2847 2600 2669 2842 
Q 2491 3084 2119 3084 
Q 1678 3084 1418 2786 
Q 1159 2488 1159 1978 
L 1159 0 
L 581 0 
L 581 3500 
L 1159 3500 
L 1159 2956 
Q 1356 3278 1631 3431 
Q 1906 3584 2284 3584 
Q 2666 3584 2933 3390 
Q 3200 3197 3328 2828 
z
" transform="scale(0.015625)"/>
       <path id="DejaVuSans-70" d="M 1159 525 
L 1159 -1331 
L 581 -1331 
L 581 3500 
L 1159 3500 
L 1159 2969 
Q 1341 3281 1617 3432 
Q 1894 3584 2278 3584 
Q 2916 3584 3314 3078 
Q 3713 2572 3713 1747 
Q 3713 922 3314 415 
Q 2916 -91 2278 -91 
Q 1894 -91 1617 61 
Q 1341 213 1159 525 
z
M 3116 1747 
Q 3116 2381 2855 2742 
Q 2594 3103 2138 3103 
Q 1681 3103 1420 2742 
Q 1159 2381 1159 1747 
Q 1159 1113 1420 752 
Q 1681 391 2138 391 
Q 2594 391 2855 752 
Q 3116 1113 3116 1747 
z
" transform="scale(0.015625)"/>
       <path id="DejaVuSans-6c" d="M 603 4863 
L 1178 4863 
L 1178 0 
L 603 0 
L 603 4863 
z
" transform="scale(0.015625)"/>
       <path id="DejaVuSans-65" d="M 3597 1894 
L 3597 1613 
L 953 1613 
Q 991 1019 1311 708 
Q 1631 397 2203 397 
Q 2534 397 2845 478 
Q 3156 559 3463 722 
L 3463 178 
Q 3153 47 2828 -22 
Q 2503 -91 2169 -91 
Q 1331 -91 842 396 
Q 353 884 353 1716 
Q 353 2575 817 3079 
Q 1281 3584 2069 3584 
Q 2775 3584 3186 3129 
Q 3597 2675 3597 1894 
z
M 3022 2063 
Q 3016 2534 2758 2815 
Q 2500 3097 2075 3097 
Q 1594 3097 1305 2825 
Q 1016 2553 972 2059 
L 3022 2063 
z
" transform="scale(0.015625)"/>
       <path id="DejaVuSans-73" d="M 2834 3397 
L 2834 2853 
Q 2591 2978 2328 3040 
Q 2066 3103 1784 3103 
Q 1356 3103 1142 2972 
Q 928 2841 928 2578 
Q 928 2378 1081 2264 
Q 1234 2150 1697 2047 
L 1894 2003 
Q 2506 1872 2764 1633 
Q 3022 1394 3022 966 
Q 3022 478 2636 193 
Q 2250 -91 1575 -91 
Q 1294 -91 989 -36 
Q 684 19 347 128 
L 347 722 
Q 666 556 975 473 
Q 1284 391 1588 391 
Q 1994 391 2212 530 
Q 2431 669 2431 922 
Q 2431 1156 2273 1281 
Q 2116 1406 1581 1522 
L 1381 1569 
Q 847 1681 609 1914 
Q 372 2147 372 2553 
Q 372 3047 722 3315 
Q 1072 3584 1716 3584 
Q 2034 3584 2315 3537 
Q 2597 3491 2834 3397 
z
" transform="scale(0.015625)"/>
      </defs>
      <use xlink:href="#DejaVuSans-23"/>
      <use xlink:href="#DejaVuSans-20" x="83.789062"/>
      <use xlink:href="#DejaVuSans-53" x="115.576172"/>
      <use xlink:href="#DejaVuSans-61" x="179.052734"/>
      <use xlink:href="#DejaVuSans-6d" x="240.332031"/>
      <use xlink:href="#DejaVuSans-70" x="337.744141"/>
      <use xlink:href="#DejaVuSans-6c" x="401.220703"/>
      <use xlink:href="#DejaVuSans-65" x="429.003906"/>
      <use xlink:href="#DejaVuSans-73" x="490.527344"/>
     </g>
    </g>
   </g>
   <g id="matplotlib.axis_2">
    <g id="ytick_1">
     <g id="text_11">
      <!-- A1 -->
      <g transform="translate(7.31375 37.959375)scale(0.08 -0.08)">
       <defs>
        <path id="DejaVuSans-41" d="M 2188 4044 
L 1331 1722 
L 3047 1722 
L 2188 4044 
z
M 1831 4666 
L 2547 4666 
L 4325 0 
L 3669 0 
L 3244 1197 
L 1141 1197 
L 716 0 
L 50 0 
L 1831 4666 
z
" transform="scale(0.015625)"/>
       </defs>
       <use xlink:href="#DejaVuSans-41"/>
       <use xlink:href="#DejaVuSans-31" x="68.408203"/>
      </g>
     </g>
    </g>
    <g id="ytick_2">
     <g id="text_12">
      <!-- A2 -->
      <g transform="translate(7.31375 93.399375)scale(0.08 -0.08)">
       <use xlink:href="#DejaVuSans-41"/>
       <use xlink:href="#DejaVuSans-32" x="68.408203"/>
      </g>
     </g>
    </g>
    <g id="ytick_3">
     <g id="text_13">
      <!-- B1 -->
      <g transform="translate(7.2975 148.839375)scale(0.08 -0.08)">
       <defs>
        <path id="DejaVuSans-42" d="M 1259 2228 
L 1259 519 
L 2272 519 
Q 2781 519 3026 730 
Q 3272 941 3272 1375 
Q 3272 1813 3026 2020 
Q 2781 2228 2272 2228 
L 1259 2228 
z
M 1259 4147 
L 1259 2741 
L 2194 2741 
Q 2656 2741 2882 2914 
Q 3109 3088 3109 3444 
Q 3109 3797 2882 3972 
Q 2656 4147 2194 4147 
L 1259 4147 
z
M 628 4666 
L 2241 4666 
Q 2963 4666 3353 4366 
Q 3744 4066 3744 3513 
Q 3744 3084 3544 2831 
Q 3344 2578 2956 2516 
Q 3422 2416 3680 2098 
Q 3938 1781 3938 1306 
Q 3938 681 3513 340 
Q 3088 0 2303 0 
L 628 0 
L 628 4666 
z
" transform="scale(0.015625)"/>
       </defs>
       <use xlink:href="#DejaVuSans-42"/>
       <use xlink:href="#DejaVuSans-31" x="68.603516"/>
      </g>
     </g>
    </g>
    <g id="ytick_4">
     <g id="text_14">
      <!-- B2 -->
      <g transform="translate(7.2975 204.279375)scale(0.08 -0.08)">
       <use xlink:href="#DejaVuSans-42"/>
       <use xlink:href="#DejaVuSans-32" x="68.603516"/>
      </g>
     </g>
    </g>
    <g id="ytick_5">
     <g id="text_15">
      <!-- C1 -->
      <g transform="translate(7.2 259.719375)scale(0.08 -0.08)">
       <defs>
        <path id="DejaVuSans-43" d="M 4122 4306 
L 4122 3641 
Q 3803 3938 3442 4084 
Q 3081 4231 2675 4231 
Q 1875 4231 1450 3742 
Q 1025 3253 1025 2328 
Q 1025 1406 1450 917 
Q 1875 428 2675 428 
Q 3081 428 3442 575 
Q 3803 722 4122 1019 
L 4122 359 
Q 3791 134 3420 21 
Q 3050 -91 2638 -91 
Q 1578 -91 968 557 
Q 359 1206 359 2328 
Q 359 3453 968 4101 
Q 1578 4750 2638 4750 
Q 3056 4750 3426 4639 
Q 3797 4528 4122 4306 
z
" transform="scale(0.015625)"/>
       </defs>
       <use xlink:href="#DejaVuSans-43"/>
       <use xlink:href="#DejaVuSans-31" x="69.824219"/>
      </g>
     </g>
    </g>
    <g id="ytick_6">
     <g id="text_16">
      <!-- C2 -->
      <g transform="translate(7.2 315.159375)scale(0.08 -0.08)">
       <use xlink:href="#DejaVuSans-43"/>
       <use xlink:href="#DejaVuSans-32" x="69.824219"/>
      </g>
     </g>
    </g>
   </g>
   <g id="patch_2">
    <path d="M 24.87625 12.744 
L 142.05625 12.744 
L 142.05625 57.096 
L 24.87625 57.096 
z
" clip-path="url(#p9b76f30765)" style="fill: #7cb5ec"/>
   </g>
   <g id="patch_3">
    <path d="M 24.87625 68.184 
L 24.87625 68.184 
L 24.87625 112.536 
L 24.87625 112.536 
z
" clip-path="url(#p9b76f30765)" style="fill: #7cb5ec"/>
   </g>
   <g id="patch_4">
    <path d="M 24.87625 123.624 
L 24.87625 123.624 
L 24.87625 167.976 
L 24.87625 167.976 
z
" clip-path="url(#p9b76f30765)" style="fill: #7cb5ec"/>
   </g>
   <g id="patch_5">
    <path d="M 24.87625 179.064 
L 24.87625 179.064 
L 24.87625 223.416 
L 24.87625 223.416 
z
" clip-path="url(#p9b76f30765)" style="fill: #7cb5ec"/>
   </g>
   <g id="patch_6">
    <path d="M 24.87625 234.504 
L 24.87625 234.504 
L 24.87625 278.856 
L 24.87625 278.856 
z
" clip-path="url(#p9b76f30765)" style="fill: #7cb5ec"/>
   </g>
   <g id="patch_7">
    <path d="M 24.87625 289.944 
L 24.87625 289.944 
L 24.87625 334.296 
L 24.87625 334.296 
z
" clip-path="url(#p9b76f30765)" style="fill: #7cb5ec"/>
   </g>
   <g id="patch_8">
    <path d="M 142.05625 12.744 
L 356.88625 12.744 
L 356.88625 57.096 
L 142.05625 57.096 
z
" clip-path="url(#p9b76f30765)" style="fill: #434348"/>
   </g>
   <g id="patch_9">
    <path d="M 24.87625 68.184 
L 259.23625 68.184 
L 259.23625 112.536 
L 24.87625 112.536 
z
" clip-path="url(#p9b76f30765)" style="fill: #434348"/>
   </g>
   <g id="patch_10">
    <path d="M 24.87625 123.624 
L 24.87625 123.624 
L 24.87625 167.976 
L 24.87625 167.976 
z
" clip-path="url(#p9b76f30765)" style="fill: #434348"/>
   </g>
   <g id="patch_11">
    <path d="M 24.87625 179.064 
L 24.87625 179.064 
L 24.87625 223.416 
L 24.87625 223.416 
z
" clip-path="url(#p9b76f30765)" style="fill: #434348"/>
   </g>
   <g id="patch_12">
    <path d="M 24.87625 234.504 
L 24.87625 234.504 
L 24.87625 278.856 
L 24.87625 278.856 
z
" clip-path="url(#p9b76f30765)" style="fill: #434348"/>
   </g>
   <g id="patch_13">
    <path d="M 24.87625 289.944 
L 24.87625 289.944 
L 24.87625 334.296 
L 24.87625 334.296 
z
" clip-path="url(#p9b76f30765)" style="fill: #434348"/>
   </g>
   <g id="patch_14">
    <path d="M 356.88625 12.744 
L 435.00625 12.744 
L 435.00625 57.096 
L 356.88625 57.096 
z
" clip-path="url(#p9b76f30765)" style="fill: #90ed7d"/>
   </g>
   <g id="patch_15">
    <path d="M 259.23625 68.184 
L 376.41625 68.184 
L 376.41625 112.536 
L 259.23625 112.536 
z
" clip-path="url(#p9b76f30765)" style="fill: #90ed7d"/>
   </g>
   <g id="patch_16">
    <path d="M 24.87625 123.624 
L 24.87625 123.624 
L 24.87625 167.976 
L 24.87625 167.976 
z
" clip-path="url(#p9b76f30765)" style="fill: #90ed7d"/>
   </g>
   <g id="patch_17">
    <path d="M 24.87625 179.064 
L 24.87625 179.064 
L 24.87625 223.416 
L 24.87625 223.416 
z
" clip-path="url(#p9b76f30765)" style="fill: #90ed7d"/>
   </g>
   <g id="patch_18">
    <path d="M 24.87625 234.504 
L 24.87625 234.504 
L 24.87625 278.856 
L 24.87625 278.856 
z
" clip-path="url(#p9b76f30765)" style="fill: #90ed7d"/>
   </g>
   <g id="patch_19">
    <path d="M 24.87625 289.944 
L 24.87625 289.944 
L 24.87625 334.296 
L 24.87625 334.296 
z
" clip-path="url(#p9b76f30765)" style="fill: #90ed7d"/>
   </g>
   <g id="patch_20">
    <path d="M 435.00625 12.744 
L 669.36625 12.744 
L 669.36625 57.096 
L 435.00625 57.096 
z
" clip-path="url(#p9b76f30765)" style="fill: #f7a35c"/>
   </g>
   <g id="patch_21">
    <path d="M 376.41625 68.184 
L 571.71625 68.184 
L 571.71625 112.536 
L 376.41625 112.536 
z
" clip-path="url(#p9b76f30765)" style="fill: #f7a35c"/>
   </g>
   <g id="patch_22">
    <path d="M 24.87625 123.624 
L 24.87625 123.624 
L 24.87625 167.976 
L 24.87625 167.976 
z
" clip-path="url(#p9b76f30765)" style="fill: #f7a35c"/>
   </g>
   <g id="patch_23">
    <path d="M 24.87625 179.064 
L 24.87625 179.064 
L 24.87625 223.416 
L 24.87625 223.416 
z
" clip-path="url(#p9b76f30765)" style="fill: #f7a35c"/>
   </g>
   <g id="patch_24">
    <path d="M 24.87625 234.504 
L 24.87625 234.504 
L 24.87625 278.856 
L 24.87625 278.856 
z
" clip-path="url(#p9b76f30765)" style="fill: #f7a35c"/>
   </g>
   <g id="patch_25">
    <path d="M 24.87625 289.944 
L 24.87625 289.944 
L 24.87625 334.296 
L 24.87625 334.296 
z
" clip-path="url(#p9b76f30765)" style="fill: #f7a35c"/>
   </g>
   <g id="patch_26">
    <path d="M 669.36625 12.744 
L 767.01625 12.744 
L 767.01625 57.096 
L 669.36625 57.096 
z
" clip-path="url(#p9b76f30765)" style="fill: #8085e9"/>
   </g>
   <g id="patch_27">
    <path d="M 571.71625 68.184 
L 806.07625 68.184 
L 806.07625 112.536 
L 571.71625 112.536 
z
" clip-path="url(#p9b76f30765)" style="fill: #8085e9"/>
   </g>
   <g id="patch_28">
    <path d="M 24.87625 123.624 
L 24.87625 123.624 
L 24.87625 167.976 
L 24.87625 167.976 
z
" clip-path="url(#p9b76f30765)" style="fill: #8085e9"/>
   </g>
   <g id="patch_29">
    <path d="M 24.87625 179.064 
L 24.87625 179.064 
L 24.87625 223.416 
L 24.87625 223.416 
z
" clip-path="url(#p9b76f30765)" style="fill: #8085e9"/>
   </g>
   <g id="patch_30">
    <path d="M 24.87625 234.504 
L 24.87625 234.504 
L 24.87625 278.856 
L 24.87625 278.856 
z
" clip-path="url(#p9b76f30765)" style="fill: #8085e9"/>
   </g>
   <g id="patch_31">
    <path d="M 24.87625 289.944 
L 24.87625 289.944 
L 24.87625 334.296 
L 24.87625 334.296 
z
" clip-path="url(#p9b76f30765)" style="fill: #8085e9"/>
   </g>
   <g id="patch_32">
    <path d="M 767.01625 12.744 
L 806.07625 12.744 
L 806.07625 57.096 
L 767.01625 57.096 
z
" clip-path="url(#p9b76f30765)" style="fill: #f15c80"/>
   </g>
   <g id="patch_33">
    <path d="M 806.07625 68.184 
L 806.07625 68.184 
L 806.07625 112.536 
L 806.07625 112.536 
z
" clip-path="url(#p9b76f30765)" style="fill: #f15c80"/>
   </g>
   <g id="patch_34">
    <path d="M 24.87625 123.624 
L 24.87625 123.624 
L 24.87625 167.976 
L 24.87625 167.976 
z
" clip-path="url(#p9b76f30765)" style="fill: #f15c80"/>
   </g>
   <g id="patch_35">
    <path d="M 24.87625 179.064 
L 24.87625 179.064 
L 24.87625 223.416 
L 24.87625 223.416 
z
" clip-path="url(#p9b76f30765)" style="fill: #f15c80"/>
   </g>
   <g id="patch_36">
    <path d="M 24.87625 234.504 
L 24.87625 234.504 
L 24.87625 278.856 
L 24.87625 278.856 
z
" clip-path="url(#p9b76f30765)" style="fill: #f15c80"/>
   </g>
   <g id="patch_37">
    <path d="M 24.87625 289.944 
L 24.87625 289.944 
L 24.87625 334.296 
L 24.87625 334.296 
z
" clip-path="url(#p9b76f30765)" style="fill: #f15c80"/>
   </g>
   <g id="patch_38">
    <path d="M 806.07625 12.744 
L 806.07625 12.744 
L 806.07625 57.096 
L 806.07625 57.096 
z
" clip-path="url(#p9b76f30765)" style="fill: #e4d354"/>
   </g>
   <g id="patch_39">
    <path d="M 806.07625 68.184 
L 806.07625 68.184 
L 806.07625 112.536 
L 806.07625 112.536 
z
" clip-path="url(#p9b76f30765)" style="fill: #e4d354"/>
   </g>
   <g id="patch_40">
    <path d="M 24.87625 123.624 
L 142.05625 123.624 
L 142.05625 167.976 
L 24.87625 167.976 
z
" clip-path="url(#p9b76f30765)" style="fill: #e4d354"/>
   </g>
   <g id="patch_41">
    <path d="M 24.87625 179.064 
L 24.87625 179.064 
L 24.87625 223.416 
L 24.87625 223.416 
z
" clip-path="url(#p9b76f30765)" style="fill: #e4d354"/>
   </g>
   <g id="patch_42">
    <path d="M 24.87625 234.504 
L 24.87625 234.504 
L 24.87625 278.856 
L 24.87625 278.856 
z
" clip-path="url(#p9b76f30765)" style="fill: #e4d354"/>
   </g>
   <g id="patch_43">
    <path d="M 24.87625 289.944 
L 24.87625 289.944 
L 24.87625 334.296 
L 24.87625 334.296 
z
" clip-path="url(#p9b76f30765)" style="fill: #e4d354"/>
   </g>
   <g id="patch_44">
    <path d="M 806.07625 12.744 
L 806.07625 12.744 
L 806.07625 57.096 
L 806.07625 57.096 
z
" clip-path="url(#p9b76f30765)" style="fill: #2b908f"/>
   </g>
   <g id="patch_45">
    <path d="M 806.07625 68.184 
L 806.07625 68.184 
L 806.07625 112.536 
L 806.07625 112.536 
z
" clip-path="url(#p9b76f30765)" style="fill: #2b908f"/>
   </g>
   <g id="patch_46">
    <path d="M 142.05625 123.624 
L 356.88625 123.624 
L 356.88625 167.976 
L 142.05625 167.976 
z
" clip-path="url(#p9b76f30765)" style="fill: #2b908f"/>
   </g>
   <g id="patch_47">
    <path d="M 24.87625 179.064 
L 24.87625 179.064 
L 24.87625 223.416 
L 24.87625 223.416 
z
" clip-path="url(#p9b76f30765)" style="fill: #2b908f"/>
   </g>
   <g id="patch_48">
    <path d="M 24.87625 234.504 
L 24.87625 234.504 
L 24.87625 278.856 
L 24.87625 278.856 
z
" clip-path="url(#p9b76f30765)" style="fill: #2b908f"/>
   </g>
   <g id="patch_49">
    <path d="M 24.87625 289.944 
L 24.87625 289.944 
L 24.87625 334.296 
L 24.87625 334.296 
z
" clip-path="url(#p9b76f30765)" style="fill: #2b908f"/>
   </g>
   <g id="patch_50">
    <path d="M 806.07625 12.744 
L 806.07625 12.744 
L 806.07625 57.096 
L 806.07625 57.096 
z
" clip-path="url(#p9b76f30765)" style="fill: #f45b5b"/>
   </g>
   <g id="patch_51">
    <path d="M 806.07625 68.184 
L 806.07625 68.184 
L 806.07625 112.536 
L 806.07625 112.536 
z
" clip-path="url(#p9b76f30765)" style="fill: #f45b5b"/>
   </g>
   <g id="patch_52">
    <path d="M 356.88625 123.624 
L 474.06625 123.624 
L 474.06625 167.976 
L 356.88625 167.976 
z
" clip-path="url(#p9b76f30765)" style="fill: #f45b5b"/>
   </g>
   <g id="patch_53">
    <path d="M 24.87625 179.064 
L 102.99625 179.064 
L 102.99625 223.416 
L 24.87625 223.416 
z
" clip-path="url(#p9b76f30765)" style="fill: #f45b5b"/>
   </g>
   <g id="patch_54">
    <path d="M 24.87625 234.504 
L 24.87625 234.504 
L 24.87625 278.856 
L 24.87625 278.856 
z
" clip-path="url(#p9b76f30765)" style="fill: #f45b5b"/>
   </g>
   <g id="patch_55">
    <path d="M 24.87625 289.944 
L 24.87625 289.944 
L 24.87625 334.296 
L 24.87625 334.296 
z
" clip-path="url(#p9b76f30765)" style="fill: #f45b5b"/>
   </g>
   <g id="patch_56">
    <path d="M 806.07625 12.744 
L 806.07625 12.744 
L 806.07625 57.096 
L 806.07625 57.096 
z
" clip-path="url(#p9b76f30765)" style="fill: #91e8e1"/>
   </g>
   <g id="patch_57">
    <path d="M 806.07625 68.184 
L 806.07625 68.184 
L 806.07625 112.536 
L 806.07625 112.536 
z
" clip-path="url(#p9b76f30765)" style="fill: #91e8e1"/>
   </g>
   <g id="patch_58">
    <path d="M 474.06625 123.624 
L 669.36625 123.624 
L 669.36625 167.976 
L 474.06625 167.976 
z
" clip-path="url(#p9b76f30765)" style="fill: #91e8e1"/>
   </g>
   <g id="patch_59">
    <path d="M 102.99625 179.064 
L 102.99625 179.064 
L 102.99625 223.416 
L 102.99625 223.416 
z
" clip-path="url(#p9b76f30765)" style="fill: #91e8e1"/>
   </g>
   <g id="patch_60">
    <path d="M 24.87625 234.504 
L 24.87625 234.504 
L 24.87625 278.856 
L 24.87625 278.856 
z
" clip-path="url(#p9b76f30765)" style="fill: #91e8e1"/>
   </g>
   <g id="patch_61">
    <path d="M 24.87625 289.944 
L 24.87625 289.944 
L 24.87625 334.296 
L 24.87625 334.296 
z
" clip-path="url(#p9b76f30765)" style="fill: #91e8e1"/>
   </g>
   <g id="patch_62">
    <path d="M 806.07625 12.744 
L 806.07625 12.744 
L 806.07625 57.096 
L 806.07625 57.096 
z
" clip-path="url(#p9b76f30765)" style="fill: #7cb5ec"/>
   </g>
   <g id="patch_63">
    <path d="M 806.07625 68.184 
L 806.07625 68.184 
L 806.07625 112.536 
L 806.07625 112.536 
z
" clip-path="url(#p9b76f30765)" style="fill: #7cb5ec"/>
   </g>
   <g id="patch_64">
    <path d="M 669.36625 123.624 
L 708.42625 123.624 
L 708.42625 167.976 
L 669.36625 167.976 
z
" clip-path="url(#p9b76f30765)" style="fill: #7cb5ec"/>
   </g>
   <g id="patch_65">
    <path d="M 102.99625 179.064 
L 102.99625 179.064 
L 102.99625 223.416 
L 102.99625 223.416 
z
" clip-path="url(#p9b76f30765)" style="fill: #7cb5ec"/>
   </g>
   <g id="patch_66">
    <path d="M 24.87625 234.504 
L 24.87625 234.504 
L 24.87625 278.856 
L 24.87625 278.856 
z
" clip-path="url(#p9b76f30765)" style="fill: #7cb5ec"/>
   </g>
   <g id="patch_67">
    <path d="M 24.87625 289.944 
L 24.87625 289.944 
L 24.87625 334.296 
L 24.87625 334.296 
z
" clip-path="url(#p9b76f30765)" style="fill: #7cb5ec"/>
   </g>
   <g id="patch_68">
    <path d="M 806.07625 12.744 
L 806.07625 12.744 
L 806.07625 57.096 
L 806.07625 57.096 
z
" clip-path="url(#p9b76f30765)" style="fill: #434348"/>
   </g>
   <g id="patch_69">
    <path d="M 806.07625 68.184 
L 806.07625 68.184 
L 806.07625 112.536 
L 806.07625 112.536 
z
" clip-path="url(#p9b76f30765)" style="fill: #434348"/>
   </g>
   <g id="patch_70">
    <path d="M 708.42625 123.624 
L 806.07625 123.624 
L 806.07625 167.976 
L 708.42625 167.976 
z
" clip-path="url(#p9b76f30765)" style="fill: #434348"/>
   </g>
   <g id="patch_71">
    <path d="M 102.99625 179.064 
L 181.11625 179.064 
L 181.11625 223.416 
L 102.99625 223.416 
z
" clip-path="url(#p9b76f30765)" style="fill: #434348"/>
   </g>
   <g id="patch_72">
    <path d="M 24.87625 234.504 
L 24.87625 234.504 
L 24.87625 278.856 
L 24.87625 278.856 
z
" clip-path="url(#p9b76f30765)" style="fill: #434348"/>
   </g>
   <g id="patch_73">
    <path d="M 24.87625 289.944 
L 24.87625 289.944 
L 24.87625 334.296 
L 24.87625 334.296 
z
" clip-path="url(#p9b76f30765)" style="fill: #434348"/>
   </g>
   <g id="patch_74">
    <path d="M 806.07625 12.744 
L 806.07625 12.744 
L 806.07625 57.096 
L 806.07625 57.096 
z
" clip-path="url(#p9b76f30765)" style="fill: #90ed7d"/>
   </g>
   <g id="patch_75">
    <path d="M 806.07625 68.184 
L 806.07625 68.184 
L 806.07625 112.536 
L 806.07625 112.536 
z
" clip-path="url(#p9b76f30765)" style="fill: #90ed7d"/>
   </g>
   <g id="patch_76">
    <path d="M 806.07625 123.624 
L 806.07625 123.624 
L 806.07625 167.976 
L 806.07625 167.976 
z
" clip-path="url(#p9b76f30765)" style="fill: #90ed7d"/>
   </g>
   <g id="patch_77">
    <path d="M 181.11625 179.064 
L 415.47625 179.064 
L 415.47625 223.416 
L 181.11625 223.416 
z
" clip-path="url(#p9b76f30765)" style="fill: #90ed7d"/>
   </g>
   <g id="patch_78">
    <path d="M 24.87625 234.504 
L 24.87625 234.504 
L 24.87625 278.856 
L 24.87625 278.856 
z
" clip-path="url(#p9b76f30765)" style="fill: #90ed7d"/>
   </g>
   <g id="patch_79">
    <path d="M 24.87625 289.944 
L 24.87625 289.944 
L 24.87625 334.296 
L 24.87625 334.296 
z
" clip-path="url(#p9b76f30765)" style="fill: #90ed7d"/>
   </g>
   <g id="patch_80">
    <path d="M 806.07625 12.744 
L 806.07625 12.744 
L 806.07625 57.096 
L 806.07625 57.096 
z
" clip-path="url(#p9b76f30765)" style="fill: #f7a35c"/>
   </g>
   <g id="patch_81">
    <path d="M 806.07625 68.184 
L 806.07625 68.184 
L 806.07625 112.536 
L 806.07625 112.536 
z
" clip-path="url(#p9b76f30765)" style="fill: #f7a35c"/>
   </g>
   <g id="patch_82">
    <path d="M 806.07625 123.624 
L 806.07625 123.624 
L 806.07625 167.976 
L 806.07625 167.976 
z
" clip-path="url(#p9b76f30765)" style="fill: #f7a35c"/>
   </g>
   <g id="patch_83">
    <path d="M 415.47625 179.064 
L 532.65625 179.064 
L 532.65625 223.416 
L 415.47625 223.416 
z
" clip-path="url(#p9b76f30765)" style="fill: #f7a35c"/>
   </g>
   <g id="patch_84">
    <path d="M 24.87625 234.504 
L 24.87625 234.504 
L 24.87625 278.856 
L 24.87625 278.856 
z
" clip-path="url(#p9b76f30765)" style="fill: #f7a35c"/>
   </g>
   <g id="patch_85">
    <path d="M 24.87625 289.944 
L 24.87625 289.944 
L 24.87625 334.296 
L 24.87625 334.296 
z
" clip-path="url(#p9b76f30765)" style="fill: #f7a35c"/>
   </g>
   <g id="patch_86">
    <path d="M 806.07625 12.744 
L 806.07625 12.744 
L 806.07625 57.096 
L 806.07625 57.096 
z
" clip-path="url(#p9b76f30765)" style="fill: #8085e9"/>
   </g>
   <g id="patch_87">
    <path d="M 806.07625 68.184 
L 806.07625 68.184 
L 806.07625 112.536 
L 806.07625 112.536 
z
" clip-path="url(#p9b76f30765)" style="fill: #8085e9"/>
   </g>
   <g id="patch_88">
    <path d="M 806.07625 123.624 
L 806.07625 123.624 
L 806.07625 167.976 
L 806.07625 167.976 
z
" clip-path="url(#p9b76f30765)" style="fill: #8085e9"/>
   </g>
   <g id="patch_89">
    <path d="M 532.65625 179.064 
L 571.71625 179.064 
L 571.71625 223.416 
L 532.65625 223.416 
z
" clip-path="url(#p9b76f30765)" style="fill: #8085e9"/>
   </g>
   <g id="patch_90">
    <path d="M 24.87625 234.504 
L 24.87625 234.504 
L 24.87625 278.856 
L 24.87625 278.856 
z
" clip-path="url(#p9b76f30765)" style="fill: #8085e9"/>
   </g>
   <g id="patch_91">
    <path d="M 24.87625 289.944 
L 24.87625 289.944 
L 24.87625 334.296 
L 24.87625 334.296 
z
" clip-path="url(#p9b76f30765)" style="fill: #8085e9"/>
   </g>
   <g id="patch_92">
    <path d="M 806.07625 12.744 
L 806.07625 12.744 
L 806.07625 57.096 
L 806.07625 57.096 
z
" clip-path="url(#p9b76f30765)" style="fill: #f15c80"/>
   </g>
   <g id="patch_93">
    <path d="M 806.07625 68.184 
L 806.07625 68.184 
L 806.07625 112.536 
L 806.07625 112.536 
z
" clip-path="url(#p9b76f30765)" style="fill: #f15c80"/>
   </g>
   <g id="patch_94">
    <path d="M 806.07625 123.624 
L 806.07625 123.624 
L 806.07625 167.976 
L 806.07625 167.976 
z
" clip-path="url(#p9b76f30765)" style="fill: #f15c80"/>
   </g>
   <g id="patch_95">
    <path d="M 571.71625 179.064 
L 767.01625 179.064 
L 767.01625 223.416 
L 571.71625 223.416 
z
" clip-path="url(#p9b76f30765)" style="fill: #f15c80"/>
   </g>
   <g id="patch_96">
    <path d="M 24.87625 234.504 
L 24.87625 234.504 
L 24.87625 278.856 
L 24.87625 278.856 
z
" clip-path="url(#p9b76f30765)" style="fill: #f15c80"/>
   </g>
   <g id="patch_97">
    <path d="M 24.87625 289.944 
L 24.87625 289.944 
L 24.87625 334.296 
L 24.87625 334.296 
z
" clip-path="url(#p9b76f30765)" style="fill: #f15c80"/>
   </g>
   <g id="patch_98">
    <path d="M 806.07625 12.744 
L 806.07625 12.744 
L 806.07625 57.096 
L 806.07625 57.096 
z
" clip-path="url(#p9b76f30765)" style="fill: #e4d354"/>
   </g>
   <g id="patch_99">
    <path d="M 806.07625 68.184 
L 806.07625 68.184 
L 806.07625 112.536 
L 806.07625 112.536 
z
" clip-path="url(#p9b76f30765)" style="fill: #e4d354"/>
   </g>
   <g id="patch_100">
    <path d="M 806.07625 123.624 
L 806.07625 123.624 
L 806.07625 167.976 
L 806.07625 167.976 
z
" clip-path="url(#p9b76f30765)" style="fill: #e4d354"/>
   </g>
   <g id="patch_101">
    <path d="M 767.01625 179.064 
L 806.07625 179.064 
L 806.07625 223.416 
L 767.01625 223.416 
z
" clip-path="url(#p9b76f30765)" style="fill: #e4d354"/>
   </g>
   <g id="patch_102">
    <path d="M 24.87625 234.504 
L 24.87625 234.504 
L 24.87625 278.856 
L 24.87625 278.856 
z
" clip-path="url(#p9b76f30765)" style="fill: #e4d354"/>
   </g>
   <g id="patch_103">
    <path d="M 24.87625 289.944 
L 24.87625 289.944 
L 24.87625 334.296 
L 24.87625 334.296 
z
" clip-path="url(#p9b76f30765)" style="fill: #e4d354"/>
   </g>
   <g id="patch_104">
    <path d="M 806.07625 12.744 
L 806.07625 12.744 
L 806.07625 57.096 
L 806.07625 57.096 
z
" clip-path="url(#p9b76f30765)" style="fill: #2b908f"/>
   </g>
   <g id="patch_105">
    <path d="M 806.07625 68.184 
L 806.07625 68.184 
L 806.07625 112.536 
L 806.07625 112.536 
z
" clip-path="url(#p9b76f30765)" style="fill: #2b908f"/>
   </g>
   <g id="patch_106">
    <path d="M 806.07625 123.624 
L 806.07625 123.624 
L 806.07625 167.976 
L 806.07625 167.976 
z
" clip-path="url(#p9b76f30765)" style="fill: #2b908f"/>
   </g>
   <g id="patch_107">
    <path d="M 806.07625 179.064 
L 806.07625 179.064 
L 806.07625 223.416 
L 806.07625 223.416 
z
" clip-path="url(#p9b76f30765)" style="fill: #2b908f"/>
   </g>
   <g id="patch_108">
    <path d="M 24.87625 234.504 
L 259.23625 234.504 
L 259.23625 278.856 
L 24.87625 278.856 
z
" clip-path="url(#p9b76f30765)" style="fill: #2b908f"/>
   </g>
   <g id="patch_109">
    <path d="M 24.87625 289.944 
L 24.87625 289.944 
L 24.87625 334.296 
L 24.87625 334.296 
z
" clip-path="url(#p9b76f30765)" style="fill: #2b908f"/>
   </g>
   <g id="patch_110">
    <path d="M 806.07625 12.744 
L 806.07625 12.744 
L 806.07625 57.096 
L 806.07625 57.096 
z
" clip-path="url(#p9b76f30765)" style="fill: #f45b5b"/>
   </g>
   <g id="patch_111">
    <path d="M 806.07625 68.184 
L 806.07625 68.184 
L 806.07625 112.536 
L 806.07625 112.536 
z
" clip-path="url(#p9b76f30765)" style="fill: #f45b5b"/>
   </g>
   <g id="patch_112">
    <path d="M 806.07625 123.624 
L 806.07625 123.624 
L 806.07625 167.976 
L 806.07625 167.976 
z
" clip-path="url(#p9b76f30765)" style="fill: #f45b5b"/>
   </g>
   <g id="patch_113">
    <path d="M 806.07625 179.064 
L 806.07625 179.064 
L 806.07625 223.416 
L 806.07625 223.416 
z
" clip-path="url(#p9b76f30765)" style="fill: #f45b5b"/>
   </g>
   <g id="patch_114">
    <path d="M 259.23625 234.504 
L 376.41625 234.504 
L 376.41625 278.856 
L 259.23625 278.856 
z
" clip-path="url(#p9b76f30765)" style="fill: #f45b5b"/>
   </g>
   <g id="patch_115">
    <path d="M 24.87625 289.944 
L 24.87625 289.944 
L 24.87625 334.296 
L 24.87625 334.296 
z
" clip-path="url(#p9b76f30765)" style="fill: #f45b5b"/>
   </g>
   <g id="patch_116">
    <path d="M 806.07625 12.744 
L 806.07625 12.744 
L 806.07625 57.096 
L 806.07625 57.096 
z
" clip-path="url(#p9b76f30765)" style="fill: #91e8e1"/>
   </g>
   <g id="patch_117">
    <path d="M 806.07625 68.184 
L 806.07625 68.184 
L 806.07625 112.536 
L 806.07625 112.536 
z
" clip-path="url(#p9b76f30765)" style="fill: #91e8e1"/>
   </g>
   <g id="patch_118">
    <path d="M 806.07625 123.624 
L 806.07625 123.624 
L 806.07625 167.976 
L 806.07625 167.976 
z
" clip-path="url(#p9b76f30765)" style="fill: #91e8e1"/>
   </g>
   <g id="patch_119">
    <path d="M 806.07625 179.064 
L 806.07625 179.064 
L 806.07625 223.416 
L 806.07625 223.416 
z
" clip-path="url(#p9b76f30765)" style="fill: #91e8e1"/>
   </g>
   <g id="patch_120">
    <path d="M 376.41625 234.504 
L 454.53625 234.504 
L 454.53625 278.856 
L 376.41625 278.856 
z
" clip-path="url(#p9b76f30765)" style="fill: #91e8e1"/>
   </g>
   <g id="patch_121">
    <path d="M 24.87625 289.944 
L 278.76625 289.944 
L 278.76625 334.296 
L 24.87625 334.296 
z
" clip-path="url(#p9b76f30765)" style="fill: #91e8e1"/>
   </g>
   <g id="patch_122">
    <path d="M 806.07625 12.744 
L 806.07625 12.744 
L 806.07625 57.096 
L 806.07625 57.096 
z
" clip-path="url(#p9b76f30765)" style="fill: #7cb5ec"/>
   </g>
   <g id="patch_123">
    <path d="M 806.07625 68.184 
L 806.07625 68.184 
L 806.07625 112.536 
L 806.07625 112.536 
z
" clip-path="url(#p9b76f30765)" style="fill: #7cb5ec"/>
   </g>
   <g id="patch_124">
    <path d="M 806.07625 123.624 
L 806.07625 123.624 
L 806.07625 167.976 
L 806.07625 167.976 
z
" clip-path="url(#p9b76f30765)" style="fill: #7cb5ec"/>
   </g>
   <g id="patch_125">
    <path d="M 806.07625 179.064 
L 806.07625 179.064 
L 806.07625 223.416 
L 806.07625 223.416 
z
" clip-path="url(#p9b76f30765)" style="fill: #7cb5ec"/>
   </g>
   <g id="patch_126">
    <path d="M 454.53625 234.504 
L 493.59625 234.504 
L 493.59625 278.856 
L 454.53625 278.856 
z
" clip-path="url(#p9b76f30765)" style="fill: #7cb5ec"/>
   </g>
   <g id="patch_127">
    <path d="M 278.76625 289.944 
L 278.76625 289.944 
L 278.76625 334.296 
L 278.76625 334.296 
z
" clip-path="url(#p9b76f30765)" style="fill: #7cb5ec"/>
   </g>
   <g id="patch_128">
    <path d="M 806.07625 12.744 
L 806.07625 12.744 
L 806.07625 57.096 
L 806.07625 57.096 
z
" clip-path="url(#p9b76f30765)" style="fill: #434348"/>
   </g>
   <g id="patch_129">
    <path d="M 806.07625 68.184 
L 806.07625 68.184 
L 806.07625 112.536 
L 806.07625 112.536 
z
" clip-path="url(#p9b76f30765)" style="fill: #434348"/>
   </g>
   <g id="patch_130">
    <path d="M 806.07625 123.624 
L 806.07625 123.624 
L 806.07625 167.976 
L 806.07625 167.976 
z
" clip-path="url(#p9b76f30765)" style="fill: #434348"/>
   </g>
   <g id="patch_131">
    <path d="M 806.07625 179.064 
L 806.07625 179.064 
L 806.07625 223.416 
L 806.07625 223.416 
z
" clip-path="url(#p9b76f30765)" style="fill: #434348"/>
   </g>
   <g id="patch_132">
    <path d="M 493.59625 234.504 
L 727.95625 234.504 
L 727.95625 278.856 
L 493.59625 278.856 
z
" clip-path="url(#p9b76f30765)" style="fill: #434348"/>
   </g>
   <g id="patch_133">
    <path d="M 278.76625 289.944 
L 278.76625 289.944 
L 278.76625 334.296 
L 278.76625 334.296 
z
" clip-path="url(#p9b76f30765)" style="fill: #434348"/>
   </g>
   <g id="patch_134">
    <path d="M 806.07625 12.744 
L 806.07625 12.744 
L 806.07625 57.096 
L 806.07625 57.096 
z
" clip-path="url(#p9b76f30765)" style="fill: #90ed7d"/>
   </g>
   <g id="patch_135">
    <path d="M 806.07625 68.184 
L 806.07625 68.184 
L 806.07625 112.536 
L 806.07625 112.536 
z
" clip-path="url(#p9b76f30765)" style="fill: #90ed7d"/>
   </g>
   <g id="patch_136">
    <path d="M 806.07625 123.624 
L 806.07625 123.624 
L 806.07625 167.976 
L 806.07625 167.976 
z
" clip-path="url(#p9b76f30765)" style="fill: #90ed7d"/>
   </g>
   <g id="patch_137">
    <path d="M 806.07625 179.064 
L 806.07625 179.064 
L 806.07625 223.416 
L 806.07625 223.416 
z
" clip-path="url(#p9b76f30765)" style="fill: #90ed7d"/>
   </g>
   <g id="patch_138">
    <path d="M 727.95625 234.504 
L 806.07625 234.504 
L 806.07625 278.856 
L 727.95625 278.856 
z
" clip-path="url(#p9b76f30765)" style="fill: #90ed7d"/>
   </g>
   <g id="patch_139">
    <path d="M 278.76625 289.944 
L 493.59625 289.944 
L 493.59625 334.296 
L 278.76625 334.296 
z
" clip-path="url(#p9b76f30765)" style="fill: #90ed7d"/>
   </g>
   <g id="patch_140">
    <path d="M 806.07625 12.744 
L 806.07625 12.744 
L 806.07625 57.096 
L 806.07625 57.096 
z
" clip-path="url(#p9b76f30765)" style="fill: #f7a35c"/>
   </g>
   <g id="patch_141">
    <path d="M 806.07625 68.184 
L 806.07625 68.184 
L 806.07625 112.536 
L 806.07625 112.536 
z
" clip-path="url(#p9b76f30765)" style="fill: #f7a35c"/>
   </g>
   <g id="patch_142">
    <path d="M 806.07625 123.624 
L 806.07625 123.624 
L 806.07625 167.976 
L 806.07625 167.976 
z
" clip-path="url(#p9b76f30765)" style="fill: #f7a35c"/>
   </g>
   <g id="patch_143">
    <path d="M 806.07625 179.064 
L 806.07625 179.064 
L 806.07625 223.416 
L 806.07625 223.416 
z
" clip-path="url(#p9b76f30765)" style="fill: #f7a35c"/>
   </g>
   <g id="patch_144">
    <path d="M 806.07625 234.504 
L 806.07625 234.504 
L 806.07625 278.856 
L 806.07625 278.856 
z
" clip-path="url(#p9b76f30765)" style="fill: #f7a35c"/>
   </g>
   <g id="patch_145">
    <path d="M 493.59625 289.944 
L 610.77625 289.944 
L 610.77625 334.296 
L 493.59625 334.296 
z
" clip-path="url(#p9b76f30765)" style="fill: #f7a35c"/>
   </g>
   <g id="patch_146">
    <path d="M 806.07625 12.744 
L 806.07625 12.744 
L 806.07625 57.096 
L 806.07625 57.096 
z
" clip-path="url(#p9b76f30765)" style="fill: #8085e9"/>
   </g>
   <g id="patch_147">
    <path d="M 806.07625 68.184 
L 806.07625 68.184 
L 806.07625 112.536 
L 806.07625 112.536 
z
" clip-path="url(#p9b76f30765)" style="fill: #8085e9"/>
   </g>
   <g id="patch_148">
    <path d="M 806.07625 123.624 
L 806.07625 123.624 
L 806.07625 167.976 
L 806.07625 167.976 
z
" clip-path="url(#p9b76f30765)" style="fill: #8085e9"/>
   </g>
   <g id="patch_149">
    <path d="M 806.07625 179.064 
L 806.07625 179.064 
L 806.07625 223.416 
L 806.07625 223.416 
z
" clip-path="url(#p9b76f30765)" style="fill: #8085e9"/>
   </g>
   <g id="patch_150">
    <path d="M 806.07625 234.504 
L 806.07625 234.504 
L 806.07625 278.856 
L 806.07625 278.856 
z
" clip-path="url(#p9b76f30765)" style="fill: #8085e9"/>
   </g>
   <g id="patch_151">
    <path d="M 610.77625 289.944 
L 806.07625 289.944 
L 806.07625 334.296 
L 610.77625 334.296 
z
" clip-path="url(#p9b76f30765)" style="fill: #8085e9"/>
   </g>
   <g id="text_17">
    <!-- Optitype: Summary of alleles -->
    <g transform="translate(298.5925 -20.52)scale(0.16 -0.16)">
     <defs>
      <path id="DejaVuSans-4f" d="M 2522 4238 
Q 1834 4238 1429 3725 
Q 1025 3213 1025 2328 
Q 1025 1447 1429 934 
Q 1834 422 2522 422 
Q 3209 422 3611 934 
Q 4013 1447 4013 2328 
Q 4013 3213 3611 3725 
Q 3209 4238 2522 4238 
z
M 2522 4750 
Q 3503 4750 4090 4092 
Q 4678 3434 4678 2328 
Q 4678 1225 4090 567 
Q 3503 -91 2522 -91 
Q 1538 -91 948 565 
Q 359 1222 359 2328 
Q 359 3434 948 4092 
Q 1538 4750 2522 4750 
z
" transform="scale(0.015625)"/>
      <path id="DejaVuSans-74" d="M 1172 4494 
L 1172 3500 
L 2356 3500 
L 2356 3053 
L 1172 3053 
L 1172 1153 
Q 1172 725 1289 603 
Q 1406 481 1766 481 
L 2356 481 
L 2356 0 
L 1766 0 
Q 1100 0 847 248 
Q 594 497 594 1153 
L 594 3053 
L 172 3053 
L 172 3500 
L 594 3500 
L 594 4494 
L 1172 4494 
z
" transform="scale(0.015625)"/>
      <path id="DejaVuSans-69" d="M 603 3500 
L 1178 3500 
L 1178 0 
L 603 0 
L 603 3500 
z
M 603 4863 
L 1178 4863 
L 1178 4134 
L 603 4134 
L 603 4863 
z
" transform="scale(0.015625)"/>
      <path id="DejaVuSans-79" d="M 2059 -325 
Q 1816 -950 1584 -1140 
Q 1353 -1331 966 -1331 
L 506 -1331 
L 506 -850 
L 844 -850 
Q 1081 -850 1212 -737 
Q 1344 -625 1503 -206 
L 1606 56 
L 191 3500 
L 800 3500 
L 1894 763 
L 2988 3500 
L 3597 3500 
L 2059 -325 
z
" transform="scale(0.015625)"/>
      <path id="DejaVuSans-3a" d="M 750 794 
L 1409 794 
L 1409 0 
L 750 0 
L 750 794 
z
M 750 3309 
L 1409 3309 
L 1409 2516 
L 750 2516 
L 750 3309 
z
" transform="scale(0.015625)"/>
      <path id="DejaVuSans-75" d="M 544 1381 
L 544 3500 
L 1119 3500 
L 1119 1403 
Q 1119 906 1312 657 
Q 1506 409 1894 409 
Q 2359 409 2629 706 
Q 2900 1003 2900 1516 
L 2900 3500 
L 3475 3500 
L 3475 0 
L 2900 0 
L 2900 538 
Q 2691 219 2414 64 
Q 2138 -91 1772 -91 
Q 1169 -91 856 284 
Q 544 659 544 1381 
z
M 1991 3584 
L 1991 3584 
z
" transform="scale(0.015625)"/>
      <path id="DejaVuSans-72" d="M 2631 2963 
Q 2534 3019 2420 3045 
Q 2306 3072 2169 3072 
Q 1681 3072 1420 2755 
Q 1159 2438 1159 1844 
L 1159 0 
L 581 0 
L 581 3500 
L 1159 3500 
L 1159 2956 
Q 1341 3275 1631 3429 
Q 1922 3584 2338 3584 
Q 2397 3584 2469 3576 
Q 2541 3569 2628 3553 
L 2631 2963 
z
" transform="scale(0.015625)"/>
      <path id="DejaVuSans-6f" d="M 1959 3097 
Q 1497 3097 1228 2736 
Q 959 2375 959 1747 
Q 959 1119 1226 758 
Q 1494 397 1959 397 
Q 2419 397 2687 759 
Q 2956 1122 2956 1747 
Q 2956 2369 2687 2733 
Q 2419 3097 1959 3097 
z
M 1959 3584 
Q 2709 3584 3137 3096 
Q 3566 2609 3566 1747 
Q 3566 888 3137 398 
Q 2709 -91 1959 -91 
Q 1206 -91 779 398 
Q 353 888 353 1747 
Q 353 2609 779 3096 
Q 1206 3584 1959 3584 
z
" transform="scale(0.015625)"/>
      <path id="DejaVuSans-66" d="M 2375 4863 
L 2375 4384 
L 1825 4384 
Q 1516 4384 1395 4259 
Q 1275 4134 1275 3809 
L 1275 3500 
L 2222 3500 
L 2222 3053 
L 1275 3053 
L 1275 0 
L 697 0 
L 697 3053 
L 147 3053 
L 147 3500 
L 697 3500 
L 697 3744 
Q 697 4328 969 4595 
Q 1241 4863 1831 4863 
L 2375 4863 
z
" transform="scale(0.015625)"/>
     </defs>
     <use xlink:href="#DejaVuSans-4f"/>
     <use xlink:href="#DejaVuSans-70" x="78.710938"/>
     <use xlink:href="#DejaVuSans-74" x="142.1875"/>
     <use xlink:href="#DejaVuSans-69" x="181.396484"/>
     <use xlink:href="#DejaVuSans-74" x="209.179688"/>
     <use xlink:href="#DejaVuSans-79" x="248.388672"/>
     <use xlink:href="#DejaVuSans-70" x="307.568359"/>
     <use xlink:href="#DejaVuSans-65" x="371.044922"/>
     <use xlink:href="#DejaVuSans-3a" x="432.568359"/>
     <use xlink:href="#DejaVuSans-20" x="466.259766"/>
     <use xlink:href="#DejaVuSans-53" x="498.046875"/>
     <use xlink:href="#DejaVuSans-75" x="561.523438"/>
     <use xlink:href="#DejaVuSans-6d" x="624.902344"/>
     <use xlink:href="#DejaVuSans-6d" x="722.314453"/>
     <use xlink:href="#DejaVuSans-61" x="819.726562"/>
     <use xlink:href="#DejaVuSans-72" x="881.005859"/>
     <use xlink:href="#DejaVuSans-79" x="922.119141"/>
     <use xlink:href="#DejaVuSans-20" x="981.298828"/>
     <use xlink:href="#DejaVuSans-6f" x="1013.085938"/>
     <use xlink:href="#DejaVuSans-66" x="1074.267578"/>
     <use xlink:href="#DejaVuSans-20" x="1109.472656"/>
     <use xlink:href="#DejaVuSans-61" x="1141.259766"/>
     <use xlink:href="#DejaVuSans-6c" x="1202.539062"/>
     <use xlink:href="#DejaVuSans-6c" x="1230.322266"/>
     <use xlink:href="#DejaVuSans-65" x="1258.105469"/>
     <use xlink:href="#DejaVuSans-6c" x="1319.628906"/>
     <use xlink:href="#DejaVuSans-65" x="1347.412109"/>
     <use xlink:href="#DejaVuSans-73" x="1408.935547"/>
    </g>
   </g>
   <g id="legend_1">
    <g id="patch_152">
     <path d="M 32.07625 367.16625 
L 48.07625 367.16625 
L 48.07625 361.56625 
L 32.07625 361.56625 
z
" style="fill: #7cb5ec"/>
    </g>
    <g id="text_18">
     <!-- A*31:01 -->
     <g transform="translate(54.47625 367.16625)scale(0.08 -0.08)">
      <defs>
       <path id="DejaVuSans-2a" d="M 3009 3897 
L 1888 3291 
L 3009 2681 
L 2828 2375 
L 1778 3009 
L 1778 1831 
L 1422 1831 
L 1422 3009 
L 372 2375 
L 191 2681 
L 1313 3291 
L 191 3897 
L 372 4206 
L 1422 3572 
L 1422 4750 
L 1778 4750 
L 1778 3572 
L 2828 4206 
L 3009 3897 
z
" transform="scale(0.015625)"/>
      </defs>
      <use xlink:href="#DejaVuSans-41"/>
      <use xlink:href="#DejaVuSans-2a" x="68.408203"/>
      <use xlink:href="#DejaVuSans-33" x="118.408203"/>
      <use xlink:href="#DejaVuSans-31" x="182.03125"/>
      <use xlink:href="#DejaVuSans-3a" x="245.654297"/>
      <use xlink:href="#DejaVuSans-30" x="279.345703"/>
      <use xlink:href="#DejaVuSans-31" x="342.96875"/>
     </g>
    </g>
    <g id="patch_153">
     <path d="M 32.07625 378.90875 
L 48.07625 378.90875 
L 48.07625 373.30875 
L 32.07625 373.30875 
z
" style="fill: #434348"/>
    </g>
    <g id="text_19">
     <!-- A*24:02 -->
     <g transform="translate(54.47625 378.90875)scale(0.08 -0.08)">
      <use xlink:href="#DejaVuSans-41"/>
      <use xlink:href="#DejaVuSans-2a" x="68.408203"/>
      <use xlink:href="#DejaVuSans-32" x="118.408203"/>
      <use xlink:href="#DejaVuSans-34" x="182.03125"/>
      <use xlink:href="#DejaVuSans-3a" x="245.654297"/>
      <use xlink:href="#DejaVuSans-30" x="279.345703"/>
      <use xlink:href="#DejaVuSans-32" x="342.96875"/>
     </g>
    </g>
    <g id="patch_154">
     <path d="M 32.07625 390.65125 
L 48.07625 390.65125 
L 48.07625 385.05125 
L 32.07625 385.05125 
z
" style="fill: #90ed7d"/>
    </g>
    <g id="text_20">
     <!-- A*24:07 -->
     <g transform="translate(54.47625 390.65125)scale(0.08 -0.08)">
      <defs>
       <path id="DejaVuSans-37" d="M 525 4666 
L 3525 4666 
L 3525 4397 
L 1831 0 
L 1172 0 
L 2766 4134 
L 525 4134 
L 525 4666 
z
" transform="scale(0.015625)"/>
      </defs>
      <use xlink:href="#DejaVuSans-41"/>
      <use xlink:href="#DejaVuSans-2a" x="68.408203"/>
      <use xlink:href="#DejaVuSans-32" x="118.408203"/>
      <use xlink:href="#DejaVuSans-34" x="182.03125"/>
      <use xlink:href="#DejaVuSans-3a" x="245.654297"/>
      <use xlink:href="#DejaVuSans-30" x="279.345703"/>
      <use xlink:href="#DejaVuSans-37" x="342.96875"/>
     </g>
    </g>
    <g id="patch_155">
     <path d="M 32.07625 402.39375 
L 48.07625 402.39375 
L 48.07625 396.79375 
L 32.07625 396.79375 
z
" style="fill: #f7a35c"/>
    </g>
    <g id="text_21">
     <!-- A*11:01 -->
     <g transform="translate(54.47625 402.39375)scale(0.08 -0.08)">
      <use xlink:href="#DejaVuSans-41"/>
      <use xlink:href="#DejaVuSans-2a" x="68.408203"/>
      <use xlink:href="#DejaVuSans-31" x="118.408203"/>
      <use xlink:href="#DejaVuSans-31" x="182.03125"/>
      <use xlink:href="#DejaVuSans-3a" x="245.654297"/>
      <use xlink:href="#DejaVuSans-30" x="279.345703"/>
      <use xlink:href="#DejaVuSans-31" x="342.96875"/>
     </g>
    </g>
    <g id="patch_156">
     <path d="M 32.07625 414.13625 
L 48.07625 414.13625 
L 48.07625 408.53625 
L 32.07625 408.53625 
z
" style="fill: #8085e9"/>
    </g>
    <g id="text_22">
     <!-- A*33:03 -->
     <g transform="translate(54.47625 414.13625)scale(0.08 -0.08)">
      <use xlink:href="#DejaVuSans-41"/>
      <use xlink:href="#DejaVuSans-2a" x="68.408203"/>
      <use xlink:href="#DejaVuSans-33" x="118.408203"/>
      <use xlink:href="#DejaVuSans-33" x="182.03125"/>
      <use xlink:href="#DejaVuSans-3a" x="245.654297"/>
      <use xlink:href="#DejaVuSans-30" x="279.345703"/>
      <use xlink:href="#DejaVuSans-33" x="342.96875"/>
     </g>
    </g>
    <g id="patch_157">
     <path d="M 209.979375 367.16625 
L 225.979375 367.16625 
L 225.979375 361.56625 
L 209.979375 361.56625 
z
" style="fill: #f15c80"/>
    </g>
    <g id="text_23">
     <!-- A*03:01 -->
     <g transform="translate(232.379375 367.16625)scale(0.08 -0.08)">
      <use xlink:href="#DejaVuSans-41"/>
      <use xlink:href="#DejaVuSans-2a" x="68.408203"/>
      <use xlink:href="#DejaVuSans-30" x="118.408203"/>
      <use xlink:href="#DejaVuSans-33" x="182.03125"/>
      <use xlink:href="#DejaVuSans-3a" x="245.654297"/>
      <use xlink:href="#DejaVuSans-30" x="279.345703"/>
      <use xlink:href="#DejaVuSans-31" x="342.96875"/>
     </g>
    </g>
    <g id="patch_158">
     <path d="M 209.979375 378.90875 
L 225.979375 378.90875 
L 225.979375 373.30875 
L 209.979375 373.30875 
z
" style="fill: #e4d354"/>
    </g>
    <g id="text_24">
     <!-- B*48:01 -->
     <g transform="translate(232.379375 378.90875)scale(0.08 -0.08)">
      <defs>
       <path id="DejaVuSans-38" d="M 2034 2216 
Q 1584 2216 1326 1975 
Q 1069 1734 1069 1313 
Q 1069 891 1326 650 
Q 1584 409 2034 409 
Q 2484 409 2743 651 
Q 3003 894 3003 1313 
Q 3003 1734 2745 1975 
Q 2488 2216 2034 2216 
z
M 1403 2484 
Q 997 2584 770 2862 
Q 544 3141 544 3541 
Q 544 4100 942 4425 
Q 1341 4750 2034 4750 
Q 2731 4750 3128 4425 
Q 3525 4100 3525 3541 
Q 3525 3141 3298 2862 
Q 3072 2584 2669 2484 
Q 3125 2378 3379 2068 
Q 3634 1759 3634 1313 
Q 3634 634 3220 271 
Q 2806 -91 2034 -91 
Q 1263 -91 848 271 
Q 434 634 434 1313 
Q 434 1759 690 2068 
Q 947 2378 1403 2484 
z
M 1172 3481 
Q 1172 3119 1398 2916 
Q 1625 2713 2034 2713 
Q 2441 2713 2670 2916 
Q 2900 3119 2900 3481 
Q 2900 3844 2670 4047 
Q 2441 4250 2034 4250 
Q 1625 4250 1398 4047 
Q 1172 3844 1172 3481 
z
" transform="scale(0.015625)"/>
      </defs>
      <use xlink:href="#DejaVuSans-42"/>
      <use xlink:href="#DejaVuSans-2a" x="68.603516"/>
      <use xlink:href="#DejaVuSans-34" x="118.603516"/>
      <use xlink:href="#DejaVuSans-38" x="182.226562"/>
      <use xlink:href="#DejaVuSans-3a" x="245.849609"/>
      <use xlink:href="#DejaVuSans-30" x="279.541016"/>
      <use xlink:href="#DejaVuSans-31" x="343.164062"/>
     </g>
    </g>
    <g id="patch_159">
     <path d="M 209.979375 390.65125 
L 225.979375 390.65125 
L 225.979375 385.05125 
L 209.979375 385.05125 
z
" style="fill: #2b908f"/>
    </g>
    <g id="text_25">
     <!-- B*40:01 -->
     <g transform="translate(232.379375 390.65125)scale(0.08 -0.08)">
      <use xlink:href="#DejaVuSans-42"/>
      <use xlink:href="#DejaVuSans-2a" x="68.603516"/>
      <use xlink:href="#DejaVuSans-34" x="118.603516"/>
      <use xlink:href="#DejaVuSans-30" x="182.226562"/>
      <use xlink:href="#DejaVuSans-3a" x="245.849609"/>
      <use xlink:href="#DejaVuSans-30" x="279.541016"/>
      <use xlink:href="#DejaVuSans-31" x="343.164062"/>
     </g>
    </g>
    <g id="patch_160">
     <path d="M 209.979375 402.39375 
L 225.979375 402.39375 
L 225.979375 396.79375 
L 209.979375 396.79375 
z
" style="fill: #f45b5b"/>
    </g>
    <g id="text_26">
     <!-- B*27:06 -->
     <g transform="translate(232.379375 402.39375)scale(0.08 -0.08)">
      <defs>
       <path id="DejaVuSans-36" d="M 2113 2584 
Q 1688 2584 1439 2293 
Q 1191 2003 1191 1497 
Q 1191 994 1439 701 
Q 1688 409 2113 409 
Q 2538 409 2786 701 
Q 3034 994 3034 1497 
Q 3034 2003 2786 2293 
Q 2538 2584 2113 2584 
z
M 3366 4563 
L 3366 3988 
Q 3128 4100 2886 4159 
Q 2644 4219 2406 4219 
Q 1781 4219 1451 3797 
Q 1122 3375 1075 2522 
Q 1259 2794 1537 2939 
Q 1816 3084 2150 3084 
Q 2853 3084 3261 2657 
Q 3669 2231 3669 1497 
Q 3669 778 3244 343 
Q 2819 -91 2113 -91 
Q 1303 -91 875 529 
Q 447 1150 447 2328 
Q 447 3434 972 4092 
Q 1497 4750 2381 4750 
Q 2619 4750 2861 4703 
Q 3103 4656 3366 4563 
z
" transform="scale(0.015625)"/>
      </defs>
      <use xlink:href="#DejaVuSans-42"/>
      <use xlink:href="#DejaVuSans-2a" x="68.603516"/>
      <use xlink:href="#DejaVuSans-32" x="118.603516"/>
      <use xlink:href="#DejaVuSans-37" x="182.226562"/>
      <use xlink:href="#DejaVuSans-3a" x="245.849609"/>
      <use xlink:href="#DejaVuSans-30" x="279.541016"/>
      <use xlink:href="#DejaVuSans-36" x="343.164062"/>
     </g>
    </g>
    <g id="patch_161">
     <path d="M 209.979375 414.13625 
L 225.979375 414.13625 
L 225.979375 408.53625 
L 209.979375 408.53625 
z
" style="fill: #91e8e1"/>
    </g>
    <g id="text_27">
     <!-- B*15:01 -->
     <g transform="translate(232.379375 414.13625)scale(0.08 -0.08)">
      <use xlink:href="#DejaVuSans-42"/>
      <use xlink:href="#DejaVuSans-2a" x="68.603516"/>
      <use xlink:href="#DejaVuSans-31" x="118.603516"/>
      <use xlink:href="#DejaVuSans-35" x="182.226562"/>
      <use xlink:href="#DejaVuSans-3a" x="245.849609"/>
      <use xlink:href="#DejaVuSans-30" x="279.541016"/>
      <use xlink:href="#DejaVuSans-31" x="343.164062"/>
     </g>
    </g>
    <g id="patch_162">
     <path d="M 387.89875 367.16625 
L 403.89875 367.16625 
L 403.89875 361.56625 
L 387.89875 361.56625 
z
" style="fill: #7cb5ec"/>
    </g>
    <g id="text_28">
     <!-- B*07:02 -->
     <g transform="translate(410.29875 367.16625)scale(0.08 -0.08)">
      <use xlink:href="#DejaVuSans-42"/>
      <use xlink:href="#DejaVuSans-2a" x="68.603516"/>
      <use xlink:href="#DejaVuSans-30" x="118.603516"/>
      <use xlink:href="#DejaVuSans-37" x="182.226562"/>
      <use xlink:href="#DejaVuSans-3a" x="245.849609"/>
      <use xlink:href="#DejaVuSans-30" x="279.541016"/>
      <use xlink:href="#DejaVuSans-32" x="343.164062"/>
     </g>
    </g>
    <g id="patch_163">
     <path d="M 387.89875 378.90875 
L 403.89875 378.90875 
L 403.89875 373.30875 
L 387.89875 373.30875 
z
" style="fill: #434348"/>
    </g>
    <g id="text_29">
     <!-- B*13:01 -->
     <g transform="translate(410.29875 378.90875)scale(0.08 -0.08)">
      <use xlink:href="#DejaVuSans-42"/>
      <use xlink:href="#DejaVuSans-2a" x="68.603516"/>
      <use xlink:href="#DejaVuSans-31" x="118.603516"/>
      <use xlink:href="#DejaVuSans-33" x="182.226562"/>
      <use xlink:href="#DejaVuSans-3a" x="245.849609"/>
      <use xlink:href="#DejaVuSans-30" x="279.541016"/>
      <use xlink:href="#DejaVuSans-31" x="343.164062"/>
     </g>
    </g>
    <g id="patch_164">
     <path d="M 387.89875 390.65125 
L 403.89875 390.65125 
L 403.89875 385.05125 
L 387.89875 385.05125 
z
" style="fill: #90ed7d"/>
    </g>
    <g id="text_30">
     <!-- B*58:01 -->
     <g transform="translate(410.29875 390.65125)scale(0.08 -0.08)">
      <use xlink:href="#DejaVuSans-42"/>
      <use xlink:href="#DejaVuSans-2a" x="68.603516"/>
      <use xlink:href="#DejaVuSans-35" x="118.603516"/>
      <use xlink:href="#DejaVuSans-38" x="182.226562"/>
      <use xlink:href="#DejaVuSans-3a" x="245.849609"/>
      <use xlink:href="#DejaVuSans-30" x="279.541016"/>
      <use xlink:href="#DejaVuSans-31" x="343.164062"/>
     </g>
    </g>
    <g id="patch_165">
     <path d="M 387.89875 402.39375 
L 403.89875 402.39375 
L 403.89875 396.79375 
L 387.89875 396.79375 
z
" style="fill: #f7a35c"/>
    </g>
    <g id="text_31">
     <!-- B*56:01 -->
     <g transform="translate(410.29875 402.39375)scale(0.08 -0.08)">
      <use xlink:href="#DejaVuSans-42"/>
      <use xlink:href="#DejaVuSans-2a" x="68.603516"/>
      <use xlink:href="#DejaVuSans-35" x="118.603516"/>
      <use xlink:href="#DejaVuSans-36" x="182.226562"/>
      <use xlink:href="#DejaVuSans-3a" x="245.849609"/>
      <use xlink:href="#DejaVuSans-30" x="279.541016"/>
      <use xlink:href="#DejaVuSans-31" x="343.164062"/>
     </g>
    </g>
    <g id="patch_166">
     <path d="M 387.89875 414.13625 
L 403.89875 414.13625 
L 403.89875 408.53625 
L 387.89875 408.53625 
z
" style="fill: #8085e9"/>
    </g>
    <g id="text_32">
     <!-- B*44:03 -->
     <g transform="translate(410.29875 414.13625)scale(0.08 -0.08)">
      <use xlink:href="#DejaVuSans-42"/>
      <use xlink:href="#DejaVuSans-2a" x="68.603516"/>
      <use xlink:href="#DejaVuSans-34" x="118.603516"/>
      <use xlink:href="#DejaVuSans-34" x="182.226562"/>
      <use xlink:href="#DejaVuSans-3a" x="245.849609"/>
      <use xlink:href="#DejaVuSans-30" x="279.541016"/>
      <use xlink:href="#DejaVuSans-33" x="343.164062"/>
     </g>
    </g>
    <g id="patch_167">
     <path d="M 565.818125 367.16625 
L 581.818125 367.16625 
L 581.818125 361.56625 
L 565.818125 361.56625 
z
" style="fill: #f15c80"/>
    </g>
    <g id="text_33">
     <!-- B*15:02 -->
     <g transform="translate(588.218125 367.16625)scale(0.08 -0.08)">
      <use xlink:href="#DejaVuSans-42"/>
      <use xlink:href="#DejaVuSans-2a" x="68.603516"/>
      <use xlink:href="#DejaVuSans-31" x="118.603516"/>
      <use xlink:href="#DejaVuSans-35" x="182.226562"/>
      <use xlink:href="#DejaVuSans-3a" x="245.849609"/>
      <use xlink:href="#DejaVuSans-30" x="279.541016"/>
      <use xlink:href="#DejaVuSans-32" x="343.164062"/>
     </g>
    </g>
    <g id="patch_168">
     <path d="M 565.818125 378.90875 
L 581.818125 378.90875 
L 581.818125 373.30875 
L 565.818125 373.30875 
z
" style="fill: #e4d354"/>
    </g>
    <g id="text_34">
     <!-- B*35:03 -->
     <g transform="translate(588.218125 378.90875)scale(0.08 -0.08)">
      <use xlink:href="#DejaVuSans-42"/>
      <use xlink:href="#DejaVuSans-2a" x="68.603516"/>
      <use xlink:href="#DejaVuSans-33" x="118.603516"/>
      <use xlink:href="#DejaVuSans-35" x="182.226562"/>
      <use xlink:href="#DejaVuSans-3a" x="245.849609"/>
      <use xlink:href="#DejaVuSans-30" x="279.541016"/>
      <use xlink:href="#DejaVuSans-33" x="343.164062"/>
     </g>
    </g>
    <g id="patch_169">
     <path d="M 565.818125 390.65125 
L 581.818125 390.65125 
L 581.818125 385.05125 
L 565.818125 385.05125 
z
" style="fill: #2b908f"/>
    </g>
    <g id="text_35">
     <!-- C*03:02 -->
     <g transform="translate(588.218125 390.65125)scale(0.08 -0.08)">
      <use xlink:href="#DejaVuSans-43"/>
      <use xlink:href="#DejaVuSans-2a" x="69.824219"/>
      <use xlink:href="#DejaVuSans-30" x="119.824219"/>
      <use xlink:href="#DejaVuSans-33" x="183.447266"/>
      <use xlink:href="#DejaVuSans-3a" x="247.070312"/>
      <use xlink:href="#DejaVuSans-30" x="280.761719"/>
      <use xlink:href="#DejaVuSans-32" x="344.384766"/>
     </g>
    </g>
    <g id="patch_170">
     <path d="M 565.818125 402.39375 
L 581.818125 402.39375 
L 581.818125 396.79375 
L 565.818125 396.79375 
z
" style="fill: #f45b5b"/>
    </g>
    <g id="text_36">
     <!-- C*01:02 -->
     <g transform="translate(588.218125 402.39375)scale(0.08 -0.08)">
      <use xlink:href="#DejaVuSans-43"/>
      <use xlink:href="#DejaVuSans-2a" x="69.824219"/>
      <use xlink:href="#DejaVuSans-30" x="119.824219"/>
      <use xlink:href="#DejaVuSans-31" x="183.447266"/>
      <use xlink:href="#DejaVuSans-3a" x="247.070312"/>
      <use xlink:href="#DejaVuSans-30" x="280.761719"/>
      <use xlink:href="#DejaVuSans-32" x="344.384766"/>
     </g>
    </g>
    <g id="patch_171">
     <path d="M 565.818125 414.13625 
L 581.818125 414.13625 
L 581.818125 408.53625 
L 565.818125 408.53625 
z
" style="fill: #91e8e1"/>
    </g>
    <g id="text_37">
     <!-- C*07:02 -->
     <g transform="translate(588.218125 414.13625)scale(0.08 -0.08)">
      <use xlink:href="#DejaVuSans-43"/>
      <use xlink:href="#DejaVuSans-2a" x="69.824219"/>
      <use xlink:href="#DejaVuSans-30" x="119.824219"/>
      <use xlink:href="#DejaVuSans-37" x="183.447266"/>
      <use xlink:href="#DejaVuSans-3a" x="247.070312"/>
      <use xlink:href="#DejaVuSans-30" x="280.761719"/>
      <use xlink:href="#DejaVuSans-32" x="344.384766"/>
     </g>
    </g>
    <g id="patch_172">
     <path d="M 743.835 367.16625 
L 759.835 367.16625 
L 759.835 361.56625 
L 743.835 361.56625 
z
" style="fill: #7cb5ec"/>
    </g>
    <g id="text_38">
     <!-- C*07:01 -->
     <g transform="translate(766.235 367.16625)scale(0.08 -0.08)">
      <use xlink:href="#DejaVuSans-43"/>
      <use xlink:href="#DejaVuSans-2a" x="69.824219"/>
      <use xlink:href="#DejaVuSans-30" x="119.824219"/>
      <use xlink:href="#DejaVuSans-37" x="183.447266"/>
      <use xlink:href="#DejaVuSans-3a" x="247.070312"/>
      <use xlink:href="#DejaVuSans-30" x="280.761719"/>
      <use xlink:href="#DejaVuSans-31" x="344.384766"/>
     </g>
    </g>
    <g id="patch_173">
     <path d="M 743.835 378.90875 
L 759.835 378.90875 
L 759.835 373.30875 
L 743.835 373.30875 
z
" style="fill: #434348"/>
    </g>
    <g id="text_39">
     <!-- C*04:01 -->
     <g transform="translate(766.235 378.90875)scale(0.08 -0.08)">
      <use xlink:href="#DejaVuSans-43"/>
      <use xlink:href="#DejaVuSans-2a" x="69.824219"/>
      <use xlink:href="#DejaVuSans-30" x="119.824219"/>
      <use xlink:href="#DejaVuSans-34" x="183.447266"/>
      <use xlink:href="#DejaVuSans-3a" x="247.070312"/>
      <use xlink:href="#DejaVuSans-30" x="280.761719"/>
      <use xlink:href="#DejaVuSans-31" x="344.384766"/>
     </g>
    </g>
    <g id="patch_174">
     <path d="M 743.835 390.65125 
L 759.835 390.65125 
L 759.835 385.05125 
L 743.835 385.05125 
z
" style="fill: #90ed7d"/>
    </g>
    <g id="text_40">
     <!-- C*03:04 -->
     <g transform="translate(766.235 390.65125)scale(0.08 -0.08)">
      <use xlink:href="#DejaVuSans-43"/>
      <use xlink:href="#DejaVuSans-2a" x="69.824219"/>
      <use xlink:href="#DejaVuSans-30" x="119.824219"/>
      <use xlink:href="#DejaVuSans-33" x="183.447266"/>
      <use xlink:href="#DejaVuSans-3a" x="247.070312"/>
      <use xlink:href="#DejaVuSans-30" x="280.761719"/>
      <use xlink:href="#DejaVuSans-34" x="344.384766"/>
     </g>
    </g>
    <g id="patch_175">
     <path d="M 743.835 402.39375 
L 759.835 402.39375 
L 759.835 396.79375 
L 743.835 396.79375 
z
" style="fill: #f7a35c"/>
    </g>
    <g id="text_41">
     <!-- C*03:03 -->
     <g transform="translate(766.235 402.39375)scale(0.08 -0.08)">
      <use xlink:href="#DejaVuSans-43"/>
      <use xlink:href="#DejaVuSans-2a" x="69.824219"/>
      <use xlink:href="#DejaVuSans-30" x="119.824219"/>
      <use xlink:href="#DejaVuSans-33" x="183.447266"/>
      <use xlink:href="#DejaVuSans-3a" x="247.070312"/>
      <use xlink:href="#DejaVuSans-30" x="280.761719"/>
      <use xlink:href="#DejaVuSans-33" x="344.384766"/>
     </g>
    </g>
    <g id="patch_176">
     <path d="M 743.835 414.13625 
L 759.835 414.13625 
L 759.835 408.53625 
L 743.835 408.53625 
z
" style="fill: #8085e9"/>
    </g>
    <g id="text_42">
     <!-- C*08:01 -->
     <g transform="translate(766.235 414.13625)scale(0.08 -0.08)">
      <use xlink:href="#DejaVuSans-43"/>
      <use xlink:href="#DejaVuSans-2a" x="69.824219"/>
      <use xlink:href="#DejaVuSans-30" x="119.824219"/>
      <use xlink:href="#DejaVuSans-38" x="183.447266"/>
      <use xlink:href="#DejaVuSans-3a" x="247.070312"/>
      <use xlink:href="#DejaVuSans-30" x="280.761719"/>
      <use xlink:href="#DejaVuSans-31" x="344.384766"/>
     </g>
    </g>
   </g>
  </g>
 </g>
 <defs>
  <clipPath id="p9b76f30765">
   <rect x="24.87625" y="7.2" width="781.2" height="332.64"/>
  </clipPath>
 </defs>
</svg>
